M48
; DRILL file KiCad 10.0.3 date 2026-06-20T02:14:04
; FORMAT={-:-/ absolute / metric / decimal}
; #@! TF.CreationDate,2026-06-20T02:14:04+09:00
; #@! TF.GenerationSoftware,Kicad,Pcbnew,10.0.3
; #@! TF.FileFunction,Plated,1,4,PTH
FMAT,2
METRIC
; #@! TA.AperFunction,Plated,PTH,ViaDrill
T1C0.250
; #@! TA.AperFunction,Plated,PTH,ViaDrill
T2C0.300
; #@! TA.AperFunction,Plated,PTH,ComponentDrill
T3C0.700
%
G90
G05
T1
X2.829Y-15.651
X3.99Y-7.585
X4.988Y-7.577
X6.25Y-6.619
X6.908Y-7.579
X7.222Y-11.74
X7.32Y-0.966
X7.417Y-8.286
X7.842Y-7.574
X7.966Y-5.092
X7.985Y-8.498
X9.25Y-6.6
X9.928Y-9.729
X10.25Y-6.6
X10.63Y-5.666
X10.75Y-6.3
X10.753Y-10.554
X12.75Y-6.619
X13.25Y-8.15
X13.625Y-14.448
X13.757Y-7.859
X14.205Y-12.707
X14.806Y-12.793
X14.889Y-2.604
X14.955Y-13.39
X15.209Y-6.848
X15.345Y-8.963
X15.707Y-11.869
X16.264Y-11.704
X16.969Y-13.46
X17.31Y-5.089
X17.4Y-11.8
X18.0Y-11.8
X18.18Y-5.097
X18.55Y-11.95
X18.734Y-15.251
X18.796Y-13.57
X19.175Y-5.33
X19.4Y-11.8
X19.999Y-2.423
X20.052Y-14.9
X20.46Y-11.02
X21.391Y-13.139
X23.431Y-4.473
X23.843Y-14.944
X24.059Y-14.387
X24.262Y-16.938
X25.012Y-1.709
X25.156Y-16.287
X25.736Y-9.745
X25.747Y-16.42
X26.267Y-13.048
X26.5Y-12.2
X27.242Y-7.461
X27.939Y-8.9
X28.723Y-6.456
X29.872Y-10.444
X30.575Y-9.994
X30.775Y-13.455
X34.3Y-13.3
T2
X2.5Y-4.0
X2.5Y-10.0
X2.5Y-17.5
X10.0Y-2.5
X10.0Y-17.5
X17.0Y-2.5
X17.0Y-17.5
X25.0Y-2.5
X33.0Y-4.0
X33.0Y-10.0
X33.0Y-17.5
T3
X20.988Y-15.4
X29.988Y-15.4
M30
