G04 #@! TF.GenerationSoftware,KiCad,Pcbnew,10.0.3*
G04 #@! TF.CreationDate,2026-06-20T02:14:04+09:00*
G04 #@! TF.ProjectId,CameraIoT_38x18_FINAL,43616d65-7261-4496-9f54-5f3338783138,rev?*
G04 #@! TF.SameCoordinates,Original*
G04 #@! TF.FileFunction,Legend,Top*
G04 #@! TF.FilePolarity,Positive*
%FSLAX46Y46*%
G04 Gerber Fmt 4.6, Leading zero omitted, Abs format (unit mm)*
G04 Created by KiCad (PCBNEW 10.0.3) date 2026-06-20 02:14:04*
%MOMM*%
%LPD*%
G01*
G04 APERTURE LIST*
G04 Aperture macros list*
%AMRoundRect*
0 Rectangle with rounded corners*
0 $1 Rounding radius*
0 $2 $3 $4 $5 $6 $7 $8 $9 X,Y pos of 4 corners*
0 Add a 4 corners polygon primitive as box body*
4,1,4,$2,$3,$4,$5,$6,$7,$8,$9,$2,$3,0*
0 Add four circle primitives for the rounded corners*
1,1,$1+$1,$2,$3*
1,1,$1+$1,$4,$5*
1,1,$1+$1,$6,$7*
1,1,$1+$1,$8,$9*
0 Add four rect primitives between the rounded corners*
20,1,$1+$1,$2,$3,$4,$5,0*
20,1,$1+$1,$4,$5,$6,$7,0*
20,1,$1+$1,$6,$7,$8,$9,0*
20,1,$1+$1,$8,$9,$2,$3,0*%
G04 Aperture macros list end*
%ADD10C,0.090000*%
%ADD11C,0.100000*%
%ADD12C,0.060000*%
%ADD13C,0.050000*%
%ADD14C,0.080000*%
%ADD15C,0.260000*%
%ADD16RoundRect,0.035000X-0.600000X-0.800000X0.600000X-0.800000X0.600000X0.800000X-0.600000X0.800000X0*%
%ADD17RoundRect,0.035000X-0.175000X-0.125000X0.175000X-0.125000X0.175000X0.125000X-0.175000X0.125000X0*%
%ADD18RoundRect,0.267500X-0.267500X-0.467500X0.267500X-0.467500X0.267500X0.467500X-0.267500X0.467500X0*%
%ADD19RoundRect,0.035000X-0.400000X-0.900000X0.400000X-0.900000X0.400000X0.900000X-0.400000X0.900000X0*%
%ADD20RoundRect,0.035000X-0.250000X-0.275000X0.250000X-0.275000X0.250000X0.275000X-0.250000X0.275000X0*%
%ADD21RoundRect,0.035000X-0.375000X-0.425000X0.375000X-0.425000X0.375000X0.425000X-0.375000X0.425000X0*%
%ADD22C,1.070000*%
%ADD23RoundRect,0.035000X-0.250000X-0.175000X0.250000X-0.175000X0.250000X0.175000X-0.250000X0.175000X0*%
%ADD24RoundRect,0.035000X-0.225000X-0.350000X0.225000X-0.350000X0.225000X0.350000X-0.225000X0.350000X0*%
%ADD25RoundRect,0.035000X-0.225000X-0.500000X0.225000X-0.500000X0.225000X0.500000X-0.225000X0.500000X0*%
%ADD26RoundRect,0.035000X-0.150000X-0.500000X0.150000X-0.500000X0.150000X0.500000X-0.150000X0.500000X0*%
%ADD27O,1.270000X2.070000*%
%ADD28RoundRect,0.035000X-0.400000X-0.550000X0.400000X-0.550000X0.400000X0.550000X-0.400000X0.550000X0*%
%ADD29RoundRect,0.043500X-0.266500X-0.101500X0.266500X-0.101500X0.266500X0.101500X-0.266500X0.101500X0*%
%ADD30RoundRect,0.043500X-0.101500X-0.266500X0.101500X-0.266500X0.101500X0.266500X-0.101500X0.266500X0*%
%ADD31RoundRect,0.035000X-1.850000X-1.850000X1.850000X-1.850000X1.850000X1.850000X-1.850000X1.850000X0*%
%ADD32RoundRect,0.035000X-0.140000X-0.625000X0.140000X-0.625000X0.140000X0.625000X-0.140000X0.625000X0*%
%ADD33RoundRect,0.035000X-0.500000X-0.700000X0.500000X-0.700000X0.500000X0.700000X-0.500000X0.700000X0*%
G04 APERTURE END LIST*
D10*
X17402380Y-17749760D02*
X17219046Y-17487855D01*
X17088094Y-17749760D02*
X17088094Y-17199760D01*
X17088094Y-17199760D02*
X17297618Y-17199760D01*
X17297618Y-17199760D02*
X17349999Y-17225950D01*
X17349999Y-17225950D02*
X17376189Y-17252141D01*
X17376189Y-17252141D02*
X17402380Y-17304522D01*
X17402380Y-17304522D02*
X17402380Y-17383093D01*
X17402380Y-17383093D02*
X17376189Y-17435474D01*
X17376189Y-17435474D02*
X17349999Y-17461665D01*
X17349999Y-17461665D02*
X17297618Y-17487855D01*
X17297618Y-17487855D02*
X17088094Y-17487855D01*
X17847618Y-17723570D02*
X17795237Y-17749760D01*
X17795237Y-17749760D02*
X17690475Y-17749760D01*
X17690475Y-17749760D02*
X17638094Y-17723570D01*
X17638094Y-17723570D02*
X17611903Y-17671189D01*
X17611903Y-17671189D02*
X17611903Y-17461665D01*
X17611903Y-17461665D02*
X17638094Y-17409284D01*
X17638094Y-17409284D02*
X17690475Y-17383093D01*
X17690475Y-17383093D02*
X17795237Y-17383093D01*
X17795237Y-17383093D02*
X17847618Y-17409284D01*
X17847618Y-17409284D02*
X17873808Y-17461665D01*
X17873808Y-17461665D02*
X17873808Y-17514046D01*
X17873808Y-17514046D02*
X17611903Y-17566427D01*
X18057142Y-17383093D02*
X18188094Y-17749760D01*
X18188094Y-17749760D02*
X18319047Y-17383093D01*
X19130952Y-17461665D02*
X18947619Y-17461665D01*
X18947619Y-17749760D02*
X18947619Y-17199760D01*
X18947619Y-17199760D02*
X19209524Y-17199760D01*
X19419048Y-17749760D02*
X19419048Y-17199760D01*
X19680953Y-17749760D02*
X19680953Y-17199760D01*
X19680953Y-17199760D02*
X19995239Y-17749760D01*
X19995239Y-17749760D02*
X19995239Y-17199760D01*
X20230952Y-17592617D02*
X20492857Y-17592617D01*
X20178571Y-17749760D02*
X20361905Y-17199760D01*
X20361905Y-17199760D02*
X20545238Y-17749760D01*
X20990477Y-17749760D02*
X20728572Y-17749760D01*
X20728572Y-17749760D02*
X20728572Y-17199760D01*
D11*
X6254761Y-17733597D02*
X6223809Y-17764550D01*
X6223809Y-17764550D02*
X6130951Y-17795502D01*
X6130951Y-17795502D02*
X6069047Y-17795502D01*
X6069047Y-17795502D02*
X5976190Y-17764550D01*
X5976190Y-17764550D02*
X5914285Y-17702645D01*
X5914285Y-17702645D02*
X5883332Y-17640740D01*
X5883332Y-17640740D02*
X5852380Y-17516930D01*
X5852380Y-17516930D02*
X5852380Y-17424073D01*
X5852380Y-17424073D02*
X5883332Y-17300264D01*
X5883332Y-17300264D02*
X5914285Y-17238359D01*
X5914285Y-17238359D02*
X5976190Y-17176454D01*
X5976190Y-17176454D02*
X6069047Y-17145502D01*
X6069047Y-17145502D02*
X6130951Y-17145502D01*
X6130951Y-17145502D02*
X6223809Y-17176454D01*
X6223809Y-17176454D02*
X6254761Y-17207407D01*
X6811904Y-17795502D02*
X6811904Y-17455026D01*
X6811904Y-17455026D02*
X6780951Y-17393121D01*
X6780951Y-17393121D02*
X6719047Y-17362169D01*
X6719047Y-17362169D02*
X6595237Y-17362169D01*
X6595237Y-17362169D02*
X6533332Y-17393121D01*
X6811904Y-17764550D02*
X6749999Y-17795502D01*
X6749999Y-17795502D02*
X6595237Y-17795502D01*
X6595237Y-17795502D02*
X6533332Y-17764550D01*
X6533332Y-17764550D02*
X6502380Y-17702645D01*
X6502380Y-17702645D02*
X6502380Y-17640740D01*
X6502380Y-17640740D02*
X6533332Y-17578835D01*
X6533332Y-17578835D02*
X6595237Y-17547883D01*
X6595237Y-17547883D02*
X6749999Y-17547883D01*
X6749999Y-17547883D02*
X6811904Y-17516930D01*
X7121427Y-17795502D02*
X7121427Y-17362169D01*
X7121427Y-17424073D02*
X7152380Y-17393121D01*
X7152380Y-17393121D02*
X7214285Y-17362169D01*
X7214285Y-17362169D02*
X7307142Y-17362169D01*
X7307142Y-17362169D02*
X7369046Y-17393121D01*
X7369046Y-17393121D02*
X7399999Y-17455026D01*
X7399999Y-17455026D02*
X7399999Y-17795502D01*
X7399999Y-17455026D02*
X7430951Y-17393121D01*
X7430951Y-17393121D02*
X7492856Y-17362169D01*
X7492856Y-17362169D02*
X7585713Y-17362169D01*
X7585713Y-17362169D02*
X7647618Y-17393121D01*
X7647618Y-17393121D02*
X7678570Y-17455026D01*
X7678570Y-17455026D02*
X7678570Y-17795502D01*
X8235713Y-17764550D02*
X8173809Y-17795502D01*
X8173809Y-17795502D02*
X8049999Y-17795502D01*
X8049999Y-17795502D02*
X7988094Y-17764550D01*
X7988094Y-17764550D02*
X7957142Y-17702645D01*
X7957142Y-17702645D02*
X7957142Y-17455026D01*
X7957142Y-17455026D02*
X7988094Y-17393121D01*
X7988094Y-17393121D02*
X8049999Y-17362169D01*
X8049999Y-17362169D02*
X8173809Y-17362169D01*
X8173809Y-17362169D02*
X8235713Y-17393121D01*
X8235713Y-17393121D02*
X8266666Y-17455026D01*
X8266666Y-17455026D02*
X8266666Y-17516930D01*
X8266666Y-17516930D02*
X7957142Y-17578835D01*
X8545237Y-17795502D02*
X8545237Y-17362169D01*
X8545237Y-17485978D02*
X8576190Y-17424073D01*
X8576190Y-17424073D02*
X8607142Y-17393121D01*
X8607142Y-17393121D02*
X8669047Y-17362169D01*
X8669047Y-17362169D02*
X8730952Y-17362169D01*
X9226190Y-17795502D02*
X9226190Y-17455026D01*
X9226190Y-17455026D02*
X9195237Y-17393121D01*
X9195237Y-17393121D02*
X9133333Y-17362169D01*
X9133333Y-17362169D02*
X9009523Y-17362169D01*
X9009523Y-17362169D02*
X8947618Y-17393121D01*
X9226190Y-17764550D02*
X9164285Y-17795502D01*
X9164285Y-17795502D02*
X9009523Y-17795502D01*
X9009523Y-17795502D02*
X8947618Y-17764550D01*
X8947618Y-17764550D02*
X8916666Y-17702645D01*
X8916666Y-17702645D02*
X8916666Y-17640740D01*
X8916666Y-17640740D02*
X8947618Y-17578835D01*
X8947618Y-17578835D02*
X9009523Y-17547883D01*
X9009523Y-17547883D02*
X9164285Y-17547883D01*
X9164285Y-17547883D02*
X9226190Y-17516930D01*
X9535713Y-17795502D02*
X9535713Y-17145502D01*
X9938095Y-17795502D02*
X9876190Y-17764550D01*
X9876190Y-17764550D02*
X9845237Y-17733597D01*
X9845237Y-17733597D02*
X9814285Y-17671692D01*
X9814285Y-17671692D02*
X9814285Y-17485978D01*
X9814285Y-17485978D02*
X9845237Y-17424073D01*
X9845237Y-17424073D02*
X9876190Y-17393121D01*
X9876190Y-17393121D02*
X9938095Y-17362169D01*
X9938095Y-17362169D02*
X10030952Y-17362169D01*
X10030952Y-17362169D02*
X10092856Y-17393121D01*
X10092856Y-17393121D02*
X10123809Y-17424073D01*
X10123809Y-17424073D02*
X10154761Y-17485978D01*
X10154761Y-17485978D02*
X10154761Y-17671692D01*
X10154761Y-17671692D02*
X10123809Y-17733597D01*
X10123809Y-17733597D02*
X10092856Y-17764550D01*
X10092856Y-17764550D02*
X10030952Y-17795502D01*
X10030952Y-17795502D02*
X9938095Y-17795502D01*
X10340475Y-17145502D02*
X10711904Y-17145502D01*
X10526190Y-17795502D02*
X10526190Y-17145502D01*
X11361904Y-17145502D02*
X11764285Y-17145502D01*
X11764285Y-17145502D02*
X11547618Y-17393121D01*
X11547618Y-17393121D02*
X11640475Y-17393121D01*
X11640475Y-17393121D02*
X11702380Y-17424073D01*
X11702380Y-17424073D02*
X11733332Y-17455026D01*
X11733332Y-17455026D02*
X11764285Y-17516930D01*
X11764285Y-17516930D02*
X11764285Y-17671692D01*
X11764285Y-17671692D02*
X11733332Y-17733597D01*
X11733332Y-17733597D02*
X11702380Y-17764550D01*
X11702380Y-17764550D02*
X11640475Y-17795502D01*
X11640475Y-17795502D02*
X11454761Y-17795502D01*
X11454761Y-17795502D02*
X11392856Y-17764550D01*
X11392856Y-17764550D02*
X11361904Y-17733597D01*
X12135714Y-17424073D02*
X12073809Y-17393121D01*
X12073809Y-17393121D02*
X12042856Y-17362169D01*
X12042856Y-17362169D02*
X12011904Y-17300264D01*
X12011904Y-17300264D02*
X12011904Y-17269311D01*
X12011904Y-17269311D02*
X12042856Y-17207407D01*
X12042856Y-17207407D02*
X12073809Y-17176454D01*
X12073809Y-17176454D02*
X12135714Y-17145502D01*
X12135714Y-17145502D02*
X12259523Y-17145502D01*
X12259523Y-17145502D02*
X12321428Y-17176454D01*
X12321428Y-17176454D02*
X12352380Y-17207407D01*
X12352380Y-17207407D02*
X12383333Y-17269311D01*
X12383333Y-17269311D02*
X12383333Y-17300264D01*
X12383333Y-17300264D02*
X12352380Y-17362169D01*
X12352380Y-17362169D02*
X12321428Y-17393121D01*
X12321428Y-17393121D02*
X12259523Y-17424073D01*
X12259523Y-17424073D02*
X12135714Y-17424073D01*
X12135714Y-17424073D02*
X12073809Y-17455026D01*
X12073809Y-17455026D02*
X12042856Y-17485978D01*
X12042856Y-17485978D02*
X12011904Y-17547883D01*
X12011904Y-17547883D02*
X12011904Y-17671692D01*
X12011904Y-17671692D02*
X12042856Y-17733597D01*
X12042856Y-17733597D02*
X12073809Y-17764550D01*
X12073809Y-17764550D02*
X12135714Y-17795502D01*
X12135714Y-17795502D02*
X12259523Y-17795502D01*
X12259523Y-17795502D02*
X12321428Y-17764550D01*
X12321428Y-17764550D02*
X12352380Y-17733597D01*
X12352380Y-17733597D02*
X12383333Y-17671692D01*
X12383333Y-17671692D02*
X12383333Y-17547883D01*
X12383333Y-17547883D02*
X12352380Y-17485978D01*
X12352380Y-17485978D02*
X12321428Y-17455026D01*
X12321428Y-17455026D02*
X12259523Y-17424073D01*
X12600000Y-17795502D02*
X12940476Y-17362169D01*
X12600000Y-17362169D02*
X12940476Y-17795502D01*
X13528571Y-17795502D02*
X13157142Y-17795502D01*
X13342856Y-17795502D02*
X13342856Y-17145502D01*
X13342856Y-17145502D02*
X13280952Y-17238359D01*
X13280952Y-17238359D02*
X13219047Y-17300264D01*
X13219047Y-17300264D02*
X13157142Y-17331216D01*
X13900000Y-17424073D02*
X13838095Y-17393121D01*
X13838095Y-17393121D02*
X13807142Y-17362169D01*
X13807142Y-17362169D02*
X13776190Y-17300264D01*
X13776190Y-17300264D02*
X13776190Y-17269311D01*
X13776190Y-17269311D02*
X13807142Y-17207407D01*
X13807142Y-17207407D02*
X13838095Y-17176454D01*
X13838095Y-17176454D02*
X13900000Y-17145502D01*
X13900000Y-17145502D02*
X14023809Y-17145502D01*
X14023809Y-17145502D02*
X14085714Y-17176454D01*
X14085714Y-17176454D02*
X14116666Y-17207407D01*
X14116666Y-17207407D02*
X14147619Y-17269311D01*
X14147619Y-17269311D02*
X14147619Y-17300264D01*
X14147619Y-17300264D02*
X14116666Y-17362169D01*
X14116666Y-17362169D02*
X14085714Y-17393121D01*
X14085714Y-17393121D02*
X14023809Y-17424073D01*
X14023809Y-17424073D02*
X13900000Y-17424073D01*
X13900000Y-17424073D02*
X13838095Y-17455026D01*
X13838095Y-17455026D02*
X13807142Y-17485978D01*
X13807142Y-17485978D02*
X13776190Y-17547883D01*
X13776190Y-17547883D02*
X13776190Y-17671692D01*
X13776190Y-17671692D02*
X13807142Y-17733597D01*
X13807142Y-17733597D02*
X13838095Y-17764550D01*
X13838095Y-17764550D02*
X13900000Y-17795502D01*
X13900000Y-17795502D02*
X14023809Y-17795502D01*
X14023809Y-17795502D02*
X14085714Y-17764550D01*
X14085714Y-17764550D02*
X14116666Y-17733597D01*
X14116666Y-17733597D02*
X14147619Y-17671692D01*
X14147619Y-17671692D02*
X14147619Y-17547883D01*
X14147619Y-17547883D02*
X14116666Y-17485978D01*
X14116666Y-17485978D02*
X14085714Y-17455026D01*
X14085714Y-17455026D02*
X14023809Y-17424073D01*
D12*
X23933333Y-10843832D02*
X23914285Y-10862880D01*
X23914285Y-10862880D02*
X23857143Y-10881927D01*
X23857143Y-10881927D02*
X23819047Y-10881927D01*
X23819047Y-10881927D02*
X23761904Y-10862880D01*
X23761904Y-10862880D02*
X23723809Y-10824784D01*
X23723809Y-10824784D02*
X23704762Y-10786689D01*
X23704762Y-10786689D02*
X23685714Y-10710499D01*
X23685714Y-10710499D02*
X23685714Y-10653356D01*
X23685714Y-10653356D02*
X23704762Y-10577165D01*
X23704762Y-10577165D02*
X23723809Y-10539070D01*
X23723809Y-10539070D02*
X23761904Y-10500975D01*
X23761904Y-10500975D02*
X23819047Y-10481927D01*
X23819047Y-10481927D02*
X23857143Y-10481927D01*
X23857143Y-10481927D02*
X23914285Y-10500975D01*
X23914285Y-10500975D02*
X23933333Y-10520022D01*
X24066666Y-10481927D02*
X24333333Y-10481927D01*
X24333333Y-10481927D02*
X24161904Y-10881927D01*
X25395238Y-7481926D02*
X25395238Y-7805736D01*
X25395238Y-7805736D02*
X25414285Y-7843831D01*
X25414285Y-7843831D02*
X25433333Y-7862879D01*
X25433333Y-7862879D02*
X25471428Y-7881926D01*
X25471428Y-7881926D02*
X25547619Y-7881926D01*
X25547619Y-7881926D02*
X25585714Y-7862879D01*
X25585714Y-7862879D02*
X25604761Y-7843831D01*
X25604761Y-7843831D02*
X25623809Y-7805736D01*
X25623809Y-7805736D02*
X25623809Y-7481926D01*
X25795238Y-7520021D02*
X25814286Y-7500974D01*
X25814286Y-7500974D02*
X25852381Y-7481926D01*
X25852381Y-7481926D02*
X25947619Y-7481926D01*
X25947619Y-7481926D02*
X25985714Y-7500974D01*
X25985714Y-7500974D02*
X26004762Y-7520021D01*
X26004762Y-7520021D02*
X26023809Y-7558117D01*
X26023809Y-7558117D02*
X26023809Y-7596212D01*
X26023809Y-7596212D02*
X26004762Y-7653355D01*
X26004762Y-7653355D02*
X25776190Y-7881926D01*
X25776190Y-7881926D02*
X26023809Y-7881926D01*
X25633333Y-4381927D02*
X25442857Y-4381927D01*
X25442857Y-4381927D02*
X25442857Y-3981927D01*
X25976190Y-4381927D02*
X25747619Y-4381927D01*
X25861905Y-4381927D02*
X25861905Y-3981927D01*
X25861905Y-3981927D02*
X25823809Y-4039070D01*
X25823809Y-4039070D02*
X25785714Y-4077165D01*
X25785714Y-4077165D02*
X25747619Y-4096213D01*
X34233333Y-13743832D02*
X34214285Y-13762880D01*
X34214285Y-13762880D02*
X34157143Y-13781927D01*
X34157143Y-13781927D02*
X34119047Y-13781927D01*
X34119047Y-13781927D02*
X34061904Y-13762880D01*
X34061904Y-13762880D02*
X34023809Y-13724784D01*
X34023809Y-13724784D02*
X34004762Y-13686689D01*
X34004762Y-13686689D02*
X33985714Y-13610499D01*
X33985714Y-13610499D02*
X33985714Y-13553356D01*
X33985714Y-13553356D02*
X34004762Y-13477165D01*
X34004762Y-13477165D02*
X34023809Y-13439070D01*
X34023809Y-13439070D02*
X34061904Y-13400975D01*
X34061904Y-13400975D02*
X34119047Y-13381927D01*
X34119047Y-13381927D02*
X34157143Y-13381927D01*
X34157143Y-13381927D02*
X34214285Y-13400975D01*
X34214285Y-13400975D02*
X34233333Y-13420022D01*
X34385714Y-13420022D02*
X34404762Y-13400975D01*
X34404762Y-13400975D02*
X34442857Y-13381927D01*
X34442857Y-13381927D02*
X34538095Y-13381927D01*
X34538095Y-13381927D02*
X34576190Y-13400975D01*
X34576190Y-13400975D02*
X34595238Y-13420022D01*
X34595238Y-13420022D02*
X34614285Y-13458118D01*
X34614285Y-13458118D02*
X34614285Y-13496213D01*
X34614285Y-13496213D02*
X34595238Y-13553356D01*
X34595238Y-13553356D02*
X34366666Y-13781927D01*
X34366666Y-13781927D02*
X34614285Y-13781927D01*
X32208333Y-9116032D02*
X32189285Y-9135080D01*
X32189285Y-9135080D02*
X32132143Y-9154127D01*
X32132143Y-9154127D02*
X32094047Y-9154127D01*
X32094047Y-9154127D02*
X32036904Y-9135080D01*
X32036904Y-9135080D02*
X31998809Y-9096984D01*
X31998809Y-9096984D02*
X31979762Y-9058889D01*
X31979762Y-9058889D02*
X31960714Y-8982699D01*
X31960714Y-8982699D02*
X31960714Y-8925556D01*
X31960714Y-8925556D02*
X31979762Y-8849365D01*
X31979762Y-8849365D02*
X31998809Y-8811270D01*
X31998809Y-8811270D02*
X32036904Y-8773175D01*
X32036904Y-8773175D02*
X32094047Y-8754127D01*
X32094047Y-8754127D02*
X32132143Y-8754127D01*
X32132143Y-8754127D02*
X32189285Y-8773175D01*
X32189285Y-8773175D02*
X32208333Y-8792222D01*
X32398809Y-9154127D02*
X32475000Y-9154127D01*
X32475000Y-9154127D02*
X32513095Y-9135080D01*
X32513095Y-9135080D02*
X32532143Y-9116032D01*
X32532143Y-9116032D02*
X32570238Y-9058889D01*
X32570238Y-9058889D02*
X32589285Y-8982699D01*
X32589285Y-8982699D02*
X32589285Y-8830318D01*
X32589285Y-8830318D02*
X32570238Y-8792222D01*
X32570238Y-8792222D02*
X32551190Y-8773175D01*
X32551190Y-8773175D02*
X32513095Y-8754127D01*
X32513095Y-8754127D02*
X32436904Y-8754127D01*
X32436904Y-8754127D02*
X32398809Y-8773175D01*
X32398809Y-8773175D02*
X32379762Y-8792222D01*
X32379762Y-8792222D02*
X32360714Y-8830318D01*
X32360714Y-8830318D02*
X32360714Y-8925556D01*
X32360714Y-8925556D02*
X32379762Y-8963651D01*
X32379762Y-8963651D02*
X32398809Y-8982699D01*
X32398809Y-8982699D02*
X32436904Y-9001746D01*
X32436904Y-9001746D02*
X32513095Y-9001746D01*
X32513095Y-9001746D02*
X32551190Y-8982699D01*
X32551190Y-8982699D02*
X32570238Y-8963651D01*
X32570238Y-8963651D02*
X32589285Y-8925556D01*
X18492857Y-13143832D02*
X18473809Y-13162880D01*
X18473809Y-13162880D02*
X18416667Y-13181927D01*
X18416667Y-13181927D02*
X18378571Y-13181927D01*
X18378571Y-13181927D02*
X18321428Y-13162880D01*
X18321428Y-13162880D02*
X18283333Y-13124784D01*
X18283333Y-13124784D02*
X18264286Y-13086689D01*
X18264286Y-13086689D02*
X18245238Y-13010499D01*
X18245238Y-13010499D02*
X18245238Y-12953356D01*
X18245238Y-12953356D02*
X18264286Y-12877165D01*
X18264286Y-12877165D02*
X18283333Y-12839070D01*
X18283333Y-12839070D02*
X18321428Y-12800975D01*
X18321428Y-12800975D02*
X18378571Y-12781927D01*
X18378571Y-12781927D02*
X18416667Y-12781927D01*
X18416667Y-12781927D02*
X18473809Y-12800975D01*
X18473809Y-12800975D02*
X18492857Y-12820022D01*
X18873809Y-13181927D02*
X18645238Y-13181927D01*
X18759524Y-13181927D02*
X18759524Y-12781927D01*
X18759524Y-12781927D02*
X18721428Y-12839070D01*
X18721428Y-12839070D02*
X18683333Y-12877165D01*
X18683333Y-12877165D02*
X18645238Y-12896213D01*
X19216666Y-12781927D02*
X19140476Y-12781927D01*
X19140476Y-12781927D02*
X19102380Y-12800975D01*
X19102380Y-12800975D02*
X19083333Y-12820022D01*
X19083333Y-12820022D02*
X19045238Y-12877165D01*
X19045238Y-12877165D02*
X19026190Y-12953356D01*
X19026190Y-12953356D02*
X19026190Y-13105737D01*
X19026190Y-13105737D02*
X19045238Y-13143832D01*
X19045238Y-13143832D02*
X19064285Y-13162880D01*
X19064285Y-13162880D02*
X19102380Y-13181927D01*
X19102380Y-13181927D02*
X19178571Y-13181927D01*
X19178571Y-13181927D02*
X19216666Y-13162880D01*
X19216666Y-13162880D02*
X19235714Y-13143832D01*
X19235714Y-13143832D02*
X19254761Y-13105737D01*
X19254761Y-13105737D02*
X19254761Y-13010499D01*
X19254761Y-13010499D02*
X19235714Y-12972403D01*
X19235714Y-12972403D02*
X19216666Y-12953356D01*
X19216666Y-12953356D02*
X19178571Y-12934308D01*
X19178571Y-12934308D02*
X19102380Y-12934308D01*
X19102380Y-12934308D02*
X19064285Y-12953356D01*
X19064285Y-12953356D02*
X19045238Y-12972403D01*
X19045238Y-12972403D02*
X19026190Y-13010499D01*
X6742857Y-11643832D02*
X6723809Y-11662880D01*
X6723809Y-11662880D02*
X6666667Y-11681927D01*
X6666667Y-11681927D02*
X6628571Y-11681927D01*
X6628571Y-11681927D02*
X6571428Y-11662880D01*
X6571428Y-11662880D02*
X6533333Y-11624784D01*
X6533333Y-11624784D02*
X6514286Y-11586689D01*
X6514286Y-11586689D02*
X6495238Y-11510499D01*
X6495238Y-11510499D02*
X6495238Y-11453356D01*
X6495238Y-11453356D02*
X6514286Y-11377165D01*
X6514286Y-11377165D02*
X6533333Y-11339070D01*
X6533333Y-11339070D02*
X6571428Y-11300975D01*
X6571428Y-11300975D02*
X6628571Y-11281927D01*
X6628571Y-11281927D02*
X6666667Y-11281927D01*
X6666667Y-11281927D02*
X6723809Y-11300975D01*
X6723809Y-11300975D02*
X6742857Y-11320022D01*
X7123809Y-11681927D02*
X6895238Y-11681927D01*
X7009524Y-11681927D02*
X7009524Y-11281927D01*
X7009524Y-11281927D02*
X6971428Y-11339070D01*
X6971428Y-11339070D02*
X6933333Y-11377165D01*
X6933333Y-11377165D02*
X6895238Y-11396213D01*
X7371428Y-11281927D02*
X7409523Y-11281927D01*
X7409523Y-11281927D02*
X7447619Y-11300975D01*
X7447619Y-11300975D02*
X7466666Y-11320022D01*
X7466666Y-11320022D02*
X7485714Y-11358118D01*
X7485714Y-11358118D02*
X7504761Y-11434308D01*
X7504761Y-11434308D02*
X7504761Y-11529546D01*
X7504761Y-11529546D02*
X7485714Y-11605737D01*
X7485714Y-11605737D02*
X7466666Y-11643832D01*
X7466666Y-11643832D02*
X7447619Y-11662880D01*
X7447619Y-11662880D02*
X7409523Y-11681927D01*
X7409523Y-11681927D02*
X7371428Y-11681927D01*
X7371428Y-11681927D02*
X7333333Y-11662880D01*
X7333333Y-11662880D02*
X7314285Y-11643832D01*
X7314285Y-11643832D02*
X7295238Y-11605737D01*
X7295238Y-11605737D02*
X7276190Y-11529546D01*
X7276190Y-11529546D02*
X7276190Y-11434308D01*
X7276190Y-11434308D02*
X7295238Y-11358118D01*
X7295238Y-11358118D02*
X7314285Y-11320022D01*
X7314285Y-11320022D02*
X7333333Y-11300975D01*
X7333333Y-11300975D02*
X7371428Y-11281927D01*
X7983333Y-10181927D02*
X7850000Y-9991451D01*
X7754762Y-10181927D02*
X7754762Y-9781927D01*
X7754762Y-9781927D02*
X7907143Y-9781927D01*
X7907143Y-9781927D02*
X7945238Y-9800975D01*
X7945238Y-9800975D02*
X7964285Y-9820022D01*
X7964285Y-9820022D02*
X7983333Y-9858118D01*
X7983333Y-9858118D02*
X7983333Y-9915260D01*
X7983333Y-9915260D02*
X7964285Y-9953356D01*
X7964285Y-9953356D02*
X7945238Y-9972403D01*
X7945238Y-9972403D02*
X7907143Y-9991451D01*
X7907143Y-9991451D02*
X7754762Y-9991451D01*
X8326190Y-9781927D02*
X8250000Y-9781927D01*
X8250000Y-9781927D02*
X8211904Y-9800975D01*
X8211904Y-9800975D02*
X8192857Y-9820022D01*
X8192857Y-9820022D02*
X8154762Y-9877165D01*
X8154762Y-9877165D02*
X8135714Y-9953356D01*
X8135714Y-9953356D02*
X8135714Y-10105737D01*
X8135714Y-10105737D02*
X8154762Y-10143832D01*
X8154762Y-10143832D02*
X8173809Y-10162880D01*
X8173809Y-10162880D02*
X8211904Y-10181927D01*
X8211904Y-10181927D02*
X8288095Y-10181927D01*
X8288095Y-10181927D02*
X8326190Y-10162880D01*
X8326190Y-10162880D02*
X8345238Y-10143832D01*
X8345238Y-10143832D02*
X8364285Y-10105737D01*
X8364285Y-10105737D02*
X8364285Y-10010499D01*
X8364285Y-10010499D02*
X8345238Y-9972403D01*
X8345238Y-9972403D02*
X8326190Y-9953356D01*
X8326190Y-9953356D02*
X8288095Y-9934308D01*
X8288095Y-9934308D02*
X8211904Y-9934308D01*
X8211904Y-9934308D02*
X8173809Y-9953356D01*
X8173809Y-9953356D02*
X8154762Y-9972403D01*
X8154762Y-9972403D02*
X8135714Y-10010499D01*
X32683333Y-14931927D02*
X32492857Y-14931927D01*
X32492857Y-14931927D02*
X32492857Y-14531927D01*
X32797619Y-14570022D02*
X32816667Y-14550975D01*
X32816667Y-14550975D02*
X32854762Y-14531927D01*
X32854762Y-14531927D02*
X32950000Y-14531927D01*
X32950000Y-14531927D02*
X32988095Y-14550975D01*
X32988095Y-14550975D02*
X33007143Y-14570022D01*
X33007143Y-14570022D02*
X33026190Y-14608118D01*
X33026190Y-14608118D02*
X33026190Y-14646213D01*
X33026190Y-14646213D02*
X33007143Y-14703356D01*
X33007143Y-14703356D02*
X32778571Y-14931927D01*
X32778571Y-14931927D02*
X33026190Y-14931927D01*
X2866667Y-2362880D02*
X2923810Y-2381927D01*
X2923810Y-2381927D02*
X3019048Y-2381927D01*
X3019048Y-2381927D02*
X3057143Y-2362880D01*
X3057143Y-2362880D02*
X3076191Y-2343832D01*
X3076191Y-2343832D02*
X3095238Y-2305737D01*
X3095238Y-2305737D02*
X3095238Y-2267641D01*
X3095238Y-2267641D02*
X3076191Y-2229546D01*
X3076191Y-2229546D02*
X3057143Y-2210499D01*
X3057143Y-2210499D02*
X3019048Y-2191451D01*
X3019048Y-2191451D02*
X2942857Y-2172403D01*
X2942857Y-2172403D02*
X2904762Y-2153356D01*
X2904762Y-2153356D02*
X2885715Y-2134308D01*
X2885715Y-2134308D02*
X2866667Y-2096213D01*
X2866667Y-2096213D02*
X2866667Y-2058118D01*
X2866667Y-2058118D02*
X2885715Y-2020022D01*
X2885715Y-2020022D02*
X2904762Y-2000975D01*
X2904762Y-2000975D02*
X2942857Y-1981927D01*
X2942857Y-1981927D02*
X3038096Y-1981927D01*
X3038096Y-1981927D02*
X3095238Y-2000975D01*
X3228571Y-1981927D02*
X3323809Y-2381927D01*
X3323809Y-2381927D02*
X3400000Y-2096213D01*
X3400000Y-2096213D02*
X3476190Y-2381927D01*
X3476190Y-2381927D02*
X3571429Y-1981927D01*
X3933333Y-2381927D02*
X3704762Y-2381927D01*
X3819048Y-2381927D02*
X3819048Y-1981927D01*
X3819048Y-1981927D02*
X3780952Y-2039070D01*
X3780952Y-2039070D02*
X3742857Y-2077165D01*
X3742857Y-2077165D02*
X3704762Y-2096213D01*
X29758333Y-9138232D02*
X29739285Y-9157280D01*
X29739285Y-9157280D02*
X29682143Y-9176327D01*
X29682143Y-9176327D02*
X29644047Y-9176327D01*
X29644047Y-9176327D02*
X29586904Y-9157280D01*
X29586904Y-9157280D02*
X29548809Y-9119184D01*
X29548809Y-9119184D02*
X29529762Y-9081089D01*
X29529762Y-9081089D02*
X29510714Y-9004899D01*
X29510714Y-9004899D02*
X29510714Y-8947756D01*
X29510714Y-8947756D02*
X29529762Y-8871565D01*
X29529762Y-8871565D02*
X29548809Y-8833470D01*
X29548809Y-8833470D02*
X29586904Y-8795375D01*
X29586904Y-8795375D02*
X29644047Y-8776327D01*
X29644047Y-8776327D02*
X29682143Y-8776327D01*
X29682143Y-8776327D02*
X29739285Y-8795375D01*
X29739285Y-8795375D02*
X29758333Y-8814422D01*
X29986904Y-8947756D02*
X29948809Y-8928708D01*
X29948809Y-8928708D02*
X29929762Y-8909660D01*
X29929762Y-8909660D02*
X29910714Y-8871565D01*
X29910714Y-8871565D02*
X29910714Y-8852518D01*
X29910714Y-8852518D02*
X29929762Y-8814422D01*
X29929762Y-8814422D02*
X29948809Y-8795375D01*
X29948809Y-8795375D02*
X29986904Y-8776327D01*
X29986904Y-8776327D02*
X30063095Y-8776327D01*
X30063095Y-8776327D02*
X30101190Y-8795375D01*
X30101190Y-8795375D02*
X30120238Y-8814422D01*
X30120238Y-8814422D02*
X30139285Y-8852518D01*
X30139285Y-8852518D02*
X30139285Y-8871565D01*
X30139285Y-8871565D02*
X30120238Y-8909660D01*
X30120238Y-8909660D02*
X30101190Y-8928708D01*
X30101190Y-8928708D02*
X30063095Y-8947756D01*
X30063095Y-8947756D02*
X29986904Y-8947756D01*
X29986904Y-8947756D02*
X29948809Y-8966803D01*
X29948809Y-8966803D02*
X29929762Y-8985851D01*
X29929762Y-8985851D02*
X29910714Y-9023946D01*
X29910714Y-9023946D02*
X29910714Y-9100137D01*
X29910714Y-9100137D02*
X29929762Y-9138232D01*
X29929762Y-9138232D02*
X29948809Y-9157280D01*
X29948809Y-9157280D02*
X29986904Y-9176327D01*
X29986904Y-9176327D02*
X30063095Y-9176327D01*
X30063095Y-9176327D02*
X30101190Y-9157280D01*
X30101190Y-9157280D02*
X30120238Y-9138232D01*
X30120238Y-9138232D02*
X30139285Y-9100137D01*
X30139285Y-9100137D02*
X30139285Y-9023946D01*
X30139285Y-9023946D02*
X30120238Y-8985851D01*
X30120238Y-8985851D02*
X30101190Y-8966803D01*
X30101190Y-8966803D02*
X30063095Y-8947756D01*
X27883333Y-6068832D02*
X27864285Y-6087880D01*
X27864285Y-6087880D02*
X27807143Y-6106927D01*
X27807143Y-6106927D02*
X27769047Y-6106927D01*
X27769047Y-6106927D02*
X27711904Y-6087880D01*
X27711904Y-6087880D02*
X27673809Y-6049784D01*
X27673809Y-6049784D02*
X27654762Y-6011689D01*
X27654762Y-6011689D02*
X27635714Y-5935499D01*
X27635714Y-5935499D02*
X27635714Y-5878356D01*
X27635714Y-5878356D02*
X27654762Y-5802165D01*
X27654762Y-5802165D02*
X27673809Y-5764070D01*
X27673809Y-5764070D02*
X27711904Y-5725975D01*
X27711904Y-5725975D02*
X27769047Y-5706927D01*
X27769047Y-5706927D02*
X27807143Y-5706927D01*
X27807143Y-5706927D02*
X27864285Y-5725975D01*
X27864285Y-5725975D02*
X27883333Y-5745022D01*
X28245238Y-5706927D02*
X28054762Y-5706927D01*
X28054762Y-5706927D02*
X28035714Y-5897403D01*
X28035714Y-5897403D02*
X28054762Y-5878356D01*
X28054762Y-5878356D02*
X28092857Y-5859308D01*
X28092857Y-5859308D02*
X28188095Y-5859308D01*
X28188095Y-5859308D02*
X28226190Y-5878356D01*
X28226190Y-5878356D02*
X28245238Y-5897403D01*
X28245238Y-5897403D02*
X28264285Y-5935499D01*
X28264285Y-5935499D02*
X28264285Y-6030737D01*
X28264285Y-6030737D02*
X28245238Y-6068832D01*
X28245238Y-6068832D02*
X28226190Y-6087880D01*
X28226190Y-6087880D02*
X28188095Y-6106927D01*
X28188095Y-6106927D02*
X28092857Y-6106927D01*
X28092857Y-6106927D02*
X28054762Y-6087880D01*
X28054762Y-6087880D02*
X28035714Y-6068832D01*
X9645238Y-12231927D02*
X9645238Y-12555737D01*
X9645238Y-12555737D02*
X9664285Y-12593832D01*
X9664285Y-12593832D02*
X9683333Y-12612880D01*
X9683333Y-12612880D02*
X9721428Y-12631927D01*
X9721428Y-12631927D02*
X9797619Y-12631927D01*
X9797619Y-12631927D02*
X9835714Y-12612880D01*
X9835714Y-12612880D02*
X9854761Y-12593832D01*
X9854761Y-12593832D02*
X9873809Y-12555737D01*
X9873809Y-12555737D02*
X9873809Y-12231927D01*
X10235714Y-12365260D02*
X10235714Y-12631927D01*
X10140476Y-12212880D02*
X10045238Y-12498594D01*
X10045238Y-12498594D02*
X10292857Y-12498594D01*
X35152381Y-14767641D02*
X35342857Y-14767641D01*
X35114286Y-14881927D02*
X35247619Y-14481927D01*
X35247619Y-14481927D02*
X35380952Y-14881927D01*
X35514286Y-14881927D02*
X35514286Y-14481927D01*
X35514286Y-14481927D02*
X35742857Y-14881927D01*
X35742857Y-14881927D02*
X35742857Y-14481927D01*
X35876191Y-14481927D02*
X36104762Y-14481927D01*
X35990476Y-14881927D02*
X35990476Y-14481927D01*
X36447619Y-14881927D02*
X36219048Y-14881927D01*
X36333334Y-14881927D02*
X36333334Y-14481927D01*
X36333334Y-14481927D02*
X36295238Y-14539070D01*
X36295238Y-14539070D02*
X36257143Y-14577165D01*
X36257143Y-14577165D02*
X36219048Y-14596213D01*
X1089881Y-13981927D02*
X899405Y-13981927D01*
X899405Y-13981927D02*
X899405Y-13581927D01*
X1223215Y-13772403D02*
X1356548Y-13772403D01*
X1413691Y-13981927D02*
X1223215Y-13981927D01*
X1223215Y-13981927D02*
X1223215Y-13581927D01*
X1223215Y-13581927D02*
X1413691Y-13581927D01*
X1585120Y-13981927D02*
X1585120Y-13581927D01*
X1585120Y-13581927D02*
X1680358Y-13581927D01*
X1680358Y-13581927D02*
X1737501Y-13600975D01*
X1737501Y-13600975D02*
X1775596Y-13639070D01*
X1775596Y-13639070D02*
X1794643Y-13677165D01*
X1794643Y-13677165D02*
X1813691Y-13753356D01*
X1813691Y-13753356D02*
X1813691Y-13810499D01*
X1813691Y-13810499D02*
X1794643Y-13886689D01*
X1794643Y-13886689D02*
X1775596Y-13924784D01*
X1775596Y-13924784D02*
X1737501Y-13962880D01*
X1737501Y-13962880D02*
X1680358Y-13981927D01*
X1680358Y-13981927D02*
X1585120Y-13981927D01*
X2194643Y-13981927D02*
X1966072Y-13981927D01*
X2080358Y-13981927D02*
X2080358Y-13581927D01*
X2080358Y-13581927D02*
X2042262Y-13639070D01*
X2042262Y-13639070D02*
X2004167Y-13677165D01*
X2004167Y-13677165D02*
X1966072Y-13696213D01*
X17543638Y-8171327D02*
X17543638Y-8495137D01*
X17543638Y-8495137D02*
X17562685Y-8533232D01*
X17562685Y-8533232D02*
X17581733Y-8552280D01*
X17581733Y-8552280D02*
X17619828Y-8571327D01*
X17619828Y-8571327D02*
X17696019Y-8571327D01*
X17696019Y-8571327D02*
X17734114Y-8552280D01*
X17734114Y-8552280D02*
X17753161Y-8533232D01*
X17753161Y-8533232D02*
X17772209Y-8495137D01*
X17772209Y-8495137D02*
X17772209Y-8171327D01*
X18172209Y-8571327D02*
X17943638Y-8571327D01*
X18057924Y-8571327D02*
X18057924Y-8171327D01*
X18057924Y-8171327D02*
X18019828Y-8228470D01*
X18019828Y-8228470D02*
X17981733Y-8266565D01*
X17981733Y-8266565D02*
X17943638Y-8285613D01*
X13298400Y-5171327D02*
X13298400Y-4771327D01*
X13298400Y-4771327D02*
X13450781Y-4771327D01*
X13450781Y-4771327D02*
X13488876Y-4790375D01*
X13488876Y-4790375D02*
X13507923Y-4809422D01*
X13507923Y-4809422D02*
X13526971Y-4847518D01*
X13526971Y-4847518D02*
X13526971Y-4904660D01*
X13526971Y-4904660D02*
X13507923Y-4942756D01*
X13507923Y-4942756D02*
X13488876Y-4961803D01*
X13488876Y-4961803D02*
X13450781Y-4980851D01*
X13450781Y-4980851D02*
X13298400Y-4980851D01*
X13698400Y-5171327D02*
X13698400Y-4771327D01*
X13888876Y-5171327D02*
X13888876Y-4771327D01*
X13888876Y-4771327D02*
X14117447Y-5171327D01*
X14117447Y-5171327D02*
X14117447Y-4771327D01*
X14517447Y-5171327D02*
X14288876Y-5171327D01*
X14403162Y-5171327D02*
X14403162Y-4771327D01*
X14403162Y-4771327D02*
X14365066Y-4828470D01*
X14365066Y-4828470D02*
X14326971Y-4866565D01*
X14326971Y-4866565D02*
X14288876Y-4885613D01*
X27883333Y-8618832D02*
X27864285Y-8637880D01*
X27864285Y-8637880D02*
X27807143Y-8656927D01*
X27807143Y-8656927D02*
X27769047Y-8656927D01*
X27769047Y-8656927D02*
X27711904Y-8637880D01*
X27711904Y-8637880D02*
X27673809Y-8599784D01*
X27673809Y-8599784D02*
X27654762Y-8561689D01*
X27654762Y-8561689D02*
X27635714Y-8485499D01*
X27635714Y-8485499D02*
X27635714Y-8428356D01*
X27635714Y-8428356D02*
X27654762Y-8352165D01*
X27654762Y-8352165D02*
X27673809Y-8314070D01*
X27673809Y-8314070D02*
X27711904Y-8275975D01*
X27711904Y-8275975D02*
X27769047Y-8256927D01*
X27769047Y-8256927D02*
X27807143Y-8256927D01*
X27807143Y-8256927D02*
X27864285Y-8275975D01*
X27864285Y-8275975D02*
X27883333Y-8295022D01*
X28226190Y-8256927D02*
X28150000Y-8256927D01*
X28150000Y-8256927D02*
X28111904Y-8275975D01*
X28111904Y-8275975D02*
X28092857Y-8295022D01*
X28092857Y-8295022D02*
X28054762Y-8352165D01*
X28054762Y-8352165D02*
X28035714Y-8428356D01*
X28035714Y-8428356D02*
X28035714Y-8580737D01*
X28035714Y-8580737D02*
X28054762Y-8618832D01*
X28054762Y-8618832D02*
X28073809Y-8637880D01*
X28073809Y-8637880D02*
X28111904Y-8656927D01*
X28111904Y-8656927D02*
X28188095Y-8656927D01*
X28188095Y-8656927D02*
X28226190Y-8637880D01*
X28226190Y-8637880D02*
X28245238Y-8618832D01*
X28245238Y-8618832D02*
X28264285Y-8580737D01*
X28264285Y-8580737D02*
X28264285Y-8485499D01*
X28264285Y-8485499D02*
X28245238Y-8447403D01*
X28245238Y-8447403D02*
X28226190Y-8428356D01*
X28226190Y-8428356D02*
X28188095Y-8409308D01*
X28188095Y-8409308D02*
X28111904Y-8409308D01*
X28111904Y-8409308D02*
X28073809Y-8428356D01*
X28073809Y-8428356D02*
X28054762Y-8447403D01*
X28054762Y-8447403D02*
X28035714Y-8485499D01*
X23245833Y-6143832D02*
X23226785Y-6162880D01*
X23226785Y-6162880D02*
X23169643Y-6181927D01*
X23169643Y-6181927D02*
X23131547Y-6181927D01*
X23131547Y-6181927D02*
X23074404Y-6162880D01*
X23074404Y-6162880D02*
X23036309Y-6124784D01*
X23036309Y-6124784D02*
X23017262Y-6086689D01*
X23017262Y-6086689D02*
X22998214Y-6010499D01*
X22998214Y-6010499D02*
X22998214Y-5953356D01*
X22998214Y-5953356D02*
X23017262Y-5877165D01*
X23017262Y-5877165D02*
X23036309Y-5839070D01*
X23036309Y-5839070D02*
X23074404Y-5800975D01*
X23074404Y-5800975D02*
X23131547Y-5781927D01*
X23131547Y-5781927D02*
X23169643Y-5781927D01*
X23169643Y-5781927D02*
X23226785Y-5800975D01*
X23226785Y-5800975D02*
X23245833Y-5820022D01*
X23588690Y-5915260D02*
X23588690Y-6181927D01*
X23493452Y-5762880D02*
X23398214Y-6048594D01*
X23398214Y-6048594D02*
X23645833Y-6048594D01*
X14842857Y-14643832D02*
X14823809Y-14662880D01*
X14823809Y-14662880D02*
X14766667Y-14681927D01*
X14766667Y-14681927D02*
X14728571Y-14681927D01*
X14728571Y-14681927D02*
X14671428Y-14662880D01*
X14671428Y-14662880D02*
X14633333Y-14624784D01*
X14633333Y-14624784D02*
X14614286Y-14586689D01*
X14614286Y-14586689D02*
X14595238Y-14510499D01*
X14595238Y-14510499D02*
X14595238Y-14453356D01*
X14595238Y-14453356D02*
X14614286Y-14377165D01*
X14614286Y-14377165D02*
X14633333Y-14339070D01*
X14633333Y-14339070D02*
X14671428Y-14300975D01*
X14671428Y-14300975D02*
X14728571Y-14281927D01*
X14728571Y-14281927D02*
X14766667Y-14281927D01*
X14766667Y-14281927D02*
X14823809Y-14300975D01*
X14823809Y-14300975D02*
X14842857Y-14320022D01*
X15223809Y-14681927D02*
X14995238Y-14681927D01*
X15109524Y-14681927D02*
X15109524Y-14281927D01*
X15109524Y-14281927D02*
X15071428Y-14339070D01*
X15071428Y-14339070D02*
X15033333Y-14377165D01*
X15033333Y-14377165D02*
X14995238Y-14396213D01*
X15357142Y-14281927D02*
X15604761Y-14281927D01*
X15604761Y-14281927D02*
X15471428Y-14434308D01*
X15471428Y-14434308D02*
X15528571Y-14434308D01*
X15528571Y-14434308D02*
X15566666Y-14453356D01*
X15566666Y-14453356D02*
X15585714Y-14472403D01*
X15585714Y-14472403D02*
X15604761Y-14510499D01*
X15604761Y-14510499D02*
X15604761Y-14605737D01*
X15604761Y-14605737D02*
X15585714Y-14643832D01*
X15585714Y-14643832D02*
X15566666Y-14662880D01*
X15566666Y-14662880D02*
X15528571Y-14681927D01*
X15528571Y-14681927D02*
X15414285Y-14681927D01*
X15414285Y-14681927D02*
X15376190Y-14662880D01*
X15376190Y-14662880D02*
X15357142Y-14643832D01*
X31733333Y-13693832D02*
X31714285Y-13712880D01*
X31714285Y-13712880D02*
X31657143Y-13731927D01*
X31657143Y-13731927D02*
X31619047Y-13731927D01*
X31619047Y-13731927D02*
X31561904Y-13712880D01*
X31561904Y-13712880D02*
X31523809Y-13674784D01*
X31523809Y-13674784D02*
X31504762Y-13636689D01*
X31504762Y-13636689D02*
X31485714Y-13560499D01*
X31485714Y-13560499D02*
X31485714Y-13503356D01*
X31485714Y-13503356D02*
X31504762Y-13427165D01*
X31504762Y-13427165D02*
X31523809Y-13389070D01*
X31523809Y-13389070D02*
X31561904Y-13350975D01*
X31561904Y-13350975D02*
X31619047Y-13331927D01*
X31619047Y-13331927D02*
X31657143Y-13331927D01*
X31657143Y-13331927D02*
X31714285Y-13350975D01*
X31714285Y-13350975D02*
X31733333Y-13370022D01*
X32114285Y-13731927D02*
X31885714Y-13731927D01*
X32000000Y-13731927D02*
X32000000Y-13331927D01*
X32000000Y-13331927D02*
X31961904Y-13389070D01*
X31961904Y-13389070D02*
X31923809Y-13427165D01*
X31923809Y-13427165D02*
X31885714Y-13446213D01*
X20508333Y-2381927D02*
X20375000Y-2191451D01*
X20279762Y-2381927D02*
X20279762Y-1981927D01*
X20279762Y-1981927D02*
X20432143Y-1981927D01*
X20432143Y-1981927D02*
X20470238Y-2000975D01*
X20470238Y-2000975D02*
X20489285Y-2020022D01*
X20489285Y-2020022D02*
X20508333Y-2058118D01*
X20508333Y-2058118D02*
X20508333Y-2115260D01*
X20508333Y-2115260D02*
X20489285Y-2153356D01*
X20489285Y-2153356D02*
X20470238Y-2172403D01*
X20470238Y-2172403D02*
X20432143Y-2191451D01*
X20432143Y-2191451D02*
X20279762Y-2191451D01*
X20851190Y-2115260D02*
X20851190Y-2381927D01*
X20755952Y-1962880D02*
X20660714Y-2248594D01*
X20660714Y-2248594D02*
X20908333Y-2248594D01*
X22442857Y-8393832D02*
X22423809Y-8412880D01*
X22423809Y-8412880D02*
X22366667Y-8431927D01*
X22366667Y-8431927D02*
X22328571Y-8431927D01*
X22328571Y-8431927D02*
X22271428Y-8412880D01*
X22271428Y-8412880D02*
X22233333Y-8374784D01*
X22233333Y-8374784D02*
X22214286Y-8336689D01*
X22214286Y-8336689D02*
X22195238Y-8260499D01*
X22195238Y-8260499D02*
X22195238Y-8203356D01*
X22195238Y-8203356D02*
X22214286Y-8127165D01*
X22214286Y-8127165D02*
X22233333Y-8089070D01*
X22233333Y-8089070D02*
X22271428Y-8050975D01*
X22271428Y-8050975D02*
X22328571Y-8031927D01*
X22328571Y-8031927D02*
X22366667Y-8031927D01*
X22366667Y-8031927D02*
X22423809Y-8050975D01*
X22423809Y-8050975D02*
X22442857Y-8070022D01*
X22823809Y-8431927D02*
X22595238Y-8431927D01*
X22709524Y-8431927D02*
X22709524Y-8031927D01*
X22709524Y-8031927D02*
X22671428Y-8089070D01*
X22671428Y-8089070D02*
X22633333Y-8127165D01*
X22633333Y-8127165D02*
X22595238Y-8146213D01*
X22957142Y-8031927D02*
X23223809Y-8031927D01*
X23223809Y-8031927D02*
X23052380Y-8431927D01*
X12242857Y-10643832D02*
X12223809Y-10662880D01*
X12223809Y-10662880D02*
X12166667Y-10681927D01*
X12166667Y-10681927D02*
X12128571Y-10681927D01*
X12128571Y-10681927D02*
X12071428Y-10662880D01*
X12071428Y-10662880D02*
X12033333Y-10624784D01*
X12033333Y-10624784D02*
X12014286Y-10586689D01*
X12014286Y-10586689D02*
X11995238Y-10510499D01*
X11995238Y-10510499D02*
X11995238Y-10453356D01*
X11995238Y-10453356D02*
X12014286Y-10377165D01*
X12014286Y-10377165D02*
X12033333Y-10339070D01*
X12033333Y-10339070D02*
X12071428Y-10300975D01*
X12071428Y-10300975D02*
X12128571Y-10281927D01*
X12128571Y-10281927D02*
X12166667Y-10281927D01*
X12166667Y-10281927D02*
X12223809Y-10300975D01*
X12223809Y-10300975D02*
X12242857Y-10320022D01*
X12623809Y-10681927D02*
X12395238Y-10681927D01*
X12509524Y-10681927D02*
X12509524Y-10281927D01*
X12509524Y-10281927D02*
X12471428Y-10339070D01*
X12471428Y-10339070D02*
X12433333Y-10377165D01*
X12433333Y-10377165D02*
X12395238Y-10396213D01*
X13004761Y-10681927D02*
X12776190Y-10681927D01*
X12890476Y-10681927D02*
X12890476Y-10281927D01*
X12890476Y-10281927D02*
X12852380Y-10339070D01*
X12852380Y-10339070D02*
X12814285Y-10377165D01*
X12814285Y-10377165D02*
X12776190Y-10396213D01*
X15792857Y-13143832D02*
X15773809Y-13162880D01*
X15773809Y-13162880D02*
X15716667Y-13181927D01*
X15716667Y-13181927D02*
X15678571Y-13181927D01*
X15678571Y-13181927D02*
X15621428Y-13162880D01*
X15621428Y-13162880D02*
X15583333Y-13124784D01*
X15583333Y-13124784D02*
X15564286Y-13086689D01*
X15564286Y-13086689D02*
X15545238Y-13010499D01*
X15545238Y-13010499D02*
X15545238Y-12953356D01*
X15545238Y-12953356D02*
X15564286Y-12877165D01*
X15564286Y-12877165D02*
X15583333Y-12839070D01*
X15583333Y-12839070D02*
X15621428Y-12800975D01*
X15621428Y-12800975D02*
X15678571Y-12781927D01*
X15678571Y-12781927D02*
X15716667Y-12781927D01*
X15716667Y-12781927D02*
X15773809Y-12800975D01*
X15773809Y-12800975D02*
X15792857Y-12820022D01*
X16173809Y-13181927D02*
X15945238Y-13181927D01*
X16059524Y-13181927D02*
X16059524Y-12781927D01*
X16059524Y-12781927D02*
X16021428Y-12839070D01*
X16021428Y-12839070D02*
X15983333Y-12877165D01*
X15983333Y-12877165D02*
X15945238Y-12896213D01*
X16535714Y-12781927D02*
X16345238Y-12781927D01*
X16345238Y-12781927D02*
X16326190Y-12972403D01*
X16326190Y-12972403D02*
X16345238Y-12953356D01*
X16345238Y-12953356D02*
X16383333Y-12934308D01*
X16383333Y-12934308D02*
X16478571Y-12934308D01*
X16478571Y-12934308D02*
X16516666Y-12953356D01*
X16516666Y-12953356D02*
X16535714Y-12972403D01*
X16535714Y-12972403D02*
X16554761Y-13010499D01*
X16554761Y-13010499D02*
X16554761Y-13105737D01*
X16554761Y-13105737D02*
X16535714Y-13143832D01*
X16535714Y-13143832D02*
X16516666Y-13162880D01*
X16516666Y-13162880D02*
X16478571Y-13181927D01*
X16478571Y-13181927D02*
X16383333Y-13181927D01*
X16383333Y-13181927D02*
X16345238Y-13162880D01*
X16345238Y-13162880D02*
X16326190Y-13143832D01*
X20996633Y-13043427D02*
X20863300Y-12852951D01*
X20768062Y-13043427D02*
X20768062Y-12643427D01*
X20768062Y-12643427D02*
X20920443Y-12643427D01*
X20920443Y-12643427D02*
X20958538Y-12662475D01*
X20958538Y-12662475D02*
X20977585Y-12681522D01*
X20977585Y-12681522D02*
X20996633Y-12719618D01*
X20996633Y-12719618D02*
X20996633Y-12776760D01*
X20996633Y-12776760D02*
X20977585Y-12814856D01*
X20977585Y-12814856D02*
X20958538Y-12833903D01*
X20958538Y-12833903D02*
X20920443Y-12852951D01*
X20920443Y-12852951D02*
X20768062Y-12852951D01*
X21129966Y-12643427D02*
X21396633Y-12643427D01*
X21396633Y-12643427D02*
X21225204Y-13043427D01*
X3495833Y-13981927D02*
X3362500Y-13791451D01*
X3267262Y-13981927D02*
X3267262Y-13581927D01*
X3267262Y-13581927D02*
X3419643Y-13581927D01*
X3419643Y-13581927D02*
X3457738Y-13600975D01*
X3457738Y-13600975D02*
X3476785Y-13620022D01*
X3476785Y-13620022D02*
X3495833Y-13658118D01*
X3495833Y-13658118D02*
X3495833Y-13715260D01*
X3495833Y-13715260D02*
X3476785Y-13753356D01*
X3476785Y-13753356D02*
X3457738Y-13772403D01*
X3457738Y-13772403D02*
X3419643Y-13791451D01*
X3419643Y-13791451D02*
X3267262Y-13791451D01*
X3629166Y-13581927D02*
X3876785Y-13581927D01*
X3876785Y-13581927D02*
X3743452Y-13734308D01*
X3743452Y-13734308D02*
X3800595Y-13734308D01*
X3800595Y-13734308D02*
X3838690Y-13753356D01*
X3838690Y-13753356D02*
X3857738Y-13772403D01*
X3857738Y-13772403D02*
X3876785Y-13810499D01*
X3876785Y-13810499D02*
X3876785Y-13905737D01*
X3876785Y-13905737D02*
X3857738Y-13943832D01*
X3857738Y-13943832D02*
X3838690Y-13962880D01*
X3838690Y-13962880D02*
X3800595Y-13981927D01*
X3800595Y-13981927D02*
X3686309Y-13981927D01*
X3686309Y-13981927D02*
X3648214Y-13962880D01*
X3648214Y-13962880D02*
X3629166Y-13943832D01*
X10642857Y-14643832D02*
X10623809Y-14662880D01*
X10623809Y-14662880D02*
X10566667Y-14681927D01*
X10566667Y-14681927D02*
X10528571Y-14681927D01*
X10528571Y-14681927D02*
X10471428Y-14662880D01*
X10471428Y-14662880D02*
X10433333Y-14624784D01*
X10433333Y-14624784D02*
X10414286Y-14586689D01*
X10414286Y-14586689D02*
X10395238Y-14510499D01*
X10395238Y-14510499D02*
X10395238Y-14453356D01*
X10395238Y-14453356D02*
X10414286Y-14377165D01*
X10414286Y-14377165D02*
X10433333Y-14339070D01*
X10433333Y-14339070D02*
X10471428Y-14300975D01*
X10471428Y-14300975D02*
X10528571Y-14281927D01*
X10528571Y-14281927D02*
X10566667Y-14281927D01*
X10566667Y-14281927D02*
X10623809Y-14300975D01*
X10623809Y-14300975D02*
X10642857Y-14320022D01*
X11023809Y-14681927D02*
X10795238Y-14681927D01*
X10909524Y-14681927D02*
X10909524Y-14281927D01*
X10909524Y-14281927D02*
X10871428Y-14339070D01*
X10871428Y-14339070D02*
X10833333Y-14377165D01*
X10833333Y-14377165D02*
X10795238Y-14396213D01*
X11176190Y-14320022D02*
X11195238Y-14300975D01*
X11195238Y-14300975D02*
X11233333Y-14281927D01*
X11233333Y-14281927D02*
X11328571Y-14281927D01*
X11328571Y-14281927D02*
X11366666Y-14300975D01*
X11366666Y-14300975D02*
X11385714Y-14320022D01*
X11385714Y-14320022D02*
X11404761Y-14358118D01*
X11404761Y-14358118D02*
X11404761Y-14396213D01*
X11404761Y-14396213D02*
X11385714Y-14453356D01*
X11385714Y-14453356D02*
X11157142Y-14681927D01*
X11157142Y-14681927D02*
X11404761Y-14681927D01*
X21780357Y-4643832D02*
X21761309Y-4662880D01*
X21761309Y-4662880D02*
X21704167Y-4681927D01*
X21704167Y-4681927D02*
X21666071Y-4681927D01*
X21666071Y-4681927D02*
X21608928Y-4662880D01*
X21608928Y-4662880D02*
X21570833Y-4624784D01*
X21570833Y-4624784D02*
X21551786Y-4586689D01*
X21551786Y-4586689D02*
X21532738Y-4510499D01*
X21532738Y-4510499D02*
X21532738Y-4453356D01*
X21532738Y-4453356D02*
X21551786Y-4377165D01*
X21551786Y-4377165D02*
X21570833Y-4339070D01*
X21570833Y-4339070D02*
X21608928Y-4300975D01*
X21608928Y-4300975D02*
X21666071Y-4281927D01*
X21666071Y-4281927D02*
X21704167Y-4281927D01*
X21704167Y-4281927D02*
X21761309Y-4300975D01*
X21761309Y-4300975D02*
X21780357Y-4320022D01*
X22161309Y-4681927D02*
X21932738Y-4681927D01*
X22047024Y-4681927D02*
X22047024Y-4281927D01*
X22047024Y-4281927D02*
X22008928Y-4339070D01*
X22008928Y-4339070D02*
X21970833Y-4377165D01*
X21970833Y-4377165D02*
X21932738Y-4396213D01*
X22504166Y-4415260D02*
X22504166Y-4681927D01*
X22408928Y-4262880D02*
X22313690Y-4548594D01*
X22313690Y-4548594D02*
X22561309Y-4548594D01*
X22108333Y-2343832D02*
X22089285Y-2362880D01*
X22089285Y-2362880D02*
X22032143Y-2381927D01*
X22032143Y-2381927D02*
X21994047Y-2381927D01*
X21994047Y-2381927D02*
X21936904Y-2362880D01*
X21936904Y-2362880D02*
X21898809Y-2324784D01*
X21898809Y-2324784D02*
X21879762Y-2286689D01*
X21879762Y-2286689D02*
X21860714Y-2210499D01*
X21860714Y-2210499D02*
X21860714Y-2153356D01*
X21860714Y-2153356D02*
X21879762Y-2077165D01*
X21879762Y-2077165D02*
X21898809Y-2039070D01*
X21898809Y-2039070D02*
X21936904Y-2000975D01*
X21936904Y-2000975D02*
X21994047Y-1981927D01*
X21994047Y-1981927D02*
X22032143Y-1981927D01*
X22032143Y-1981927D02*
X22089285Y-2000975D01*
X22089285Y-2000975D02*
X22108333Y-2020022D01*
X22241666Y-1981927D02*
X22489285Y-1981927D01*
X22489285Y-1981927D02*
X22355952Y-2134308D01*
X22355952Y-2134308D02*
X22413095Y-2134308D01*
X22413095Y-2134308D02*
X22451190Y-2153356D01*
X22451190Y-2153356D02*
X22470238Y-2172403D01*
X22470238Y-2172403D02*
X22489285Y-2210499D01*
X22489285Y-2210499D02*
X22489285Y-2305737D01*
X22489285Y-2305737D02*
X22470238Y-2343832D01*
X22470238Y-2343832D02*
X22451190Y-2362880D01*
X22451190Y-2362880D02*
X22413095Y-2381927D01*
X22413095Y-2381927D02*
X22298809Y-2381927D01*
X22298809Y-2381927D02*
X22260714Y-2362880D01*
X22260714Y-2362880D02*
X22241666Y-2343832D01*
X6133333Y-10181927D02*
X6000000Y-9991451D01*
X5904762Y-10181927D02*
X5904762Y-9781927D01*
X5904762Y-9781927D02*
X6057143Y-9781927D01*
X6057143Y-9781927D02*
X6095238Y-9800975D01*
X6095238Y-9800975D02*
X6114285Y-9820022D01*
X6114285Y-9820022D02*
X6133333Y-9858118D01*
X6133333Y-9858118D02*
X6133333Y-9915260D01*
X6133333Y-9915260D02*
X6114285Y-9953356D01*
X6114285Y-9953356D02*
X6095238Y-9972403D01*
X6095238Y-9972403D02*
X6057143Y-9991451D01*
X6057143Y-9991451D02*
X5904762Y-9991451D01*
X6495238Y-9781927D02*
X6304762Y-9781927D01*
X6304762Y-9781927D02*
X6285714Y-9972403D01*
X6285714Y-9972403D02*
X6304762Y-9953356D01*
X6304762Y-9953356D02*
X6342857Y-9934308D01*
X6342857Y-9934308D02*
X6438095Y-9934308D01*
X6438095Y-9934308D02*
X6476190Y-9953356D01*
X6476190Y-9953356D02*
X6495238Y-9972403D01*
X6495238Y-9972403D02*
X6514285Y-10010499D01*
X6514285Y-10010499D02*
X6514285Y-10105737D01*
X6514285Y-10105737D02*
X6495238Y-10143832D01*
X6495238Y-10143832D02*
X6476190Y-10162880D01*
X6476190Y-10162880D02*
X6438095Y-10181927D01*
X6438095Y-10181927D02*
X6342857Y-10181927D01*
X6342857Y-10181927D02*
X6304762Y-10162880D01*
X6304762Y-10162880D02*
X6285714Y-10143832D01*
X30033333Y-1881927D02*
X29900000Y-1691451D01*
X29804762Y-1881927D02*
X29804762Y-1481927D01*
X29804762Y-1481927D02*
X29957143Y-1481927D01*
X29957143Y-1481927D02*
X29995238Y-1500975D01*
X29995238Y-1500975D02*
X30014285Y-1520022D01*
X30014285Y-1520022D02*
X30033333Y-1558118D01*
X30033333Y-1558118D02*
X30033333Y-1615260D01*
X30033333Y-1615260D02*
X30014285Y-1653356D01*
X30014285Y-1653356D02*
X29995238Y-1672403D01*
X29995238Y-1672403D02*
X29957143Y-1691451D01*
X29957143Y-1691451D02*
X29804762Y-1691451D01*
X30223809Y-1881927D02*
X30300000Y-1881927D01*
X30300000Y-1881927D02*
X30338095Y-1862880D01*
X30338095Y-1862880D02*
X30357143Y-1843832D01*
X30357143Y-1843832D02*
X30395238Y-1786689D01*
X30395238Y-1786689D02*
X30414285Y-1710499D01*
X30414285Y-1710499D02*
X30414285Y-1558118D01*
X30414285Y-1558118D02*
X30395238Y-1520022D01*
X30395238Y-1520022D02*
X30376190Y-1500975D01*
X30376190Y-1500975D02*
X30338095Y-1481927D01*
X30338095Y-1481927D02*
X30261904Y-1481927D01*
X30261904Y-1481927D02*
X30223809Y-1500975D01*
X30223809Y-1500975D02*
X30204762Y-1520022D01*
X30204762Y-1520022D02*
X30185714Y-1558118D01*
X30185714Y-1558118D02*
X30185714Y-1653356D01*
X30185714Y-1653356D02*
X30204762Y-1691451D01*
X30204762Y-1691451D02*
X30223809Y-1710499D01*
X30223809Y-1710499D02*
X30261904Y-1729546D01*
X30261904Y-1729546D02*
X30338095Y-1729546D01*
X30338095Y-1729546D02*
X30376190Y-1710499D01*
X30376190Y-1710499D02*
X30395238Y-1691451D01*
X30395238Y-1691451D02*
X30414285Y-1653356D01*
X29995238Y-6823627D02*
X29995238Y-7147437D01*
X29995238Y-7147437D02*
X30014285Y-7185532D01*
X30014285Y-7185532D02*
X30033333Y-7204580D01*
X30033333Y-7204580D02*
X30071428Y-7223627D01*
X30071428Y-7223627D02*
X30147619Y-7223627D01*
X30147619Y-7223627D02*
X30185714Y-7204580D01*
X30185714Y-7204580D02*
X30204761Y-7185532D01*
X30204761Y-7185532D02*
X30223809Y-7147437D01*
X30223809Y-7147437D02*
X30223809Y-6823627D01*
X30376190Y-6823627D02*
X30623809Y-6823627D01*
X30623809Y-6823627D02*
X30490476Y-6976008D01*
X30490476Y-6976008D02*
X30547619Y-6976008D01*
X30547619Y-6976008D02*
X30585714Y-6995056D01*
X30585714Y-6995056D02*
X30604762Y-7014103D01*
X30604762Y-7014103D02*
X30623809Y-7052199D01*
X30623809Y-7052199D02*
X30623809Y-7147437D01*
X30623809Y-7147437D02*
X30604762Y-7185532D01*
X30604762Y-7185532D02*
X30585714Y-7204580D01*
X30585714Y-7204580D02*
X30547619Y-7223627D01*
X30547619Y-7223627D02*
X30433333Y-7223627D01*
X30433333Y-7223627D02*
X30395238Y-7204580D01*
X30395238Y-7204580D02*
X30376190Y-7185532D01*
X30233333Y-5181927D02*
X30100000Y-4991451D01*
X30004762Y-5181927D02*
X30004762Y-4781927D01*
X30004762Y-4781927D02*
X30157143Y-4781927D01*
X30157143Y-4781927D02*
X30195238Y-4800975D01*
X30195238Y-4800975D02*
X30214285Y-4820022D01*
X30214285Y-4820022D02*
X30233333Y-4858118D01*
X30233333Y-4858118D02*
X30233333Y-4915260D01*
X30233333Y-4915260D02*
X30214285Y-4953356D01*
X30214285Y-4953356D02*
X30195238Y-4972403D01*
X30195238Y-4972403D02*
X30157143Y-4991451D01*
X30157143Y-4991451D02*
X30004762Y-4991451D01*
X30614285Y-5181927D02*
X30385714Y-5181927D01*
X30500000Y-5181927D02*
X30500000Y-4781927D01*
X30500000Y-4781927D02*
X30461904Y-4839070D01*
X30461904Y-4839070D02*
X30423809Y-4877165D01*
X30423809Y-4877165D02*
X30385714Y-4896213D01*
X12745238Y-13331927D02*
X12745238Y-13655737D01*
X12745238Y-13655737D02*
X12764285Y-13693832D01*
X12764285Y-13693832D02*
X12783333Y-13712880D01*
X12783333Y-13712880D02*
X12821428Y-13731927D01*
X12821428Y-13731927D02*
X12897619Y-13731927D01*
X12897619Y-13731927D02*
X12935714Y-13712880D01*
X12935714Y-13712880D02*
X12954761Y-13693832D01*
X12954761Y-13693832D02*
X12973809Y-13655737D01*
X12973809Y-13655737D02*
X12973809Y-13331927D01*
X13354762Y-13331927D02*
X13164286Y-13331927D01*
X13164286Y-13331927D02*
X13145238Y-13522403D01*
X13145238Y-13522403D02*
X13164286Y-13503356D01*
X13164286Y-13503356D02*
X13202381Y-13484308D01*
X13202381Y-13484308D02*
X13297619Y-13484308D01*
X13297619Y-13484308D02*
X13335714Y-13503356D01*
X13335714Y-13503356D02*
X13354762Y-13522403D01*
X13354762Y-13522403D02*
X13373809Y-13560499D01*
X13373809Y-13560499D02*
X13373809Y-13655737D01*
X13373809Y-13655737D02*
X13354762Y-13693832D01*
X13354762Y-13693832D02*
X13335714Y-13712880D01*
X13335714Y-13712880D02*
X13297619Y-13731927D01*
X13297619Y-13731927D02*
X13202381Y-13731927D01*
X13202381Y-13731927D02*
X13164286Y-13712880D01*
X13164286Y-13712880D02*
X13145238Y-13693832D01*
X28433333Y-1881927D02*
X28300000Y-1691451D01*
X28204762Y-1881927D02*
X28204762Y-1481927D01*
X28204762Y-1481927D02*
X28357143Y-1481927D01*
X28357143Y-1481927D02*
X28395238Y-1500975D01*
X28395238Y-1500975D02*
X28414285Y-1520022D01*
X28414285Y-1520022D02*
X28433333Y-1558118D01*
X28433333Y-1558118D02*
X28433333Y-1615260D01*
X28433333Y-1615260D02*
X28414285Y-1653356D01*
X28414285Y-1653356D02*
X28395238Y-1672403D01*
X28395238Y-1672403D02*
X28357143Y-1691451D01*
X28357143Y-1691451D02*
X28204762Y-1691451D01*
X28661904Y-1653356D02*
X28623809Y-1634308D01*
X28623809Y-1634308D02*
X28604762Y-1615260D01*
X28604762Y-1615260D02*
X28585714Y-1577165D01*
X28585714Y-1577165D02*
X28585714Y-1558118D01*
X28585714Y-1558118D02*
X28604762Y-1520022D01*
X28604762Y-1520022D02*
X28623809Y-1500975D01*
X28623809Y-1500975D02*
X28661904Y-1481927D01*
X28661904Y-1481927D02*
X28738095Y-1481927D01*
X28738095Y-1481927D02*
X28776190Y-1500975D01*
X28776190Y-1500975D02*
X28795238Y-1520022D01*
X28795238Y-1520022D02*
X28814285Y-1558118D01*
X28814285Y-1558118D02*
X28814285Y-1577165D01*
X28814285Y-1577165D02*
X28795238Y-1615260D01*
X28795238Y-1615260D02*
X28776190Y-1634308D01*
X28776190Y-1634308D02*
X28738095Y-1653356D01*
X28738095Y-1653356D02*
X28661904Y-1653356D01*
X28661904Y-1653356D02*
X28623809Y-1672403D01*
X28623809Y-1672403D02*
X28604762Y-1691451D01*
X28604762Y-1691451D02*
X28585714Y-1729546D01*
X28585714Y-1729546D02*
X28585714Y-1805737D01*
X28585714Y-1805737D02*
X28604762Y-1843832D01*
X28604762Y-1843832D02*
X28623809Y-1862880D01*
X28623809Y-1862880D02*
X28661904Y-1881927D01*
X28661904Y-1881927D02*
X28738095Y-1881927D01*
X28738095Y-1881927D02*
X28776190Y-1862880D01*
X28776190Y-1862880D02*
X28795238Y-1843832D01*
X28795238Y-1843832D02*
X28814285Y-1805737D01*
X28814285Y-1805737D02*
X28814285Y-1729546D01*
X28814285Y-1729546D02*
X28795238Y-1691451D01*
X28795238Y-1691451D02*
X28776190Y-1672403D01*
X28776190Y-1672403D02*
X28738095Y-1653356D01*
X7366666Y-5401327D02*
X7366666Y-5687041D01*
X7366666Y-5687041D02*
X7347619Y-5744184D01*
X7347619Y-5744184D02*
X7309523Y-5782280D01*
X7309523Y-5782280D02*
X7252381Y-5801327D01*
X7252381Y-5801327D02*
X7214285Y-5801327D01*
X7766666Y-5801327D02*
X7538095Y-5801327D01*
X7652381Y-5801327D02*
X7652381Y-5401327D01*
X7652381Y-5401327D02*
X7614285Y-5458470D01*
X7614285Y-5458470D02*
X7576190Y-5496565D01*
X7576190Y-5496565D02*
X7538095Y-5515613D01*
G04 #@! TO.C,C7*
D13*
X23000000Y-10900000D02*
X25000000Y-10900000D01*
X25000000Y-12500000D01*
X23000000Y-12500000D01*
X23000000Y-10900000D01*
G04 #@! TO.C,U2*
X24700000Y-7900000D02*
X26700000Y-7900000D01*
X26700000Y-9500000D01*
X24700000Y-9500000D01*
X24700000Y-7900000D01*
G04 #@! TO.C,L1*
X24700000Y-4400000D02*
X26700000Y-4400000D01*
X26700000Y-6000000D01*
X24700000Y-6000000D01*
X24700000Y-4400000D01*
G04 #@! TO.C,C2*
X33300000Y-13800000D02*
X35300000Y-13800000D01*
X35300000Y-15400000D01*
X33300000Y-15400000D01*
X33300000Y-13800000D01*
G04 #@! TO.C,C9*
X31275000Y-9172200D02*
X33275000Y-9172200D01*
X33275000Y-10772200D01*
X31275000Y-10772200D01*
X31275000Y-9172200D01*
G04 #@! TO.C,C16*
X17750000Y-13200000D02*
X19750000Y-13200000D01*
X19750000Y-14800000D01*
X17750000Y-14800000D01*
X17750000Y-13200000D01*
G04 #@! TO.C,C10*
X6000000Y-11700000D02*
X8000000Y-11700000D01*
X8000000Y-13300000D01*
X6000000Y-13300000D01*
X6000000Y-11700000D01*
G04 #@! TO.C,R6*
X7050000Y-10200000D02*
X9050000Y-10200000D01*
X9050000Y-11800000D01*
X7050000Y-11800000D01*
X7050000Y-10200000D01*
G04 #@! TO.C,L2*
X31950000Y-14750000D02*
X33550000Y-14750000D01*
X33550000Y-16750000D01*
X31950000Y-16750000D01*
X31950000Y-14750000D01*
G04 #@! TO.C,SW1*
X2400000Y-2400000D02*
X4400000Y-2400000D01*
X4400000Y-4000000D01*
X2400000Y-4000000D01*
X2400000Y-2400000D01*
G04 #@! TO.C,C8*
X28825000Y-9194400D02*
X30825000Y-9194400D01*
X30825000Y-10794400D01*
X28825000Y-10794400D01*
X28825000Y-9194400D01*
G04 #@! TO.C,C5*
X27150000Y-5925000D02*
X28750000Y-5925000D01*
X28750000Y-7925000D01*
X27150000Y-7925000D01*
X27150000Y-5925000D01*
G04 #@! TO.C,U4*
X8950000Y-12650000D02*
X10950000Y-12650000D01*
X10950000Y-14250000D01*
X8950000Y-14250000D01*
X8950000Y-12650000D01*
G04 #@! TO.C,ANT1*
X35000000Y-14700000D02*
X36600000Y-14700000D01*
X36600000Y-16700000D01*
X35000000Y-16700000D01*
X35000000Y-14700000D01*
G04 #@! TO.C,LED1*
X537500Y-14000000D02*
X2537500Y-14000000D01*
X2537500Y-15600000D01*
X537500Y-15600000D01*
X537500Y-14000000D01*
G04 #@! TO.C,U1*
D14*
X14148400Y-5689400D02*
X21548400Y-5689400D01*
X21548400Y-13089400D01*
X14148400Y-13089400D01*
X14148400Y-5689400D01*
D15*
X14028400Y-5439400D02*
G75*
G02*
X13768400Y-5439400I-130000J0D01*
G01*
X13768400Y-5439400D02*
G75*
G02*
X14028400Y-5439400I130000J0D01*
G01*
G04 #@! TO.C,C6*
D13*
X27150000Y-8475000D02*
X28750000Y-8475000D01*
X28750000Y-10475000D01*
X27150000Y-10475000D01*
X27150000Y-8475000D01*
G04 #@! TO.C,C4*
X22512500Y-6000000D02*
X24112500Y-6000000D01*
X24112500Y-8000000D01*
X22512500Y-8000000D01*
X22512500Y-6000000D01*
G04 #@! TO.C,C13*
X14100000Y-14700000D02*
X16100000Y-14700000D01*
X16100000Y-16300000D01*
X14100000Y-16300000D01*
X14100000Y-14700000D01*
G04 #@! TO.C,C1*
X30800000Y-13750000D02*
X32800000Y-13750000D01*
X32800000Y-15350000D01*
X30800000Y-15350000D01*
X30800000Y-13750000D01*
G04 #@! TO.C,R4*
X19575000Y-2400000D02*
X21575000Y-2400000D01*
X21575000Y-4000000D01*
X19575000Y-4000000D01*
X19575000Y-2400000D01*
G04 #@! TO.C,C17*
X21700000Y-8450000D02*
X23700000Y-8450000D01*
X23700000Y-10050000D01*
X21700000Y-10050000D01*
X21700000Y-8450000D01*
G04 #@! TO.C,C11*
X11500000Y-10700000D02*
X13500000Y-10700000D01*
X13500000Y-12300000D01*
X11500000Y-12300000D01*
X11500000Y-10700000D01*
G04 #@! TO.C,C15*
X15050000Y-13200000D02*
X17050000Y-13200000D01*
X17050000Y-14800000D01*
X15050000Y-14800000D01*
X15050000Y-13200000D01*
G04 #@! TO.C,R7*
X20063300Y-13061500D02*
X22063300Y-13061500D01*
X22063300Y-14661500D01*
X20063300Y-14661500D01*
X20063300Y-13061500D01*
G04 #@! TO.C,R3*
X2562500Y-14000000D02*
X4562500Y-14000000D01*
X4562500Y-15600000D01*
X2562500Y-15600000D01*
X2562500Y-14000000D01*
G04 #@! TO.C,C12*
X9900000Y-14700000D02*
X11900000Y-14700000D01*
X11900000Y-16300000D01*
X9900000Y-16300000D01*
X9900000Y-14700000D01*
G04 #@! TO.C,C14*
X21037500Y-4700000D02*
X23037500Y-4700000D01*
X23037500Y-6300000D01*
X21037500Y-6300000D01*
X21037500Y-4700000D01*
G04 #@! TO.C,C3*
X21175000Y-2400000D02*
X23175000Y-2400000D01*
X23175000Y-4000000D01*
X21175000Y-4000000D01*
X21175000Y-2400000D01*
G04 #@! TO.C,R5*
X5200000Y-10200000D02*
X7200000Y-10200000D01*
X7200000Y-11800000D01*
X5200000Y-11800000D01*
X5200000Y-10200000D01*
G04 #@! TO.C,R9*
X29100000Y-1900000D02*
X31100000Y-1900000D01*
X31100000Y-3500000D01*
X29100000Y-3500000D01*
X29100000Y-1900000D01*
G04 #@! TO.C,U3*
X29300000Y-7241700D02*
X31300000Y-7241700D01*
X31300000Y-8841700D01*
X29300000Y-8841700D01*
X29300000Y-7241700D01*
G04 #@! TO.C,R1*
X29300000Y-5200000D02*
X31300000Y-5200000D01*
X31300000Y-6800000D01*
X29300000Y-6800000D01*
X29300000Y-5200000D01*
G04 #@! TO.C,U5*
X12050000Y-13750000D02*
X14050000Y-13750000D01*
X14050000Y-15350000D01*
X12050000Y-15350000D01*
X12050000Y-13750000D01*
G04 #@! TO.C,R8*
X27500000Y-1900000D02*
X29500000Y-1900000D01*
X29500000Y-3500000D01*
X27500000Y-3500000D01*
X27500000Y-1900000D01*
G04 #@! TO.C,J1*
D14*
X500000Y-4619400D02*
X14500000Y-4619400D01*
X14500000Y-8119400D01*
X500000Y-8119400D01*
X500000Y-4619400D01*
G04 #@! TD*
%LPC*%
D16*
G04 #@! TO.C,C7*
X22600000Y-11700000D03*
X25400000Y-11700000D03*
G04 #@! TD*
D17*
G04 #@! TO.C,U2*
X24500000Y-7900000D03*
X24500000Y-8300000D03*
X24500000Y-8700000D03*
X24500000Y-9100000D03*
X24500000Y-9500000D03*
X26900000Y-9500000D03*
X26900000Y-9100000D03*
X26900000Y-8700000D03*
X26900000Y-8300000D03*
X26900000Y-7900000D03*
D18*
X25700000Y-8700000D03*
G04 #@! TD*
D19*
G04 #@! TO.C,L1*
X24800000Y-5200000D03*
X26600000Y-5200000D03*
G04 #@! TD*
D20*
G04 #@! TO.C,C2*
X33850000Y-14600000D03*
X34750000Y-14600000D03*
G04 #@! TD*
D21*
G04 #@! TO.C,C9*
X31525000Y-9972200D03*
X33025000Y-9972200D03*
G04 #@! TD*
G04 #@! TO.C,C16*
X18000000Y-14000000D03*
X19500000Y-14000000D03*
G04 #@! TD*
G04 #@! TO.C,C10*
X6250000Y-12500000D03*
X7750000Y-12500000D03*
G04 #@! TD*
D20*
G04 #@! TO.C,R6*
X7600000Y-11000000D03*
X8500000Y-11000000D03*
G04 #@! TD*
G04 #@! TO.C,L2*
X32750000Y-16200000D03*
X32750000Y-15300000D03*
G04 #@! TD*
D22*
G04 #@! TO.C,MH4*
X36600000Y-11000000D03*
G04 #@! TD*
D23*
G04 #@! TO.C,SW1*
X2600000Y-2750000D03*
X4200000Y-2750000D03*
X2600000Y-3650000D03*
X4200000Y-3650000D03*
G04 #@! TD*
D21*
G04 #@! TO.C,C8*
X29075000Y-9994400D03*
X30575000Y-9994400D03*
G04 #@! TD*
G04 #@! TO.C,C5*
X27950000Y-7675000D03*
X27950000Y-6175000D03*
G04 #@! TD*
D24*
G04 #@! TO.C,U4*
X9000000Y-12500000D03*
X9950000Y-12500000D03*
X10900000Y-12500000D03*
X10400000Y-14400000D03*
X9500000Y-14400000D03*
G04 #@! TD*
D22*
G04 #@! TO.C,MH2*
X36500000Y-1500000D03*
G04 #@! TD*
D20*
G04 #@! TO.C,R10*
X22038300Y-16325000D03*
X22938300Y-16325000D03*
G04 #@! TD*
D25*
G04 #@! TO.C,J2*
X22188300Y-13500000D03*
X23688300Y-13500000D03*
D26*
X24588300Y-13500000D03*
X25188300Y-13500000D03*
X25788300Y-13500000D03*
D25*
X27288300Y-13500000D03*
X28788300Y-13500000D03*
X28788300Y-17300000D03*
X27288300Y-17300000D03*
D26*
X26388300Y-17300000D03*
X25788300Y-17300000D03*
X25188300Y-17300000D03*
D25*
X23688300Y-17300000D03*
X22188300Y-17300000D03*
D27*
X20988300Y-15400000D03*
X29988300Y-15400000D03*
G04 #@! TD*
D22*
G04 #@! TO.C,MH3*
X1500000Y-16500000D03*
G04 #@! TD*
D28*
G04 #@! TO.C,ANT1*
X35800000Y-16800000D03*
X35800000Y-14600000D03*
G04 #@! TD*
D21*
G04 #@! TO.C,LED1*
X787500Y-14800000D03*
X2287500Y-14800000D03*
G04 #@! TD*
D29*
G04 #@! TO.C,U1*
X14398400Y-6789400D03*
X14398400Y-7189400D03*
X14398400Y-7589400D03*
X14398400Y-7989400D03*
X14398400Y-8389400D03*
X14398400Y-8789400D03*
X14398400Y-9189400D03*
X14398400Y-9589400D03*
X14398400Y-9989400D03*
X14398400Y-10389400D03*
X14398400Y-10789400D03*
X14398400Y-11189400D03*
X14398400Y-11589400D03*
X14398400Y-11989400D03*
D30*
X15248400Y-12839400D03*
X15648400Y-12839400D03*
X16048400Y-12839400D03*
X16448400Y-12839400D03*
X16848400Y-12839400D03*
X17248400Y-12839400D03*
X17648400Y-12839400D03*
X18048400Y-12839400D03*
X18448400Y-12839400D03*
X18848400Y-12839400D03*
X19248400Y-12839400D03*
X19648400Y-12839400D03*
X20048400Y-12839400D03*
X20448400Y-12839400D03*
D29*
X21298400Y-11989400D03*
X21298400Y-11589400D03*
X21298400Y-11189400D03*
X21298400Y-10789400D03*
X21298400Y-10389400D03*
X21298400Y-9989400D03*
X21298400Y-9589400D03*
X21298400Y-9189400D03*
X21298400Y-8789400D03*
X21298400Y-8389400D03*
X21298400Y-7989400D03*
X21298400Y-7589400D03*
X21298400Y-7189400D03*
X21298400Y-6789400D03*
D30*
X20448400Y-5939400D03*
X20048400Y-5939400D03*
X19648400Y-5939400D03*
X19248400Y-5939400D03*
X18848400Y-5939400D03*
X18448400Y-5939400D03*
X18048400Y-5939400D03*
X17648400Y-5939400D03*
X17248400Y-5939400D03*
X16848400Y-5939400D03*
X16448400Y-5939400D03*
X16048400Y-5939400D03*
X15648400Y-5939400D03*
X15248400Y-5939400D03*
D31*
X17848400Y-9389400D03*
G04 #@! TD*
D21*
G04 #@! TO.C,C6*
X27950000Y-10225000D03*
X27950000Y-8725000D03*
G04 #@! TD*
G04 #@! TO.C,C4*
X23312500Y-7750000D03*
X23312500Y-6250000D03*
G04 #@! TD*
D20*
G04 #@! TO.C,C13*
X14650000Y-15500000D03*
X15550000Y-15500000D03*
G04 #@! TD*
G04 #@! TO.C,C1*
X31350000Y-14550000D03*
X32250000Y-14550000D03*
G04 #@! TD*
G04 #@! TO.C,R4*
X20125000Y-3200000D03*
X21025000Y-3200000D03*
G04 #@! TD*
G04 #@! TO.C,C17*
X22250000Y-9250000D03*
X23150000Y-9250000D03*
G04 #@! TD*
D21*
G04 #@! TO.C,C11*
X11750000Y-11500000D03*
X13250000Y-11500000D03*
G04 #@! TD*
D20*
G04 #@! TO.C,C15*
X15600000Y-14000000D03*
X16500000Y-14000000D03*
G04 #@! TD*
G04 #@! TO.C,R7*
X20613300Y-13861500D03*
X21513300Y-13861500D03*
G04 #@! TD*
G04 #@! TO.C,R3*
X3112500Y-14800000D03*
X4012500Y-14800000D03*
G04 #@! TD*
G04 #@! TO.C,C12*
X10450000Y-15500000D03*
X11350000Y-15500000D03*
G04 #@! TD*
G04 #@! TO.C,C14*
X21587500Y-5500000D03*
X22487500Y-5500000D03*
G04 #@! TD*
G04 #@! TO.C,C3*
X21725000Y-3200000D03*
X22625000Y-3200000D03*
G04 #@! TD*
G04 #@! TO.C,R5*
X5750000Y-11000000D03*
X6650000Y-11000000D03*
G04 #@! TD*
G04 #@! TO.C,R9*
X29650000Y-2700000D03*
X30550000Y-2700000D03*
G04 #@! TD*
D24*
G04 #@! TO.C,U3*
X29350000Y-7091700D03*
X30300000Y-7091700D03*
X31250000Y-7091700D03*
X30750000Y-8991700D03*
X29850000Y-8991700D03*
G04 #@! TD*
D20*
G04 #@! TO.C,R1*
X29850000Y-6000000D03*
X30750000Y-6000000D03*
G04 #@! TD*
G04 #@! TO.C,R11*
X23638300Y-16325000D03*
X24538300Y-16325000D03*
G04 #@! TD*
D22*
G04 #@! TO.C,MH1*
X1500000Y-1500000D03*
G04 #@! TD*
D24*
G04 #@! TO.C,U5*
X12100000Y-13600000D03*
X13050000Y-13600000D03*
X14000000Y-13600000D03*
X13500000Y-15500000D03*
X12600000Y-15500000D03*
G04 #@! TD*
D20*
G04 #@! TO.C,R8*
X28050000Y-2700000D03*
X28950000Y-2700000D03*
G04 #@! TD*
D32*
G04 #@! TO.C,J1*
X13250000Y-6619400D03*
X12750000Y-6619400D03*
X12250000Y-6619400D03*
X11750000Y-6619400D03*
X11250000Y-6619400D03*
X10750000Y-6619400D03*
X10250000Y-6619400D03*
X9750000Y-6619400D03*
X9250000Y-6619400D03*
X8750000Y-6619400D03*
X8250000Y-6619400D03*
X7750000Y-6619400D03*
X7250000Y-6619400D03*
X6750000Y-6619400D03*
X6250000Y-6619400D03*
X5750000Y-6619400D03*
X5250000Y-6619400D03*
X4750000Y-6619400D03*
X4250000Y-6619400D03*
X3750000Y-6619400D03*
X3250000Y-6619400D03*
X2750000Y-6619400D03*
X2250000Y-6619400D03*
X1750000Y-6619400D03*
D33*
X14200000Y-5619400D03*
X800000Y-5619400D03*
G04 #@! TD*
%LPD*%
M02*
