G04 #@! TF.GenerationSoftware,KiCad,Pcbnew,10.0.3*
G04 #@! TF.CreationDate,2026-06-20T02:14:04+09:00*
G04 #@! TF.ProjectId,CameraIoT_38x18_FINAL,43616d65-7261-4496-9f54-5f3338783138,rev?*
G04 #@! TF.SameCoordinates,Original*
G04 #@! TF.FileFunction,Copper,L2,Inr*
G04 #@! TF.FilePolarity,Positive*
%FSLAX46Y46*%
G04 Gerber Fmt 4.6, Leading zero omitted, Abs format (unit mm)*
G04 Created by KiCad (PCBNEW 10.0.3) date 2026-06-20 02:14:04*
%MOMM*%
%LPD*%
G01*
G04 APERTURE LIST*
G04 #@! TA.AperFunction,WasherPad*
%ADD10C,1.000000*%
G04 #@! TD*
G04 #@! TA.AperFunction,ComponentPad*
%ADD11O,1.200000X2.000000*%
G04 #@! TD*
G04 #@! TA.AperFunction,ViaPad*
%ADD12C,0.450000*%
G04 #@! TD*
G04 #@! TA.AperFunction,ViaPad*
%ADD13C,0.600000*%
G04 #@! TD*
G04 APERTURE END LIST*
D10*
G04 #@! TO.N,*
G04 #@! TO.C,MH4*
X36600000Y-11000000D03*
G04 #@! TD*
G04 #@! TO.N,*
G04 #@! TO.C,MH2*
X36500000Y-1500000D03*
G04 #@! TD*
D11*
G04 #@! TO.N,GND*
G04 #@! TO.C,J2*
X20988300Y-15400000D03*
X29988300Y-15400000D03*
G04 #@! TD*
D10*
G04 #@! TO.N,*
G04 #@! TO.C,MH3*
X1500000Y-16500000D03*
G04 #@! TD*
G04 #@! TO.N,*
G04 #@! TO.C,MH1*
X1500000Y-1500000D03*
G04 #@! TD*
D12*
G04 #@! TO.N,3V3*
X19999500Y-2423300D03*
X19175500Y-5329900D03*
X18734200Y-15251300D03*
X27242400Y-7460700D03*
D13*
G04 #@! TO.N,GND*
X17000000Y-2500000D03*
X17000000Y-17500000D03*
D12*
X30575000Y-9994000D03*
X26500000Y-12200000D03*
D13*
X33000000Y-10000000D03*
D12*
X6250000Y-6619000D03*
D13*
X25000000Y-2500000D03*
D12*
X23431000Y-4473000D03*
D13*
X2500000Y-17500000D03*
X2500000Y-4000000D03*
D12*
X12750000Y-6619000D03*
X34300000Y-13300000D03*
D13*
X2500000Y-10000000D03*
X10000000Y-17500000D03*
D12*
X27939230Y-8899999D03*
X13625000Y-14448000D03*
D13*
X33000000Y-4000000D03*
X33000000Y-17500000D03*
D12*
G04 #@! TO.N,VBAT*
X29871700Y-10443800D03*
X25736100Y-9745300D03*
G04 #@! TO.N,CAM_SIOC*
X10630400Y-5665600D03*
X10753300Y-10554200D03*
G04 #@! TO.N,LNA_IN*
X30775500Y-13455400D03*
X15208800Y-6847700D03*
G04 #@! TO.N,WAKE_BUTTON*
X14889100Y-2604500D03*
X15345000Y-8962600D03*
D13*
X10000000Y-2500000D03*
D12*
G04 #@! TO.N,VCHG_5V*
X7320100Y-965800D03*
X24262200Y-16937700D03*
X23842700Y-14943700D03*
G04 #@! TO.N,USB_DP*
X24059200Y-14387000D03*
X20051700Y-14900100D03*
X25746900Y-16419800D03*
G04 #@! TO.N,USB_DN*
X26266800Y-13048200D03*
X25155900Y-16287000D03*
X18796400Y-13570200D03*
G04 #@! TO.N,CHIP_PU*
X25012500Y-1708700D03*
G04 #@! TO.N,GPIO0*
X13756700Y-7859400D03*
X21391300Y-13138900D03*
G04 #@! TO.N,CAM_SIOD*
X9927700Y-9728600D03*
X7222200Y-11740000D03*
X7965700Y-5092200D03*
G04 #@! TO.N,CAM_D9*
X14805800Y-12792600D03*
X7841900Y-7574400D03*
G04 #@! TO.N,CAM_D8*
X14954900Y-13390100D03*
X6908200Y-7579300D03*
G04 #@! TO.N,CAM_D7*
X7416900Y-8285800D03*
X14204600Y-12707300D03*
G04 #@! TO.N,CAM_D6*
X4988300Y-7576800D03*
X15706500Y-11868600D03*
G04 #@! TO.N,CAM_D5*
X16969200Y-13460300D03*
X3989700Y-7585400D03*
G04 #@! TO.N,CAM_XCLK*
X16264300Y-11703900D03*
X7985100Y-8498000D03*
G04 #@! TO.N,CAM_VSYNC*
X10250000Y-6600000D03*
X17400000Y-11800000D03*
G04 #@! TO.N,CAM_HREF*
X18000000Y-11800000D03*
X9250000Y-6600000D03*
G04 #@! TO.N,CAM_RESETB*
X18550000Y-11950000D03*
X10750000Y-6300000D03*
G04 #@! TO.N,CAM_PWDN*
X13250000Y-8150000D03*
X19400000Y-11800000D03*
G04 #@! TO.N,LED_STATUS*
X2829000Y-15651300D03*
X20459700Y-11020300D03*
G04 #@! TO.N,U0TXD*
X18179600Y-5096700D03*
G04 #@! TO.N,U0RXD*
X17310200Y-5089000D03*
G04 #@! TO.N,CHG_STAT*
X28723500Y-6455800D03*
G04 #@! TD*
G04 #@! TA.AperFunction,Conductor*
G04 #@! TO.N,GND*
G36*
X37758691Y-219407D02*
G01*
X37794655Y-268907D01*
X37799500Y-299500D01*
X37799500Y-13401000D01*
X37780593Y-13459191D01*
X37731093Y-13495155D01*
X37700500Y-13500000D01*
X35000000Y-13500000D01*
X35000000Y-13500001D01*
X35000000Y-17700500D01*
X34981093Y-17758691D01*
X34931593Y-17794655D01*
X34901000Y-17799500D01*
X299500Y-17799500D01*
X241309Y-17780593D01*
X205345Y-17731093D01*
X200500Y-17700500D01*
X200500Y-16420943D01*
X899500Y-16420943D01*
X899500Y-16579057D01*
X940423Y-16731784D01*
X1019480Y-16868716D01*
X1131284Y-16980520D01*
X1268216Y-17059577D01*
X1420943Y-17100500D01*
X1420945Y-17100500D01*
X1579055Y-17100500D01*
X1579057Y-17100500D01*
X1731784Y-17059577D01*
X1868716Y-16980520D01*
X1954389Y-16894847D01*
X23936700Y-16894847D01*
X23936700Y-16980553D01*
X23958882Y-17063338D01*
X24001735Y-17137562D01*
X24062338Y-17198165D01*
X24136562Y-17241018D01*
X24219347Y-17263200D01*
X24219349Y-17263200D01*
X24305051Y-17263200D01*
X24305053Y-17263200D01*
X24387838Y-17241018D01*
X24462062Y-17198165D01*
X24522665Y-17137562D01*
X24565518Y-17063338D01*
X24587700Y-16980553D01*
X24587700Y-16894847D01*
X24565518Y-16812062D01*
X24522665Y-16737838D01*
X24462062Y-16677235D01*
X24387838Y-16634382D01*
X24305053Y-16612200D01*
X24219347Y-16612200D01*
X24136562Y-16634382D01*
X24062338Y-16677235D01*
X24001735Y-16737838D01*
X23958882Y-16812062D01*
X23936700Y-16894847D01*
X1954389Y-16894847D01*
X1980520Y-16868716D01*
X2059577Y-16731784D01*
X2100500Y-16579057D01*
X2100500Y-16420943D01*
X2059577Y-16268216D01*
X2045681Y-16244147D01*
X24830400Y-16244147D01*
X24830400Y-16329853D01*
X24852582Y-16412638D01*
X24895435Y-16486862D01*
X24956038Y-16547465D01*
X25030262Y-16590318D01*
X25113047Y-16612500D01*
X25113049Y-16612500D01*
X25198751Y-16612500D01*
X25198753Y-16612500D01*
X25281538Y-16590318D01*
X25336768Y-16558430D01*
X25396616Y-16545709D01*
X25452512Y-16570595D01*
X25472002Y-16594663D01*
X25486435Y-16619662D01*
X25547038Y-16680265D01*
X25621262Y-16723118D01*
X25704047Y-16745300D01*
X25704049Y-16745300D01*
X25789751Y-16745300D01*
X25789753Y-16745300D01*
X25872538Y-16723118D01*
X25946762Y-16680265D01*
X26007365Y-16619662D01*
X26050218Y-16545438D01*
X26072400Y-16462653D01*
X26072400Y-16376947D01*
X26050218Y-16294162D01*
X26007365Y-16219938D01*
X25946762Y-16159335D01*
X25872538Y-16116482D01*
X25789753Y-16094300D01*
X25704047Y-16094300D01*
X25662654Y-16105391D01*
X25621260Y-16116482D01*
X25566030Y-16148369D01*
X25506181Y-16161089D01*
X25450286Y-16136202D01*
X25430796Y-16112133D01*
X25416365Y-16087138D01*
X25355762Y-16026535D01*
X25281538Y-15983682D01*
X25198753Y-15961500D01*
X25113047Y-15961500D01*
X25030262Y-15983682D01*
X24956038Y-16026535D01*
X24895435Y-16087138D01*
X24852582Y-16161362D01*
X24830400Y-16244147D01*
X2045681Y-16244147D01*
X1980520Y-16131284D01*
X1868716Y-16019480D01*
X1731784Y-15940423D01*
X1579057Y-15899500D01*
X1420943Y-15899500D01*
X1268216Y-15940423D01*
X1131284Y-16019480D01*
X1019480Y-16131284D01*
X940423Y-16268216D01*
X899500Y-16420943D01*
X200500Y-16420943D01*
X200500Y-15608447D01*
X2503500Y-15608447D01*
X2503500Y-15694153D01*
X2525682Y-15776938D01*
X2568535Y-15851162D01*
X2629138Y-15911765D01*
X2703362Y-15954618D01*
X2786147Y-15976800D01*
X2786149Y-15976800D01*
X2871851Y-15976800D01*
X2871853Y-15976800D01*
X2954638Y-15954618D01*
X3028862Y-15911765D01*
X3089465Y-15851162D01*
X3132318Y-15776938D01*
X3154500Y-15694153D01*
X3154500Y-15608447D01*
X3132318Y-15525662D01*
X3089465Y-15451438D01*
X3028862Y-15390835D01*
X2954638Y-15347982D01*
X2871853Y-15325800D01*
X2786147Y-15325800D01*
X2703362Y-15347982D01*
X2629138Y-15390835D01*
X2568535Y-15451438D01*
X2525682Y-15525662D01*
X2503500Y-15608447D01*
X200500Y-15608447D01*
X200500Y-15208447D01*
X18408700Y-15208447D01*
X18408700Y-15294153D01*
X18430882Y-15376938D01*
X18473735Y-15451162D01*
X18534338Y-15511765D01*
X18608562Y-15554618D01*
X18691347Y-15576800D01*
X18691349Y-15576800D01*
X18777051Y-15576800D01*
X18777053Y-15576800D01*
X18859838Y-15554618D01*
X18934062Y-15511765D01*
X18994665Y-15451162D01*
X19037518Y-15376938D01*
X19059700Y-15294153D01*
X19059700Y-15208447D01*
X19037518Y-15125662D01*
X18994665Y-15051438D01*
X18934062Y-14990835D01*
X18859838Y-14947982D01*
X18777053Y-14925800D01*
X18691347Y-14925800D01*
X18608562Y-14947982D01*
X18534338Y-14990835D01*
X18473735Y-15051438D01*
X18430882Y-15125662D01*
X18408700Y-15208447D01*
X200500Y-15208447D01*
X200500Y-14857247D01*
X19726200Y-14857247D01*
X19726200Y-14942953D01*
X19748382Y-15025738D01*
X19791235Y-15099962D01*
X19851838Y-15160565D01*
X19926062Y-15203418D01*
X20008847Y-15225600D01*
X20008849Y-15225600D01*
X20094551Y-15225600D01*
X20094553Y-15225600D01*
X20177338Y-15203418D01*
X20251562Y-15160565D01*
X20312165Y-15099962D01*
X20355018Y-15025738D01*
X20377200Y-14942953D01*
X20377200Y-14900847D01*
X23517200Y-14900847D01*
X23517200Y-14986553D01*
X23539382Y-15069338D01*
X23582235Y-15143562D01*
X23642838Y-15204165D01*
X23717062Y-15247018D01*
X23799847Y-15269200D01*
X23799849Y-15269200D01*
X23885551Y-15269200D01*
X23885553Y-15269200D01*
X23968338Y-15247018D01*
X24042562Y-15204165D01*
X24103165Y-15143562D01*
X24146018Y-15069338D01*
X24168200Y-14986553D01*
X24168200Y-14900847D01*
X24146018Y-14818062D01*
X24146017Y-14818060D01*
X24146016Y-14818056D01*
X24144033Y-14813269D01*
X24139233Y-14752272D01*
X24171202Y-14700103D01*
X24185988Y-14689653D01*
X24259062Y-14647465D01*
X24319665Y-14586862D01*
X24362518Y-14512638D01*
X24384700Y-14429853D01*
X24384700Y-14344147D01*
X24362518Y-14261362D01*
X24319665Y-14187138D01*
X24259062Y-14126535D01*
X24184838Y-14083682D01*
X24102053Y-14061500D01*
X24016347Y-14061500D01*
X23933562Y-14083682D01*
X23859338Y-14126535D01*
X23798735Y-14187138D01*
X23755882Y-14261362D01*
X23733700Y-14344147D01*
X23733700Y-14429853D01*
X23747276Y-14480520D01*
X23755883Y-14512643D01*
X23757868Y-14517434D01*
X23762665Y-14578431D01*
X23730693Y-14630599D01*
X23715902Y-14641051D01*
X23642840Y-14683233D01*
X23642838Y-14683235D01*
X23582235Y-14743838D01*
X23539382Y-14818062D01*
X23517200Y-14900847D01*
X20377200Y-14900847D01*
X20377200Y-14857247D01*
X20355018Y-14774462D01*
X20312165Y-14700238D01*
X20251562Y-14639635D01*
X20177338Y-14596782D01*
X20094553Y-14574600D01*
X20008847Y-14574600D01*
X19926062Y-14596782D01*
X19851838Y-14639635D01*
X19791235Y-14700238D01*
X19748382Y-14774462D01*
X19726200Y-14857247D01*
X200500Y-14857247D01*
X200500Y-12664447D01*
X13879100Y-12664447D01*
X13879100Y-12750153D01*
X13901282Y-12832938D01*
X13944135Y-12907162D01*
X14004738Y-12967765D01*
X14078962Y-13010618D01*
X14161747Y-13032800D01*
X14161749Y-13032800D01*
X14247451Y-13032800D01*
X14247453Y-13032800D01*
X14330238Y-13010618D01*
X14404462Y-12967765D01*
X14404464Y-12967762D01*
X14410081Y-12964520D01*
X14411041Y-12966184D01*
X14460310Y-12948724D01*
X14518980Y-12966087D01*
X14527275Y-12972455D01*
X14540134Y-12983453D01*
X14545335Y-12992462D01*
X14605938Y-13053065D01*
X14653883Y-13080746D01*
X14660821Y-13086680D01*
X14672253Y-13105366D01*
X14686912Y-13121646D01*
X14687886Y-13130918D01*
X14692753Y-13138872D01*
X14691018Y-13160709D01*
X14693309Y-13182496D01*
X14688239Y-13195702D01*
X14687909Y-13199865D01*
X14685610Y-13202552D01*
X14682209Y-13211413D01*
X14651582Y-13264460D01*
X14639738Y-13308664D01*
X14629400Y-13347247D01*
X14629400Y-13432953D01*
X14651582Y-13515738D01*
X14694435Y-13589962D01*
X14755038Y-13650565D01*
X14829262Y-13693418D01*
X14912047Y-13715600D01*
X14912049Y-13715600D01*
X14997751Y-13715600D01*
X14997753Y-13715600D01*
X15080538Y-13693418D01*
X15154762Y-13650565D01*
X15215365Y-13589962D01*
X15258218Y-13515738D01*
X15280400Y-13432953D01*
X15280400Y-13417447D01*
X16643700Y-13417447D01*
X16643700Y-13503153D01*
X16665882Y-13585938D01*
X16708735Y-13660162D01*
X16769338Y-13720765D01*
X16843562Y-13763618D01*
X16926347Y-13785800D01*
X16926349Y-13785800D01*
X17012051Y-13785800D01*
X17012053Y-13785800D01*
X17094838Y-13763618D01*
X17169062Y-13720765D01*
X17229665Y-13660162D01*
X17272518Y-13585938D01*
X17288217Y-13527347D01*
X18470900Y-13527347D01*
X18470900Y-13613053D01*
X18493082Y-13695838D01*
X18535935Y-13770062D01*
X18596538Y-13830665D01*
X18670762Y-13873518D01*
X18753547Y-13895700D01*
X18753549Y-13895700D01*
X18839251Y-13895700D01*
X18839253Y-13895700D01*
X18922038Y-13873518D01*
X18996262Y-13830665D01*
X19056865Y-13770062D01*
X19099718Y-13695838D01*
X19121900Y-13613053D01*
X19121900Y-13527347D01*
X19099718Y-13444562D01*
X19056865Y-13370338D01*
X18996262Y-13309735D01*
X18922038Y-13266882D01*
X18839253Y-13244700D01*
X18753547Y-13244700D01*
X18670762Y-13266882D01*
X18596538Y-13309735D01*
X18535935Y-13370338D01*
X18493082Y-13444562D01*
X18470900Y-13527347D01*
X17288217Y-13527347D01*
X17294700Y-13503153D01*
X17294700Y-13417447D01*
X17272518Y-13334662D01*
X17229665Y-13260438D01*
X17169062Y-13199835D01*
X17094838Y-13156982D01*
X17012053Y-13134800D01*
X16926347Y-13134800D01*
X16843562Y-13156982D01*
X16769338Y-13199835D01*
X16708735Y-13260438D01*
X16665882Y-13334662D01*
X16643700Y-13417447D01*
X15280400Y-13417447D01*
X15280400Y-13347247D01*
X15258218Y-13264462D01*
X15215365Y-13190238D01*
X15154762Y-13129635D01*
X15114724Y-13106519D01*
X15105295Y-13096047D01*
X21065800Y-13096047D01*
X21065800Y-13181753D01*
X21087982Y-13264538D01*
X21130835Y-13338762D01*
X21191438Y-13399365D01*
X21265662Y-13442218D01*
X21348447Y-13464400D01*
X21348449Y-13464400D01*
X21434151Y-13464400D01*
X21434153Y-13464400D01*
X21516938Y-13442218D01*
X21568330Y-13412547D01*
X30450000Y-13412547D01*
X30450000Y-13498253D01*
X30472182Y-13581038D01*
X30515035Y-13655262D01*
X30575638Y-13715865D01*
X30649862Y-13758718D01*
X30732647Y-13780900D01*
X30732649Y-13780900D01*
X30818351Y-13780900D01*
X30818353Y-13780900D01*
X30901138Y-13758718D01*
X30975362Y-13715865D01*
X31035965Y-13655262D01*
X31078818Y-13581038D01*
X31101000Y-13498253D01*
X31101000Y-13412547D01*
X31078818Y-13329762D01*
X31035965Y-13255538D01*
X30975362Y-13194935D01*
X30901138Y-13152082D01*
X30818353Y-13129900D01*
X30732647Y-13129900D01*
X30649862Y-13152082D01*
X30575638Y-13194935D01*
X30515035Y-13255538D01*
X30472182Y-13329762D01*
X30450000Y-13412547D01*
X21568330Y-13412547D01*
X21591162Y-13399365D01*
X21651765Y-13338762D01*
X21694618Y-13264538D01*
X21716800Y-13181753D01*
X21716800Y-13096047D01*
X21694618Y-13013262D01*
X21690048Y-13005347D01*
X25941300Y-13005347D01*
X25941300Y-13091053D01*
X25963482Y-13173838D01*
X26006335Y-13248062D01*
X26066938Y-13308665D01*
X26141162Y-13351518D01*
X26223947Y-13373700D01*
X26223949Y-13373700D01*
X26309651Y-13373700D01*
X26309653Y-13373700D01*
X26392438Y-13351518D01*
X26466662Y-13308665D01*
X26527265Y-13248062D01*
X26570118Y-13173838D01*
X26592300Y-13091053D01*
X26592300Y-13005347D01*
X26570118Y-12922562D01*
X26527265Y-12848338D01*
X26466662Y-12787735D01*
X26392438Y-12744882D01*
X26309653Y-12722700D01*
X26223947Y-12722700D01*
X26141162Y-12744882D01*
X26066938Y-12787735D01*
X26006335Y-12848338D01*
X25963482Y-12922562D01*
X25941300Y-13005347D01*
X21690048Y-13005347D01*
X21651765Y-12939038D01*
X21591162Y-12878435D01*
X21516938Y-12835582D01*
X21434153Y-12813400D01*
X21348447Y-12813400D01*
X21265662Y-12835582D01*
X21191438Y-12878435D01*
X21130835Y-12939038D01*
X21087982Y-13013262D01*
X21065800Y-13096047D01*
X15105295Y-13096047D01*
X15073786Y-13061052D01*
X15067390Y-13000202D01*
X15078488Y-12971289D01*
X15109118Y-12918238D01*
X15131300Y-12835453D01*
X15131300Y-12749747D01*
X15109118Y-12666962D01*
X15066265Y-12592738D01*
X15005662Y-12532135D01*
X14931438Y-12489282D01*
X14848653Y-12467100D01*
X14762947Y-12467100D01*
X14680162Y-12489282D01*
X14605938Y-12532135D01*
X14605936Y-12532136D01*
X14600319Y-12535380D01*
X14599361Y-12533720D01*
X14550056Y-12551176D01*
X14491391Y-12533793D01*
X14468928Y-12512474D01*
X14465068Y-12507443D01*
X14465065Y-12507438D01*
X14404462Y-12446835D01*
X14330238Y-12403982D01*
X14247453Y-12381800D01*
X14161747Y-12381800D01*
X14078962Y-12403982D01*
X14004738Y-12446835D01*
X13944135Y-12507438D01*
X13901282Y-12581662D01*
X13879100Y-12664447D01*
X200500Y-12664447D01*
X200500Y-11697147D01*
X6896700Y-11697147D01*
X6896700Y-11782853D01*
X6918882Y-11865638D01*
X6961735Y-11939862D01*
X7022338Y-12000465D01*
X7096562Y-12043318D01*
X7179347Y-12065500D01*
X7179349Y-12065500D01*
X7265051Y-12065500D01*
X7265053Y-12065500D01*
X7347838Y-12043318D01*
X7422062Y-12000465D01*
X7482665Y-11939862D01*
X7525518Y-11865638D01*
X7536207Y-11825747D01*
X15381000Y-11825747D01*
X15381000Y-11911453D01*
X15403182Y-11994238D01*
X15446035Y-12068462D01*
X15506638Y-12129065D01*
X15580862Y-12171918D01*
X15663647Y-12194100D01*
X15663649Y-12194100D01*
X15749351Y-12194100D01*
X15749353Y-12194100D01*
X15832138Y-12171918D01*
X15906362Y-12129065D01*
X15966965Y-12068462D01*
X15986909Y-12033916D01*
X16032375Y-11992978D01*
X16093225Y-11986581D01*
X16122143Y-11997681D01*
X16126965Y-12000465D01*
X16138662Y-12007218D01*
X16221447Y-12029400D01*
X16221449Y-12029400D01*
X16307151Y-12029400D01*
X16307153Y-12029400D01*
X16389938Y-12007218D01*
X16464162Y-11964365D01*
X16524765Y-11903762D01*
X16567618Y-11829538D01*
X16587015Y-11757147D01*
X17074500Y-11757147D01*
X17074500Y-11842853D01*
X17096682Y-11925638D01*
X17139535Y-11999862D01*
X17200138Y-12060465D01*
X17274362Y-12103318D01*
X17357147Y-12125500D01*
X17357149Y-12125500D01*
X17442851Y-12125500D01*
X17442853Y-12125500D01*
X17525638Y-12103318D01*
X17599862Y-12060465D01*
X17629998Y-12030328D01*
X17684513Y-12002553D01*
X17744945Y-12012124D01*
X17770000Y-12030327D01*
X17800138Y-12060465D01*
X17874362Y-12103318D01*
X17957147Y-12125500D01*
X17957149Y-12125500D01*
X18042851Y-12125500D01*
X18042853Y-12125500D01*
X18125638Y-12103318D01*
X18142670Y-12093484D01*
X18202516Y-12080762D01*
X18258412Y-12105647D01*
X18277903Y-12129716D01*
X18289535Y-12149862D01*
X18350138Y-12210465D01*
X18424362Y-12253318D01*
X18507147Y-12275500D01*
X18507149Y-12275500D01*
X18592851Y-12275500D01*
X18592853Y-12275500D01*
X18675638Y-12253318D01*
X18749862Y-12210465D01*
X18810465Y-12149862D01*
X18853318Y-12075638D01*
X18875500Y-11992853D01*
X18875500Y-11907147D01*
X18853318Y-11824362D01*
X18814512Y-11757147D01*
X19074500Y-11757147D01*
X19074500Y-11842853D01*
X19096682Y-11925638D01*
X19139535Y-11999862D01*
X19200138Y-12060465D01*
X19274362Y-12103318D01*
X19357147Y-12125500D01*
X19357149Y-12125500D01*
X19442851Y-12125500D01*
X19442853Y-12125500D01*
X19525638Y-12103318D01*
X19599862Y-12060465D01*
X19660465Y-11999862D01*
X19703318Y-11925638D01*
X19725500Y-11842853D01*
X19725500Y-11757147D01*
X19703318Y-11674362D01*
X19660465Y-11600138D01*
X19599862Y-11539535D01*
X19525638Y-11496682D01*
X19442853Y-11474500D01*
X19357147Y-11474500D01*
X19274362Y-11496682D01*
X19200138Y-11539535D01*
X19139535Y-11600138D01*
X19096682Y-11674362D01*
X19074500Y-11757147D01*
X18814512Y-11757147D01*
X18810465Y-11750138D01*
X18749862Y-11689535D01*
X18675638Y-11646682D01*
X18592853Y-11624500D01*
X18507147Y-11624500D01*
X18451957Y-11639288D01*
X18424361Y-11646682D01*
X18407327Y-11656517D01*
X18347478Y-11669236D01*
X18291583Y-11644349D01*
X18272094Y-11620281D01*
X18260465Y-11600138D01*
X18199862Y-11539535D01*
X18125638Y-11496682D01*
X18042853Y-11474500D01*
X17957147Y-11474500D01*
X17874362Y-11496682D01*
X17800138Y-11539535D01*
X17770001Y-11569671D01*
X17715487Y-11597447D01*
X17655055Y-11587876D01*
X17629999Y-11569672D01*
X17599862Y-11539535D01*
X17525638Y-11496682D01*
X17442853Y-11474500D01*
X17357147Y-11474500D01*
X17274362Y-11496682D01*
X17200138Y-11539535D01*
X17139535Y-11600138D01*
X17096682Y-11674362D01*
X17074500Y-11757147D01*
X16587015Y-11757147D01*
X16589800Y-11746753D01*
X16589800Y-11661047D01*
X16567618Y-11578262D01*
X16524765Y-11504038D01*
X16464162Y-11443435D01*
X16389938Y-11400582D01*
X16307153Y-11378400D01*
X16221447Y-11378400D01*
X16138662Y-11400582D01*
X16064438Y-11443435D01*
X16003833Y-11504040D01*
X15983889Y-11538583D01*
X15938418Y-11579523D01*
X15877568Y-11585917D01*
X15848655Y-11574818D01*
X15832139Y-11565282D01*
X15804543Y-11557888D01*
X15749353Y-11543100D01*
X15663647Y-11543100D01*
X15580862Y-11565282D01*
X15506638Y-11608135D01*
X15446035Y-11668738D01*
X15403182Y-11742962D01*
X15381000Y-11825747D01*
X7536207Y-11825747D01*
X7547700Y-11782853D01*
X7547700Y-11697147D01*
X7525518Y-11614362D01*
X7482665Y-11540138D01*
X7422062Y-11479535D01*
X7347838Y-11436682D01*
X7265053Y-11414500D01*
X7179347Y-11414500D01*
X7096562Y-11436682D01*
X7022338Y-11479535D01*
X6961735Y-11540138D01*
X6918882Y-11614362D01*
X6896700Y-11697147D01*
X200500Y-11697147D01*
X200500Y-10977447D01*
X20134200Y-10977447D01*
X20134200Y-11063153D01*
X20156382Y-11145938D01*
X20199235Y-11220162D01*
X20259838Y-11280765D01*
X20334062Y-11323618D01*
X20416847Y-11345800D01*
X20416849Y-11345800D01*
X20502551Y-11345800D01*
X20502553Y-11345800D01*
X20585338Y-11323618D01*
X20659562Y-11280765D01*
X20720165Y-11220162D01*
X20763018Y-11145938D01*
X20785200Y-11063153D01*
X20785200Y-10977447D01*
X20770060Y-10920943D01*
X35999500Y-10920943D01*
X35999500Y-11079057D01*
X36040423Y-11231784D01*
X36119480Y-11368716D01*
X36231284Y-11480520D01*
X36368216Y-11559577D01*
X36520943Y-11600500D01*
X36520945Y-11600500D01*
X36679055Y-11600500D01*
X36679057Y-11600500D01*
X36831784Y-11559577D01*
X36968716Y-11480520D01*
X37080520Y-11368716D01*
X37159577Y-11231784D01*
X37200500Y-11079057D01*
X37200500Y-10920943D01*
X37159577Y-10768216D01*
X37080520Y-10631284D01*
X36968716Y-10519480D01*
X36831784Y-10440423D01*
X36679057Y-10399500D01*
X36520943Y-10399500D01*
X36368216Y-10440423D01*
X36231284Y-10519480D01*
X36119480Y-10631284D01*
X36040423Y-10768216D01*
X35999500Y-10920943D01*
X20770060Y-10920943D01*
X20763018Y-10894662D01*
X20720165Y-10820438D01*
X20659562Y-10759835D01*
X20585338Y-10716982D01*
X20502553Y-10694800D01*
X20416847Y-10694800D01*
X20334062Y-10716982D01*
X20259838Y-10759835D01*
X20199235Y-10820438D01*
X20156382Y-10894662D01*
X20134200Y-10977447D01*
X200500Y-10977447D01*
X200500Y-10511347D01*
X10427800Y-10511347D01*
X10427800Y-10597053D01*
X10449982Y-10679838D01*
X10492835Y-10754062D01*
X10553438Y-10814665D01*
X10627662Y-10857518D01*
X10710447Y-10879700D01*
X10710449Y-10879700D01*
X10796152Y-10879700D01*
X10796153Y-10879700D01*
X10878938Y-10857518D01*
X10953162Y-10814665D01*
X11013765Y-10754062D01*
X11056618Y-10679838D01*
X11078800Y-10597053D01*
X11078800Y-10511347D01*
X11056618Y-10428562D01*
X11040675Y-10400947D01*
X29546200Y-10400947D01*
X29546200Y-10486653D01*
X29568382Y-10569438D01*
X29611235Y-10643662D01*
X29671838Y-10704265D01*
X29746062Y-10747118D01*
X29828847Y-10769300D01*
X29828849Y-10769300D01*
X29914551Y-10769300D01*
X29914553Y-10769300D01*
X29997338Y-10747118D01*
X30071562Y-10704265D01*
X30132165Y-10643662D01*
X30175018Y-10569438D01*
X30197200Y-10486653D01*
X30197200Y-10400947D01*
X30175018Y-10318162D01*
X30132165Y-10243938D01*
X30071562Y-10183335D01*
X29997338Y-10140482D01*
X29914553Y-10118300D01*
X29828847Y-10118300D01*
X29746062Y-10140482D01*
X29671838Y-10183335D01*
X29611235Y-10243938D01*
X29568382Y-10318162D01*
X29546200Y-10400947D01*
X11040675Y-10400947D01*
X11013765Y-10354338D01*
X10953162Y-10293735D01*
X10878938Y-10250882D01*
X10796153Y-10228700D01*
X10710447Y-10228700D01*
X10627662Y-10250882D01*
X10553438Y-10293735D01*
X10492835Y-10354338D01*
X10449982Y-10428562D01*
X10427800Y-10511347D01*
X200500Y-10511347D01*
X200500Y-9685747D01*
X9602200Y-9685747D01*
X9602200Y-9771453D01*
X9624382Y-9854238D01*
X9667235Y-9928462D01*
X9727838Y-9989065D01*
X9802062Y-10031918D01*
X9884847Y-10054100D01*
X9884849Y-10054100D01*
X9970551Y-10054100D01*
X9970553Y-10054100D01*
X10053338Y-10031918D01*
X10127562Y-9989065D01*
X10188165Y-9928462D01*
X10231018Y-9854238D01*
X10253200Y-9771453D01*
X10253200Y-9702447D01*
X25410600Y-9702447D01*
X25410600Y-9788153D01*
X25432782Y-9870938D01*
X25475635Y-9945162D01*
X25536238Y-10005765D01*
X25610462Y-10048618D01*
X25693247Y-10070800D01*
X25693249Y-10070800D01*
X25778951Y-10070800D01*
X25778953Y-10070800D01*
X25861738Y-10048618D01*
X25935962Y-10005765D01*
X25996565Y-9945162D01*
X26039418Y-9870938D01*
X26061600Y-9788153D01*
X26061600Y-9702447D01*
X26039418Y-9619662D01*
X25996565Y-9545438D01*
X25935962Y-9484835D01*
X25861738Y-9441982D01*
X25778953Y-9419800D01*
X25693247Y-9419800D01*
X25610462Y-9441982D01*
X25536238Y-9484835D01*
X25475635Y-9545438D01*
X25432782Y-9619662D01*
X25410600Y-9702447D01*
X10253200Y-9702447D01*
X10253200Y-9685747D01*
X10231018Y-9602962D01*
X10188165Y-9528738D01*
X10127562Y-9468135D01*
X10053338Y-9425282D01*
X9970553Y-9403100D01*
X9884847Y-9403100D01*
X9802062Y-9425282D01*
X9727838Y-9468135D01*
X9667235Y-9528738D01*
X9624382Y-9602962D01*
X9602200Y-9685747D01*
X200500Y-9685747D01*
X200500Y-8919747D01*
X15019500Y-8919747D01*
X15019500Y-9005453D01*
X15041682Y-9088238D01*
X15084535Y-9162462D01*
X15145138Y-9223065D01*
X15219362Y-9265918D01*
X15302147Y-9288100D01*
X15302149Y-9288100D01*
X15387851Y-9288100D01*
X15387853Y-9288100D01*
X15470638Y-9265918D01*
X15544862Y-9223065D01*
X15605465Y-9162462D01*
X15648318Y-9088238D01*
X15670500Y-9005453D01*
X15670500Y-8919747D01*
X15648318Y-8836962D01*
X15605465Y-8762738D01*
X15544862Y-8702135D01*
X15470638Y-8659282D01*
X15387853Y-8637100D01*
X15302147Y-8637100D01*
X15219362Y-8659282D01*
X15145138Y-8702135D01*
X15084535Y-8762738D01*
X15041682Y-8836962D01*
X15019500Y-8919747D01*
X200500Y-8919747D01*
X200500Y-8242947D01*
X7091400Y-8242947D01*
X7091400Y-8328653D01*
X7113582Y-8411438D01*
X7156435Y-8485662D01*
X7217038Y-8546265D01*
X7291262Y-8589118D01*
X7374047Y-8611300D01*
X7374049Y-8611300D01*
X7459751Y-8611300D01*
X7459753Y-8611300D01*
X7542538Y-8589118D01*
X7546280Y-8586957D01*
X7606123Y-8574230D01*
X7662022Y-8599110D01*
X7681522Y-8623189D01*
X7724633Y-8697859D01*
X7724635Y-8697862D01*
X7785238Y-8758465D01*
X7859462Y-8801318D01*
X7942247Y-8823500D01*
X7942249Y-8823500D01*
X8027951Y-8823500D01*
X8027953Y-8823500D01*
X8110738Y-8801318D01*
X8184962Y-8758465D01*
X8245565Y-8697862D01*
X8288418Y-8623638D01*
X8310600Y-8540853D01*
X8310600Y-8455147D01*
X8288418Y-8372362D01*
X8245565Y-8298138D01*
X8184962Y-8237535D01*
X8110738Y-8194682D01*
X8027953Y-8172500D01*
X7942247Y-8172500D01*
X7900854Y-8183591D01*
X7859460Y-8194682D01*
X7855712Y-8196847D01*
X7845348Y-8199049D01*
X7836772Y-8205276D01*
X7816090Y-8205268D01*
X7795863Y-8209568D01*
X7786182Y-8205257D01*
X7775586Y-8205254D01*
X7762663Y-8194785D01*
X7739968Y-8184680D01*
X7726099Y-8169272D01*
X7720646Y-8161761D01*
X7720218Y-8160162D01*
X7689610Y-8107147D01*
X12924500Y-8107147D01*
X12924500Y-8192853D01*
X12946682Y-8275638D01*
X12989535Y-8349862D01*
X13050138Y-8410465D01*
X13124362Y-8453318D01*
X13207147Y-8475500D01*
X13207149Y-8475500D01*
X13292851Y-8475500D01*
X13292853Y-8475500D01*
X13375638Y-8453318D01*
X13449862Y-8410465D01*
X13510465Y-8349862D01*
X13553318Y-8275638D01*
X13561133Y-8246471D01*
X13594455Y-8195158D01*
X13651576Y-8173231D01*
X13682381Y-8176468D01*
X13713847Y-8184900D01*
X13713848Y-8184900D01*
X13799551Y-8184900D01*
X13799553Y-8184900D01*
X13882338Y-8162718D01*
X13956562Y-8119865D01*
X14017165Y-8059262D01*
X14060018Y-7985038D01*
X14082200Y-7902253D01*
X14082200Y-7816547D01*
X14060018Y-7733762D01*
X14017165Y-7659538D01*
X13956562Y-7598935D01*
X13882338Y-7556082D01*
X13799553Y-7533900D01*
X13713847Y-7533900D01*
X13631062Y-7556082D01*
X13556838Y-7598935D01*
X13496235Y-7659538D01*
X13460656Y-7721164D01*
X13453381Y-7733764D01*
X13445566Y-7762929D01*
X13412241Y-7814243D01*
X13355119Y-7836168D01*
X13324318Y-7832931D01*
X13292853Y-7824500D01*
X13207147Y-7824500D01*
X13124362Y-7846682D01*
X13050138Y-7889535D01*
X12989535Y-7950138D01*
X12946682Y-8024362D01*
X12924500Y-8107147D01*
X7689610Y-8107147D01*
X7677365Y-8085938D01*
X7634425Y-8042998D01*
X7629839Y-8036681D01*
X7622688Y-8014646D01*
X7612172Y-7994006D01*
X7613424Y-7986098D01*
X7610953Y-7978483D01*
X7618119Y-7956453D01*
X7620169Y-7943511D01*
X7593791Y-7969890D01*
X7533359Y-7979461D01*
X7523230Y-7977308D01*
X7459753Y-7960300D01*
X7374047Y-7960300D01*
X7291262Y-7982482D01*
X7217038Y-8025335D01*
X7156435Y-8085938D01*
X7113582Y-8160162D01*
X7091400Y-8242947D01*
X200500Y-8242947D01*
X200500Y-7542547D01*
X3664200Y-7542547D01*
X3664200Y-7628253D01*
X3686382Y-7711038D01*
X3729235Y-7785262D01*
X3789838Y-7845865D01*
X3864062Y-7888718D01*
X3946847Y-7910900D01*
X3946849Y-7910900D01*
X4032551Y-7910900D01*
X4032553Y-7910900D01*
X4115338Y-7888718D01*
X4189562Y-7845865D01*
X4250165Y-7785262D01*
X4293018Y-7711038D01*
X4315200Y-7628253D01*
X4315200Y-7542547D01*
X4312896Y-7533947D01*
X4662800Y-7533947D01*
X4662800Y-7619653D01*
X4684982Y-7702438D01*
X4727835Y-7776662D01*
X4788438Y-7837265D01*
X4862662Y-7880118D01*
X4945447Y-7902300D01*
X4945449Y-7902300D01*
X5031151Y-7902300D01*
X5031153Y-7902300D01*
X5113938Y-7880118D01*
X5188162Y-7837265D01*
X5248765Y-7776662D01*
X5291618Y-7702438D01*
X5313800Y-7619653D01*
X5313800Y-7536447D01*
X6582700Y-7536447D01*
X6582700Y-7622153D01*
X6604882Y-7704938D01*
X6647735Y-7779162D01*
X6708338Y-7839765D01*
X6782562Y-7882618D01*
X6865347Y-7904800D01*
X6865349Y-7904800D01*
X6951051Y-7904800D01*
X6951053Y-7904800D01*
X7033838Y-7882618D01*
X7108062Y-7839765D01*
X7168665Y-7779162D01*
X7211518Y-7704938D01*
X7233700Y-7622153D01*
X7233700Y-7536447D01*
X7232387Y-7531547D01*
X7516400Y-7531547D01*
X7516400Y-7617253D01*
X7538582Y-7700038D01*
X7581435Y-7774262D01*
X7618851Y-7811678D01*
X7646627Y-7866193D01*
X7639120Y-7913591D01*
X7648628Y-7906688D01*
X7665008Y-7890309D01*
X7672914Y-7889056D01*
X7679394Y-7884353D01*
X7702562Y-7884361D01*
X7725440Y-7880738D01*
X7735569Y-7882891D01*
X7799047Y-7899900D01*
X7799048Y-7899900D01*
X7884751Y-7899900D01*
X7884753Y-7899900D01*
X7967538Y-7877718D01*
X8041762Y-7834865D01*
X8102365Y-7774262D01*
X8145218Y-7700038D01*
X8167400Y-7617253D01*
X8167400Y-7531547D01*
X8145218Y-7448762D01*
X8127369Y-7417847D01*
X26916900Y-7417847D01*
X26916900Y-7503553D01*
X26939082Y-7586338D01*
X26981935Y-7660562D01*
X27042538Y-7721165D01*
X27116762Y-7764018D01*
X27199547Y-7786200D01*
X27199549Y-7786200D01*
X27285251Y-7786200D01*
X27285253Y-7786200D01*
X27368038Y-7764018D01*
X27442262Y-7721165D01*
X27502865Y-7660562D01*
X27545718Y-7586338D01*
X27567900Y-7503553D01*
X27567900Y-7417847D01*
X27545718Y-7335062D01*
X27502865Y-7260838D01*
X27442262Y-7200235D01*
X27368038Y-7157382D01*
X27285253Y-7135200D01*
X27199547Y-7135200D01*
X27116762Y-7157382D01*
X27042538Y-7200235D01*
X26981935Y-7260838D01*
X26939082Y-7335062D01*
X26916900Y-7417847D01*
X8127369Y-7417847D01*
X8102365Y-7374538D01*
X8041762Y-7313935D01*
X7967538Y-7271082D01*
X7884753Y-7248900D01*
X7799047Y-7248900D01*
X7716262Y-7271082D01*
X7642038Y-7313935D01*
X7581435Y-7374538D01*
X7538582Y-7448762D01*
X7516400Y-7531547D01*
X7232387Y-7531547D01*
X7211518Y-7453662D01*
X7168665Y-7379438D01*
X7108062Y-7318835D01*
X7033838Y-7275982D01*
X6951053Y-7253800D01*
X6865347Y-7253800D01*
X6782562Y-7275982D01*
X6708338Y-7318835D01*
X6647735Y-7379438D01*
X6604882Y-7453662D01*
X6582700Y-7536447D01*
X5313800Y-7536447D01*
X5313800Y-7533947D01*
X5291618Y-7451162D01*
X5248765Y-7376938D01*
X5188162Y-7316335D01*
X5113938Y-7273482D01*
X5031153Y-7251300D01*
X4945447Y-7251300D01*
X4862662Y-7273482D01*
X4788438Y-7316335D01*
X4727835Y-7376938D01*
X4684982Y-7451162D01*
X4662800Y-7533947D01*
X4312896Y-7533947D01*
X4293018Y-7459762D01*
X4250165Y-7385538D01*
X4189562Y-7324935D01*
X4115338Y-7282082D01*
X4032553Y-7259900D01*
X3946847Y-7259900D01*
X3864062Y-7282082D01*
X3789838Y-7324935D01*
X3729235Y-7385538D01*
X3686382Y-7459762D01*
X3664200Y-7542547D01*
X200500Y-7542547D01*
X200500Y-6557147D01*
X8924500Y-6557147D01*
X8924500Y-6642853D01*
X8946682Y-6725638D01*
X8989535Y-6799862D01*
X9050138Y-6860465D01*
X9124362Y-6903318D01*
X9207147Y-6925500D01*
X9207149Y-6925500D01*
X9292851Y-6925500D01*
X9292853Y-6925500D01*
X9375638Y-6903318D01*
X9449862Y-6860465D01*
X9510465Y-6799862D01*
X9553318Y-6725638D01*
X9575500Y-6642853D01*
X9575500Y-6557147D01*
X9924500Y-6557147D01*
X9924500Y-6642853D01*
X9946682Y-6725638D01*
X9989535Y-6799862D01*
X10050138Y-6860465D01*
X10124362Y-6903318D01*
X10207147Y-6925500D01*
X10207149Y-6925500D01*
X10292851Y-6925500D01*
X10292853Y-6925500D01*
X10375638Y-6903318D01*
X10449862Y-6860465D01*
X10505480Y-6804847D01*
X14883300Y-6804847D01*
X14883300Y-6890553D01*
X14905482Y-6973338D01*
X14948335Y-7047562D01*
X15008938Y-7108165D01*
X15083162Y-7151018D01*
X15165947Y-7173200D01*
X15165949Y-7173200D01*
X15251651Y-7173200D01*
X15251653Y-7173200D01*
X15334438Y-7151018D01*
X15408662Y-7108165D01*
X15469265Y-7047562D01*
X15512118Y-6973338D01*
X15534300Y-6890553D01*
X15534300Y-6804847D01*
X15512118Y-6722062D01*
X15469265Y-6647838D01*
X15408662Y-6587235D01*
X15334438Y-6544382D01*
X15251653Y-6522200D01*
X15165947Y-6522200D01*
X15083162Y-6544382D01*
X15008938Y-6587235D01*
X14948335Y-6647838D01*
X14905482Y-6722062D01*
X14883300Y-6804847D01*
X10505480Y-6804847D01*
X10510465Y-6799862D01*
X10553318Y-6725638D01*
X10564514Y-6683852D01*
X10566615Y-6678548D01*
X10582652Y-6659164D01*
X10596356Y-6638063D01*
X10601861Y-6635949D01*
X10605620Y-6631407D01*
X10629988Y-6625152D01*
X10653477Y-6616136D01*
X10661737Y-6617003D01*
X10664885Y-6616196D01*
X10668798Y-6617745D01*
X10684278Y-6619372D01*
X10707147Y-6625500D01*
X10707149Y-6625500D01*
X10792851Y-6625500D01*
X10792853Y-6625500D01*
X10875638Y-6603318D01*
X10949862Y-6560465D01*
X11010465Y-6499862D01*
X11053318Y-6425638D01*
X11056719Y-6412947D01*
X28398000Y-6412947D01*
X28398000Y-6498653D01*
X28420182Y-6581438D01*
X28463035Y-6655662D01*
X28523638Y-6716265D01*
X28597862Y-6759118D01*
X28680647Y-6781300D01*
X28680649Y-6781300D01*
X28766351Y-6781300D01*
X28766353Y-6781300D01*
X28849138Y-6759118D01*
X28923362Y-6716265D01*
X28983965Y-6655662D01*
X29026818Y-6581438D01*
X29049000Y-6498653D01*
X29049000Y-6412947D01*
X29026818Y-6330162D01*
X28983965Y-6255938D01*
X28923362Y-6195335D01*
X28849138Y-6152482D01*
X28766353Y-6130300D01*
X28680647Y-6130300D01*
X28597862Y-6152482D01*
X28523638Y-6195335D01*
X28463035Y-6255938D01*
X28420182Y-6330162D01*
X28398000Y-6412947D01*
X11056719Y-6412947D01*
X11075500Y-6342853D01*
X11075500Y-6257147D01*
X11053318Y-6174362D01*
X11010465Y-6100138D01*
X10949862Y-6039535D01*
X10938686Y-6033083D01*
X10913834Y-6018734D01*
X10872894Y-5973264D01*
X10866499Y-5912414D01*
X10888528Y-5871851D01*
X10886914Y-5870612D01*
X10890859Y-5865469D01*
X10890860Y-5865466D01*
X10890865Y-5865462D01*
X10933718Y-5791238D01*
X10955900Y-5708453D01*
X10955900Y-5622747D01*
X10933718Y-5539962D01*
X10890865Y-5465738D01*
X10830262Y-5405135D01*
X10756038Y-5362282D01*
X10673253Y-5340100D01*
X10587547Y-5340100D01*
X10504762Y-5362282D01*
X10430538Y-5405135D01*
X10369935Y-5465738D01*
X10327082Y-5539962D01*
X10304900Y-5622747D01*
X10304900Y-5708453D01*
X10327082Y-5791238D01*
X10369935Y-5865462D01*
X10430538Y-5926065D01*
X10430540Y-5926066D01*
X10466564Y-5946865D01*
X10507505Y-5992334D01*
X10513901Y-6053185D01*
X10505722Y-6076654D01*
X10498515Y-6091157D01*
X10489535Y-6100138D01*
X10446682Y-6174362D01*
X10434404Y-6220180D01*
X10429997Y-6229052D01*
X10415175Y-6244175D01*
X10403641Y-6261937D01*
X10394228Y-6265550D01*
X10387171Y-6272751D01*
X10366288Y-6276274D01*
X10346519Y-6283863D01*
X10330988Y-6282230D01*
X10326839Y-6282931D01*
X10323938Y-6281489D01*
X10315718Y-6280626D01*
X10292855Y-6274500D01*
X10292853Y-6274500D01*
X10207147Y-6274500D01*
X10124362Y-6296682D01*
X10050138Y-6339535D01*
X9989535Y-6400138D01*
X9946682Y-6474362D01*
X9924500Y-6557147D01*
X9575500Y-6557147D01*
X9553318Y-6474362D01*
X9510465Y-6400138D01*
X9449862Y-6339535D01*
X9375638Y-6296682D01*
X9292853Y-6274500D01*
X9207147Y-6274500D01*
X9124362Y-6296682D01*
X9050138Y-6339535D01*
X8989535Y-6400138D01*
X8946682Y-6474362D01*
X8924500Y-6557147D01*
X200500Y-6557147D01*
X200500Y-5049347D01*
X7640200Y-5049347D01*
X7640200Y-5135053D01*
X7662382Y-5217838D01*
X7705235Y-5292062D01*
X7765838Y-5352665D01*
X7840062Y-5395518D01*
X7922847Y-5417700D01*
X7922849Y-5417700D01*
X8008551Y-5417700D01*
X8008553Y-5417700D01*
X8091338Y-5395518D01*
X8165562Y-5352665D01*
X8226165Y-5292062D01*
X8269018Y-5217838D01*
X8291200Y-5135053D01*
X8291200Y-5049347D01*
X8290343Y-5046147D01*
X16984700Y-5046147D01*
X16984700Y-5131853D01*
X17006882Y-5214638D01*
X17049735Y-5288862D01*
X17110338Y-5349465D01*
X17184562Y-5392318D01*
X17267347Y-5414500D01*
X17267349Y-5414500D01*
X17353051Y-5414500D01*
X17353053Y-5414500D01*
X17435838Y-5392318D01*
X17510062Y-5349465D01*
X17570665Y-5288862D01*
X17613518Y-5214638D01*
X17635700Y-5131853D01*
X17635700Y-5053847D01*
X17854100Y-5053847D01*
X17854100Y-5139553D01*
X17876282Y-5222338D01*
X17919135Y-5296562D01*
X17979738Y-5357165D01*
X18053962Y-5400018D01*
X18136747Y-5422200D01*
X18136749Y-5422200D01*
X18222451Y-5422200D01*
X18222453Y-5422200D01*
X18305238Y-5400018D01*
X18379462Y-5357165D01*
X18440065Y-5296562D01*
X18445558Y-5287047D01*
X18850000Y-5287047D01*
X18850000Y-5372753D01*
X18872182Y-5455538D01*
X18915035Y-5529762D01*
X18975638Y-5590365D01*
X19049862Y-5633218D01*
X19132647Y-5655400D01*
X19132649Y-5655400D01*
X19218351Y-5655400D01*
X19218353Y-5655400D01*
X19301138Y-5633218D01*
X19375362Y-5590365D01*
X19435965Y-5529762D01*
X19478818Y-5455538D01*
X19501000Y-5372753D01*
X19501000Y-5287047D01*
X19478818Y-5204262D01*
X19435965Y-5130038D01*
X19375362Y-5069435D01*
X19301138Y-5026582D01*
X19218353Y-5004400D01*
X19132647Y-5004400D01*
X19049862Y-5026582D01*
X18975638Y-5069435D01*
X18915035Y-5130038D01*
X18872182Y-5204262D01*
X18850000Y-5287047D01*
X18445558Y-5287047D01*
X18482918Y-5222338D01*
X18505100Y-5139553D01*
X18505100Y-5053847D01*
X18482918Y-4971062D01*
X18440065Y-4896838D01*
X18379462Y-4836235D01*
X18305238Y-4793382D01*
X18222453Y-4771200D01*
X18136747Y-4771200D01*
X18053962Y-4793382D01*
X17979738Y-4836235D01*
X17919135Y-4896838D01*
X17876282Y-4971062D01*
X17854100Y-5053847D01*
X17635700Y-5053847D01*
X17635700Y-5046147D01*
X17613518Y-4963362D01*
X17570665Y-4889138D01*
X17510062Y-4828535D01*
X17435838Y-4785682D01*
X17353053Y-4763500D01*
X17267347Y-4763500D01*
X17184562Y-4785682D01*
X17110338Y-4828535D01*
X17049735Y-4889138D01*
X17006882Y-4963362D01*
X16984700Y-5046147D01*
X8290343Y-5046147D01*
X8269018Y-4966562D01*
X8226165Y-4892338D01*
X8165562Y-4831735D01*
X8091338Y-4788882D01*
X8008553Y-4766700D01*
X7922847Y-4766700D01*
X7840062Y-4788882D01*
X7765838Y-4831735D01*
X7705235Y-4892338D01*
X7662382Y-4966562D01*
X7640200Y-5049347D01*
X200500Y-5049347D01*
X200500Y-2447273D01*
X9599500Y-2447273D01*
X9599500Y-2552727D01*
X9624855Y-2647353D01*
X9626794Y-2654589D01*
X9626794Y-2654590D01*
X9670412Y-2730138D01*
X9679520Y-2745913D01*
X9754087Y-2820480D01*
X9845413Y-2873207D01*
X9947273Y-2900500D01*
X9947275Y-2900500D01*
X10052725Y-2900500D01*
X10052727Y-2900500D01*
X10154587Y-2873207D01*
X10245913Y-2820480D01*
X10320480Y-2745913D01*
X10373207Y-2654587D01*
X10398110Y-2561647D01*
X14563600Y-2561647D01*
X14563600Y-2647353D01*
X14585782Y-2730138D01*
X14628635Y-2804362D01*
X14689238Y-2864965D01*
X14763462Y-2907818D01*
X14846247Y-2930000D01*
X14846249Y-2930000D01*
X14931951Y-2930000D01*
X14931953Y-2930000D01*
X15014738Y-2907818D01*
X15088962Y-2864965D01*
X15149565Y-2804362D01*
X15192418Y-2730138D01*
X15214600Y-2647353D01*
X15214600Y-2561647D01*
X15192418Y-2478862D01*
X15149565Y-2404638D01*
X15125374Y-2380447D01*
X19674000Y-2380447D01*
X19674000Y-2466153D01*
X19696182Y-2548938D01*
X19739035Y-2623162D01*
X19799638Y-2683765D01*
X19873862Y-2726618D01*
X19956647Y-2748800D01*
X19956649Y-2748800D01*
X20042351Y-2748800D01*
X20042353Y-2748800D01*
X20125138Y-2726618D01*
X20199362Y-2683765D01*
X20259965Y-2623162D01*
X20302818Y-2548938D01*
X20325000Y-2466153D01*
X20325000Y-2380447D01*
X20302818Y-2297662D01*
X20259965Y-2223438D01*
X20199362Y-2162835D01*
X20125138Y-2119982D01*
X20042353Y-2097800D01*
X19956647Y-2097800D01*
X19873862Y-2119982D01*
X19799638Y-2162835D01*
X19739035Y-2223438D01*
X19696182Y-2297662D01*
X19674000Y-2380447D01*
X15125374Y-2380447D01*
X15088962Y-2344035D01*
X15014738Y-2301182D01*
X14931953Y-2279000D01*
X14846247Y-2279000D01*
X14763462Y-2301182D01*
X14689238Y-2344035D01*
X14628635Y-2404638D01*
X14585782Y-2478862D01*
X14563600Y-2561647D01*
X10398110Y-2561647D01*
X10400500Y-2552727D01*
X10400500Y-2447273D01*
X10373207Y-2345413D01*
X10372411Y-2344035D01*
X10338055Y-2284529D01*
X10320480Y-2254087D01*
X10245913Y-2179520D01*
X10154587Y-2126793D01*
X10052727Y-2099500D01*
X9947273Y-2099500D01*
X9845413Y-2126793D01*
X9845412Y-2126793D01*
X9845410Y-2126794D01*
X9845409Y-2126794D01*
X9754089Y-2179518D01*
X9679518Y-2254089D01*
X9626794Y-2345409D01*
X9626794Y-2345410D01*
X9626793Y-2345412D01*
X9626793Y-2345413D01*
X9599500Y-2447273D01*
X200500Y-2447273D01*
X200500Y-1420943D01*
X899500Y-1420943D01*
X899500Y-1579057D01*
X940423Y-1731784D01*
X1019480Y-1868716D01*
X1131284Y-1980520D01*
X1268216Y-2059577D01*
X1420943Y-2100500D01*
X1420945Y-2100500D01*
X1579055Y-2100500D01*
X1579057Y-2100500D01*
X1731784Y-2059577D01*
X1868716Y-1980520D01*
X1980520Y-1868716D01*
X2059577Y-1731784D01*
X2077245Y-1665847D01*
X24687000Y-1665847D01*
X24687000Y-1751553D01*
X24709182Y-1834338D01*
X24752035Y-1908562D01*
X24812638Y-1969165D01*
X24886862Y-2012018D01*
X24969647Y-2034200D01*
X24969649Y-2034200D01*
X25055351Y-2034200D01*
X25055353Y-2034200D01*
X25138138Y-2012018D01*
X25212362Y-1969165D01*
X25272965Y-1908562D01*
X25315818Y-1834338D01*
X25338000Y-1751553D01*
X25338000Y-1665847D01*
X25315818Y-1583062D01*
X25272965Y-1508838D01*
X25212362Y-1448235D01*
X25165091Y-1420943D01*
X35899500Y-1420943D01*
X35899500Y-1579057D01*
X35940423Y-1731784D01*
X36019480Y-1868716D01*
X36131284Y-1980520D01*
X36268216Y-2059577D01*
X36420943Y-2100500D01*
X36420945Y-2100500D01*
X36579055Y-2100500D01*
X36579057Y-2100500D01*
X36731784Y-2059577D01*
X36868716Y-1980520D01*
X36980520Y-1868716D01*
X37059577Y-1731784D01*
X37100500Y-1579057D01*
X37100500Y-1420943D01*
X37059577Y-1268216D01*
X36980520Y-1131284D01*
X36868716Y-1019480D01*
X36731784Y-940423D01*
X36579057Y-899500D01*
X36420943Y-899500D01*
X36268216Y-940423D01*
X36131284Y-1019480D01*
X36019480Y-1131284D01*
X35940423Y-1268216D01*
X35899500Y-1420943D01*
X25165091Y-1420943D01*
X25138138Y-1405382D01*
X25055353Y-1383200D01*
X24969647Y-1383200D01*
X24886862Y-1405382D01*
X24812638Y-1448235D01*
X24752035Y-1508838D01*
X24709182Y-1583062D01*
X24687000Y-1665847D01*
X2077245Y-1665847D01*
X2100500Y-1579057D01*
X2100500Y-1420943D01*
X2059577Y-1268216D01*
X1980520Y-1131284D01*
X1868716Y-1019480D01*
X1731784Y-940423D01*
X1666563Y-922947D01*
X6994600Y-922947D01*
X6994600Y-1008653D01*
X7016782Y-1091438D01*
X7059635Y-1165662D01*
X7120238Y-1226265D01*
X7194462Y-1269118D01*
X7277247Y-1291300D01*
X7277249Y-1291300D01*
X7362951Y-1291300D01*
X7362953Y-1291300D01*
X7445738Y-1269118D01*
X7519962Y-1226265D01*
X7580565Y-1165662D01*
X7623418Y-1091438D01*
X7645600Y-1008653D01*
X7645600Y-922947D01*
X7623418Y-840162D01*
X7580565Y-765938D01*
X7519962Y-705335D01*
X7445738Y-662482D01*
X7362953Y-640300D01*
X7277247Y-640300D01*
X7194462Y-662482D01*
X7120238Y-705335D01*
X7059635Y-765938D01*
X7016782Y-840162D01*
X6994600Y-922947D01*
X1666563Y-922947D01*
X1579057Y-899500D01*
X1420943Y-899500D01*
X1268216Y-940423D01*
X1131284Y-1019480D01*
X1019480Y-1131284D01*
X940423Y-1268216D01*
X899500Y-1420943D01*
X200500Y-1420943D01*
X200500Y-299500D01*
X219407Y-241309D01*
X268907Y-205345D01*
X299500Y-200500D01*
X37700500Y-200500D01*
X37758691Y-219407D01*
G37*
G04 #@! TD.AperFunction*
G04 #@! TD*
M02*
