%TF.GenerationSoftware,KiCad,Pcbnew,10.0.3*%
%TF.CreationDate,2026-06-20T00:56:30+09:00*%
%TF.ProjectId,CameraIoT_38x18_routed,43616d65-7261-4496-9f54-5f3338783138,rev?*%
%TF.SameCoordinates,Original*%
%TF.FileFunction,Copper,L3,Inr*%
%TF.FilePolarity,Positive*%
%FSLAX46Y46*%
G04 Gerber Fmt 4.6, Leading zero omitted, Abs format (unit mm)*
G04 Created by KiCad (PCBNEW 10.0.3) date 2026-06-20 00:56:30*
%MOMM*%
%LPD*%
G01*
G04 APERTURE LIST*
%TA.AperFunction,WasherPad*%
%ADD10C,1.000000*%
%TD*%
%TA.AperFunction,ComponentPad*%
%ADD11O,1.200000X2.000000*%
%TD*%
%TA.AperFunction,ViaPad*%
%ADD12C,0.450000*%
%TD*%
%TA.AperFunction,ViaPad*%
%ADD13C,0.600000*%
%TD*%
%TA.AperFunction,Conductor*%
%ADD14C,0.150000*%
%TD*%
G04 APERTURE END LIST*
D10*
%TO.N,*%
%TO.C,MH4*%
X36600000Y-11000000D03*
%TD*%
%TO.N,*%
%TO.C,MH2*%
X36500000Y-1500000D03*
%TD*%
D11*
%TO.N,GND*%
%TO.C,J2*%
X20988300Y-15400000D03*
X29988300Y-15400000D03*
%TD*%
D10*
%TO.N,*%
%TO.C,MH3*%
X1500000Y-16500000D03*
%TD*%
%TO.N,*%
%TO.C,MH1*%
X1500000Y-1500000D03*
%TD*%
D12*
%TO.N,GND*%
X23431000Y-4473000D03*
X30575000Y-9994000D03*
X26500000Y-12200000D03*
X13625000Y-14448000D03*
X6250000Y-6619000D03*
X12750000Y-6619000D03*
%TO.N,3V3*%
X19999500Y-2423300D03*
X19175500Y-5329900D03*
X18734200Y-15251300D03*
X27242400Y-7460700D03*
D13*
%TO.N,GND*%
X17000000Y-2500000D03*
X17000000Y-17500000D03*
X33000000Y-10000000D03*
X25000000Y-2500000D03*
X2500000Y-17500000D03*
X2500000Y-4000000D03*
D12*
X34300000Y-13300000D03*
D13*
X2500000Y-10000000D03*
X10000000Y-17500000D03*
D12*
X27939230Y-8899999D03*
D13*
X33000000Y-4000000D03*
X33000000Y-17500000D03*
D12*
%TO.N,VBAT*%
X29871700Y-10443800D03*
X25736100Y-9745300D03*
%TO.N,CAM_SIOC*%
X10630400Y-5665600D03*
X10753300Y-10554200D03*
%TO.N,LNA_IN*%
X30775500Y-13455400D03*
X15208800Y-6847700D03*
%TO.N,WAKE_BUTTON*%
X14889100Y-2604500D03*
X15345000Y-8962600D03*
D13*
X10000000Y-2500000D03*
D12*
%TO.N,VCHG_5V*%
X7320100Y-965800D03*
X24262200Y-16937700D03*
X23842700Y-14943700D03*
%TO.N,USB_DP*%
X24059200Y-14387000D03*
X20051700Y-14900100D03*
X25746900Y-16419800D03*
%TO.N,USB_DN*%
X26266800Y-13048200D03*
X25155900Y-16287000D03*
X18796400Y-13570200D03*
%TO.N,CHIP_PU*%
X25012500Y-1708700D03*
%TO.N,GPIO0*%
X13756700Y-7859400D03*
X21391300Y-13138900D03*
%TO.N,CAM_SIOD*%
X9927700Y-9728600D03*
X7222200Y-11740000D03*
X7965700Y-5092200D03*
%TO.N,CAM_D9*%
X14805800Y-12792600D03*
X7841900Y-7574400D03*
%TO.N,CAM_D8*%
X14954900Y-13390100D03*
X6908200Y-7579300D03*
%TO.N,CAM_D7*%
X7416900Y-8285800D03*
X14204600Y-12707300D03*
%TO.N,CAM_D6*%
X4988300Y-7576800D03*
X15706500Y-11868600D03*
%TO.N,CAM_D5*%
X16969200Y-13460300D03*
X3989700Y-7585400D03*
%TO.N,CAM_XCLK*%
X16264300Y-11703900D03*
X7985100Y-8498000D03*
%TO.N,CAM_VSYNC*%
X10250000Y-6600000D03*
X17400000Y-11800000D03*
%TO.N,CAM_HREF*%
X18000000Y-11800000D03*
X9250000Y-6600000D03*
%TO.N,CAM_RESETB*%
X18550000Y-11950000D03*
X10750000Y-6300000D03*
%TO.N,CAM_PWDN*%
X13250000Y-8150000D03*
X19400000Y-11800000D03*
%TO.N,LED_STATUS*%
X2829000Y-15651300D03*
X20459700Y-11020300D03*
%TO.N,U0TXD*%
X18179600Y-5096700D03*
%TO.N,U0RXD*%
X17310200Y-5089000D03*
%TO.N,CHG_STAT*%
X28723500Y-6455800D03*
%TD*%
%TO.N,VBAT*%
D14*
X29173200Y-9745300D02*
X29871700Y-10443800D01*
%TO.N,3V3*%
X19175500Y-3247300D02*
X19175500Y-5329900D01*
X19999500Y-2423300D02*
X19175500Y-3247300D01*
X19999500Y-2423300D02*
X22205000Y-2423300D01*
X22205000Y-2423300D02*
X27242400Y-7460700D01*
%TO.N,VBAT*%
X25736100Y-9745300D02*
X29173200Y-9745300D01*
%TO.N,CAM_SIOC*%
X10549800Y-5665600D02*
X10630400Y-5665600D01*
X9834900Y-6380500D02*
X10549800Y-5665600D01*
X9834900Y-9067800D02*
X9834900Y-6380500D01*
X10753300Y-9986200D02*
X9834900Y-9067800D01*
X10753300Y-10554200D02*
X10753300Y-9986200D01*
%TO.N,LNA_IN*%
X15208800Y-6847700D02*
X22258100Y-6847700D01*
X28865800Y-13455400D02*
X30775500Y-13455400D01*
X22258100Y-6847700D02*
X28865800Y-13455400D01*
%TO.N,WAKE_BUTTON*%
X14800900Y-2692700D02*
X14800900Y-8418500D01*
X14889100Y-2604500D02*
X14800900Y-2692700D01*
X14800900Y-8418500D02*
X15345000Y-8962600D01*
%TO.N,VCHG_5V*%
X24262200Y-15363200D02*
X23842700Y-14943700D01*
X24262200Y-16937700D02*
X24262200Y-15363200D01*
%TO.N,USB_DP*%
X20659100Y-14221800D02*
X20051700Y-14829200D01*
X24059200Y-14387000D02*
X25746900Y-16074700D01*
X25746900Y-16074700D02*
X25746900Y-16419800D01*
X23894000Y-14221800D02*
X20659100Y-14221800D01*
X20051700Y-14829200D02*
X20051700Y-14900100D01*
X24059200Y-14387000D02*
X23894000Y-14221800D01*
%TO.N,USB_DN*%
X26148700Y-15894500D02*
X24784600Y-14530400D01*
X25155900Y-16287000D02*
X25155900Y-16458100D01*
X23824500Y-13570300D02*
X18796400Y-13570300D01*
X24784600Y-14530400D02*
X26266800Y-13048200D01*
X25519400Y-16821600D02*
X25939100Y-16821600D01*
X24784600Y-14530400D02*
X23824500Y-13570300D01*
X25939100Y-16821600D02*
X26148700Y-16612000D01*
X25155900Y-16458100D02*
X25519400Y-16821600D01*
X26148700Y-16612000D02*
X26148700Y-15894500D01*
X18796400Y-13570300D02*
X18796400Y-13570200D01*
%TO.N,GPIO0*%
X15340500Y-9578800D02*
X17831200Y-9578800D01*
X17831200Y-9578800D02*
X21391300Y-13138900D01*
X13756700Y-7995000D02*
X15340500Y-9578800D01*
X13756700Y-7859400D02*
X13756700Y-7995000D01*
%TO.N,CAM_SIOD*%
X9568700Y-9369600D02*
X9927700Y-9728600D01*
X9568700Y-7697800D02*
X9568700Y-9369600D01*
X7965700Y-6094800D02*
X9568700Y-7697800D01*
X7965700Y-5092200D02*
X7965700Y-6094800D01*
%TO.N,CAM_D9*%
X13579800Y-11485000D02*
X10759700Y-11485000D01*
X8386800Y-9112100D02*
X8386800Y-8119300D01*
X14805800Y-12711000D02*
X13579800Y-11485000D01*
X14805800Y-12792600D02*
X14805800Y-12711000D01*
X8386800Y-8119300D02*
X7841900Y-7574400D01*
X10759700Y-11485000D02*
X8386800Y-9112100D01*
%TO.N,CAM_D8*%
X11923400Y-13390100D02*
X6908200Y-8374900D01*
X14954900Y-13390100D02*
X11923400Y-13390100D01*
X6908200Y-8374900D02*
X6908200Y-7579300D01*
%TO.N,CAM_D7*%
X11626000Y-12707300D02*
X7416900Y-8498200D01*
X7416900Y-8498200D02*
X7416900Y-8285800D01*
X14204600Y-12707300D02*
X11626000Y-12707300D01*
%TO.N,CAM_D6*%
X10864000Y-11233300D02*
X8638500Y-9007800D01*
X15706500Y-11868600D02*
X15071200Y-11233300D01*
X8638500Y-7802900D02*
X7965200Y-7129600D01*
X8638500Y-9007800D02*
X8638500Y-7802900D01*
X5435500Y-7129600D02*
X4988300Y-7576800D01*
X7965200Y-7129600D02*
X5435500Y-7129600D01*
X15071200Y-11233300D02*
X10864000Y-11233300D01*
%TO.N,CAM_D5*%
X16969200Y-13460300D02*
X16574800Y-13854700D01*
X10259000Y-13854700D02*
X3989700Y-7585400D01*
X16574800Y-13854700D02*
X10259000Y-13854700D01*
%TO.N,CAM_VSYNC*%
X17400000Y-11800000D02*
X15550000Y-9950000D01*
X15550000Y-9950000D02*
X13650000Y-9950000D01*
X13650000Y-9950000D02*
X10300000Y-6600000D01*
X10300000Y-6600000D02*
X10250000Y-6600000D01*
%TD*%
M02*
