%TF.GenerationSoftware,KiCad,Pcbnew,10.0.3*%
%TF.CreationDate,2026-06-20T00:56:30+09:00*%
%TF.ProjectId,CameraIoT_38x18_routed,43616d65-7261-4496-9f54-5f3338783138,rev?*%
%TF.SameCoordinates,Original*%
%TF.FileFunction,Copper,L4,Bot*%
%TF.FilePolarity,Positive*%
%FSLAX46Y46*%
G04 Gerber Fmt 4.6, Leading zero omitted, Abs format (unit mm)*
G04 Created by KiCad (PCBNEW 10.0.3) date 2026-06-20 00:56:30*
%MOMM*%
%LPD*%
G01*
G04 APERTURE LIST*
G04 Aperture macros list*
%AMRoundRect*
0 Rectangle with rounded corners*
0 $1 Rounding radius*
0 $2 $3 $4 $5 $6 $7 $8 $9 X,Y pos of 4 corners*
0 Add a 4 corners polygon primitive as box body*
4,1,4,$2,$3,$4,$5,$6,$7,$8,$9,$2,$3,0*
0 Add four circle primitives for the rounded corners*
1,1,$1+$1,$2,$3*
1,1,$1+$1,$4,$5*
1,1,$1+$1,$6,$7*
1,1,$1+$1,$8,$9*
0 Add four rect primitives between the rounded corners*
20,1,$1+$1,$2,$3,$4,$5,0*
20,1,$1+$1,$4,$5,$6,$7,0*
20,1,$1+$1,$6,$7,$8,$9,0*
20,1,$1+$1,$8,$9,$2,$3,0*%
G04 Aperture macros list end*
%TA.AperFunction,WasherPad*%
%ADD10C,1.000000*%
%TD*%
%TA.AperFunction,ComponentPad*%
%ADD11O,1.200000X2.000000*%
%TD*%
%TA.AperFunction,SMDPad,CuDef*%
%ADD12RoundRect,0.280000X-0.720000X-0.420000X0.720000X-0.420000X0.720000X0.420000X-0.720000X0.420000X0*%
%TD*%
%TA.AperFunction,SMDPad,CuDef*%
%ADD13RoundRect,0.360000X-1.140000X-0.540000X1.140000X-0.540000X1.140000X0.540000X-1.140000X0.540000X0*%
%TD*%
%TA.AperFunction,ViaPad*%
%ADD14C,0.450000*%
%TD*%
%TA.AperFunction,ViaPad*%
%ADD15C,0.600000*%
%TD*%
%TA.AperFunction,Conductor*%
%ADD16C,0.150000*%
%TD*%
G04 APERTURE END LIST*
D10*
%TO.P,MH4,*%
%TO.N,*%
X36600000Y-11000000D03*
%TD*%
%TO.P,MH2,*%
%TO.N,*%
X36500000Y-1500000D03*
%TD*%
D11*
%TO.P,J2,S1*%
%TO.N,GND*%
X20988300Y-15400000D03*
%TO.P,J2,S2*%
X29988300Y-15400000D03*
%TD*%
D10*
%TO.P,MH3,*%
%TO.N,*%
X1500000Y-16500000D03*
%TD*%
%TO.P,MH1,*%
%TO.N,*%
X1500000Y-1500000D03*
%TD*%
D12*
%TO.P,TP5,1*%
%TO.N,3V3*%
X20000000Y-1000000D03*
%TD*%
%TO.P,TP2,1*%
%TO.N,GND*%
X9000000Y-1000000D03*
%TD*%
%TO.P,TP1,1*%
%TO.N,VCHG_5V*%
X5000000Y-1000000D03*
%TD*%
%TO.P,TP7,1*%
%TO.N,U0RXD*%
X26600000Y-1000000D03*
%TD*%
D13*
%TO.P,BAT+,1*%
%TO.N,VBAT*%
X26000000Y-14700000D03*
%TD*%
%TO.P,BAT-,1*%
%TO.N,GND*%
X31000000Y-14700000D03*
%TD*%
D12*
%TO.P,TP3,1*%
%TO.N,CHG_STAT*%
X13000000Y-1000000D03*
%TD*%
%TO.P,TP8,1*%
%TO.N,CHIP_PU*%
X29900000Y-1000000D03*
%TD*%
%TO.P,TP9,1*%
%TO.N,GPIO0*%
X33200000Y-1000000D03*
%TD*%
%TO.P,TP6,1*%
%TO.N,U0TXD*%
X23300000Y-1000000D03*
%TD*%
%TO.P,TP4,1*%
%TO.N,WAKE_BUTTON*%
X17000000Y-1000000D03*
%TD*%
D14*
%TO.N,GND*%
X23431000Y-4473000D03*
X30575000Y-9994000D03*
X26500000Y-12200000D03*
X13625000Y-14448000D03*
X6250000Y-6619000D03*
X12750000Y-6619000D03*
%TO.N,3V3*%
X19999500Y-2423300D03*
X19175500Y-5329900D03*
X18734200Y-15251300D03*
X27242400Y-7460700D03*
D15*
%TO.N,GND*%
X17000000Y-2500000D03*
X17000000Y-17500000D03*
X33000000Y-10000000D03*
X25000000Y-2500000D03*
X2500000Y-17500000D03*
X2500000Y-4000000D03*
D14*
X34300000Y-13300000D03*
D15*
X2500000Y-10000000D03*
X10000000Y-17500000D03*
D14*
X27939230Y-8899999D03*
D15*
X33000000Y-4000000D03*
X33000000Y-17500000D03*
D14*
%TO.N,VBAT*%
X29871700Y-10443800D03*
X25736100Y-9745300D03*
%TO.N,CAM_SIOC*%
X10630400Y-5665600D03*
X10753300Y-10554200D03*
%TO.N,LNA_IN*%
X30775500Y-13455400D03*
X15208800Y-6847700D03*
%TO.N,WAKE_BUTTON*%
X14889100Y-2604500D03*
X15345000Y-8962600D03*
D15*
X10000000Y-2500000D03*
D14*
%TO.N,VCHG_5V*%
X7320100Y-965800D03*
X24262200Y-16937700D03*
X23842700Y-14943700D03*
%TO.N,USB_DP*%
X24059200Y-14387000D03*
X20051700Y-14900100D03*
X25746900Y-16419800D03*
%TO.N,USB_DN*%
X26266800Y-13048200D03*
X25155900Y-16287000D03*
X18796400Y-13570200D03*
%TO.N,CHIP_PU*%
X25012500Y-1708700D03*
%TO.N,GPIO0*%
X13756700Y-7859400D03*
X21391300Y-13138900D03*
%TO.N,CAM_SIOD*%
X9927700Y-9728600D03*
X7222200Y-11740000D03*
X7965700Y-5092200D03*
%TO.N,CAM_D9*%
X14805800Y-12792600D03*
X7841900Y-7574400D03*
%TO.N,CAM_D8*%
X14954900Y-13390100D03*
X6908200Y-7579300D03*
%TO.N,CAM_D7*%
X7416900Y-8285800D03*
X14204600Y-12707300D03*
%TO.N,CAM_D6*%
X4988300Y-7576800D03*
X15706500Y-11868600D03*
%TO.N,CAM_D5*%
X16969200Y-13460300D03*
X3989700Y-7585400D03*
%TO.N,CAM_XCLK*%
X16264300Y-11703900D03*
X7985100Y-8498000D03*
%TO.N,CAM_VSYNC*%
X10250000Y-6600000D03*
X17400000Y-11800000D03*
%TO.N,CAM_HREF*%
X18000000Y-11800000D03*
X9250000Y-6600000D03*
%TO.N,CAM_RESETB*%
X18550000Y-11950000D03*
X10750000Y-6300000D03*
%TO.N,CAM_PWDN*%
X13250000Y-8150000D03*
X19400000Y-11800000D03*
%TO.N,LED_STATUS*%
X2829000Y-15651300D03*
X20459700Y-11020300D03*
%TO.N,U0TXD*%
X18179600Y-5096700D03*
%TO.N,U0RXD*%
X17310200Y-5089000D03*
%TO.N,CHG_STAT*%
X28723500Y-6455800D03*
%TD*%
%TO.N,3V3*%
D16*
X26453300Y-7460700D02*
X18734200Y-15179800D01*
X19999500Y-1000500D02*
X19999500Y-2423300D01*
X27242400Y-7460700D02*
X26453300Y-7460700D01*
X20000000Y-1000000D02*
X19999500Y-1000500D01*
X18734200Y-15179800D02*
X18734200Y-15251300D01*
%TO.N,VBAT*%
X25736100Y-14436100D02*
X25736100Y-9745300D01*
X26000000Y-14700000D02*
X25736100Y-14436100D01*
%TO.N,WAKE_BUTTON*%
X15395500Y-2604500D02*
X14889100Y-2604500D01*
X17000000Y-1000000D02*
X15395500Y-2604500D01*
%TO.N,VCHG_5V*%
X5000000Y-1000000D02*
X7285900Y-1000000D01*
X7285900Y-1000000D02*
X7320100Y-965800D01*
%TO.N,CHIP_PU*%
X29022200Y-1877800D02*
X25181600Y-1877800D01*
X25181600Y-1877800D02*
X25012500Y-1708700D01*
X29900000Y-1000000D02*
X29022200Y-1877800D01*
%TO.N,GPIO0*%
X33200000Y-2554500D02*
X33200000Y-1000000D01*
X21391300Y-13138900D02*
X25745700Y-8784500D01*
X26970000Y-8784500D02*
X33200000Y-2554500D01*
X25745700Y-8784500D02*
X26970000Y-8784500D01*
%TO.N,CAM_SIOD*%
X9233600Y-9728600D02*
X9927700Y-9728600D01*
X7222200Y-11740000D02*
X9233600Y-9728600D01*
%TO.N,CAM_XCLK*%
X16264300Y-11703900D02*
X16027300Y-11466900D01*
X9265200Y-8498000D02*
X7985100Y-8498000D01*
X12234100Y-11466900D02*
X9265200Y-8498000D01*
X16027300Y-11466900D02*
X12234100Y-11466900D01*
%TO.N,CAM_HREF*%
X18000000Y-11800000D02*
X17400000Y-11200000D01*
X17400000Y-11200000D02*
X13850000Y-11200000D01*
X13850000Y-11200000D02*
X9250000Y-6600000D01*
%TO.N,CAM_RESETB*%
X18400000Y-11650000D02*
X18400000Y-11600000D01*
X18450000Y-11700000D02*
X18400000Y-11650000D01*
X11350000Y-6850000D02*
X11300000Y-6850000D01*
X18400000Y-11600000D02*
X17000000Y-10200000D01*
X17000000Y-10200000D02*
X14700000Y-10200000D01*
X18550000Y-11950000D02*
X18450000Y-11850000D01*
X14700000Y-10200000D02*
X11350000Y-6850000D01*
X18450000Y-11850000D02*
X18450000Y-11700000D01*
X11300000Y-6850000D02*
X10750000Y-6300000D01*
%TO.N,CAM_PWDN*%
X17250000Y-10000000D02*
X17200000Y-9950000D01*
X17150000Y-9950000D02*
X17100000Y-9900000D01*
X17100000Y-9900000D02*
X15700000Y-9900000D01*
X17500000Y-10100000D02*
X17450000Y-10100000D01*
X13850000Y-8450000D02*
X13800000Y-8400000D01*
X13800000Y-8400000D02*
X13750000Y-8400000D01*
X13700000Y-8350000D02*
X13600000Y-8350000D01*
X13900000Y-8450000D02*
X13850000Y-8450000D01*
X14500000Y-8750000D02*
X14450000Y-8700000D01*
X17400000Y-10050000D02*
X17350000Y-10050000D01*
X17750000Y-10200000D02*
X17700000Y-10200000D01*
X13300000Y-8200000D02*
X13250000Y-8150000D01*
X17800000Y-10250000D02*
X17750000Y-10200000D01*
X14000000Y-8500000D02*
X13950000Y-8500000D01*
X14200000Y-8600000D02*
X14150000Y-8600000D01*
X14550000Y-8750000D02*
X14500000Y-8750000D01*
X17300000Y-10000000D02*
X17250000Y-10000000D01*
X13350000Y-8200000D02*
X13300000Y-8200000D01*
X13450000Y-8250000D02*
X13400000Y-8250000D01*
X17200000Y-9950000D02*
X17150000Y-9950000D01*
X13950000Y-8500000D02*
X13900000Y-8450000D01*
X17350000Y-10050000D02*
X17300000Y-10000000D01*
X19400000Y-11800000D02*
X17850000Y-10250000D01*
X14050000Y-8550000D02*
X14000000Y-8500000D01*
X14400000Y-8700000D02*
X14350000Y-8650000D01*
X14150000Y-8600000D02*
X14100000Y-8550000D01*
X17700000Y-10200000D02*
X17650000Y-10150000D01*
X14100000Y-8550000D02*
X14050000Y-8550000D01*
X15700000Y-9900000D02*
X14550000Y-8750000D01*
X14350000Y-8650000D02*
X14250000Y-8650000D01*
X13750000Y-8400000D02*
X13700000Y-8350000D01*
X14450000Y-8700000D02*
X14400000Y-8700000D01*
X13600000Y-8350000D02*
X13550000Y-8300000D01*
X13500000Y-8300000D02*
X13450000Y-8250000D01*
X14250000Y-8650000D02*
X14200000Y-8600000D01*
X17450000Y-10100000D02*
X17400000Y-10050000D01*
X17550000Y-10150000D02*
X17500000Y-10100000D01*
X13400000Y-8250000D02*
X13350000Y-8200000D01*
X13550000Y-8300000D02*
X13500000Y-8300000D01*
X17850000Y-10250000D02*
X17800000Y-10250000D01*
X17650000Y-10150000D02*
X17550000Y-10150000D01*
%TO.N,LED_STATUS*%
X2829000Y-15651300D02*
X16144900Y-15651300D01*
X20459700Y-11336500D02*
X20459700Y-11020300D01*
X16144900Y-15651300D02*
X20459700Y-11336500D01*
%TO.N,U0TXD*%
X23300000Y-1000000D02*
X22276300Y-1000000D01*
X22276300Y-1000000D02*
X18179600Y-5096700D01*
%TO.N,U0RXD*%
X19015900Y-4856900D02*
X18374300Y-5498500D01*
X25149400Y-1000000D02*
X21292500Y-4856900D01*
X17719700Y-5498500D02*
X17310200Y-5089000D01*
X18374300Y-5498500D02*
X17719700Y-5498500D01*
X26600000Y-1000000D02*
X25149400Y-1000000D01*
X21292500Y-4856900D02*
X19015900Y-4856900D01*
%TO.N,CHG_STAT*%
X18109000Y-6455800D02*
X28723500Y-6455800D01*
X13000000Y-1346800D02*
X18109000Y-6455800D01*
X13000000Y-1000000D02*
X13000000Y-1346800D01*
%TD*%
%TA.AperFunction,Conductor*%
%TO.N,GND*%
G36*
X3942824Y-219407D02*
G01*
X3978788Y-268907D01*
X3978788Y-330093D01*
X3969544Y-348420D01*
X3969652Y-348473D01*
X3966049Y-355842D01*
X3966049Y-355843D01*
X3910276Y-469928D01*
X3899500Y-543890D01*
X3899500Y-1456110D01*
X3910276Y-1530072D01*
X3966049Y-1644157D01*
X4055843Y-1733951D01*
X4169928Y-1789724D01*
X4243890Y-1800500D01*
X4243893Y-1800500D01*
X5756106Y-1800500D01*
X5756110Y-1800500D01*
X5830072Y-1789724D01*
X5944157Y-1733951D01*
X6033951Y-1644157D01*
X6089724Y-1530072D01*
X6100500Y-1456110D01*
X6100500Y-1274500D01*
X6119407Y-1216309D01*
X6168907Y-1180345D01*
X6199500Y-1175500D01*
X7028466Y-1175500D01*
X7086657Y-1194407D01*
X7098463Y-1204490D01*
X7120238Y-1226265D01*
X7194462Y-1269118D01*
X7277247Y-1291300D01*
X7277249Y-1291300D01*
X7362951Y-1291300D01*
X7362953Y-1291300D01*
X7445738Y-1269118D01*
X7519962Y-1226265D01*
X7580565Y-1165662D01*
X7623418Y-1091438D01*
X7645600Y-1008653D01*
X7645600Y-922947D01*
X7623418Y-840162D01*
X7580565Y-765938D01*
X7519962Y-705335D01*
X7445738Y-662482D01*
X7362953Y-640300D01*
X7277247Y-640300D01*
X7194462Y-662482D01*
X7120238Y-705335D01*
X7059634Y-765939D01*
X7054402Y-775002D01*
X7008931Y-815942D01*
X6968666Y-824500D01*
X6199500Y-824500D01*
X6141309Y-805593D01*
X6105345Y-756093D01*
X6100500Y-725500D01*
X6100500Y-543893D01*
X6100500Y-543890D01*
X6089724Y-469928D01*
X6033951Y-355843D01*
X6033950Y-355842D01*
X6030348Y-348473D01*
X6031860Y-347733D01*
X6016370Y-298682D01*
X6035758Y-240650D01*
X6085553Y-205096D01*
X6115367Y-200500D01*
X11884633Y-200500D01*
X11942824Y-219407D01*
X11978788Y-268907D01*
X11978788Y-330093D01*
X11969544Y-348420D01*
X11969652Y-348473D01*
X11966049Y-355842D01*
X11966049Y-355843D01*
X11910276Y-469928D01*
X11899500Y-543890D01*
X11899500Y-1456110D01*
X11910276Y-1530072D01*
X11966049Y-1644157D01*
X12055843Y-1733951D01*
X12169928Y-1789724D01*
X12243890Y-1800500D01*
X13164497Y-1800500D01*
X13222688Y-1819407D01*
X13234501Y-1829496D01*
X18009587Y-6604582D01*
X18009588Y-6604582D01*
X18009589Y-6604583D01*
X18074089Y-6631300D01*
X18074091Y-6631300D01*
X18143909Y-6631300D01*
X28397666Y-6631300D01*
X28399451Y-6631880D01*
X28401258Y-6631365D01*
X28411212Y-6635701D01*
X28455857Y-6650207D01*
X28458725Y-6652371D01*
X28463432Y-6656059D01*
X28523638Y-6716265D01*
X28586853Y-6752762D01*
X28592354Y-6757072D01*
X28605717Y-6776943D01*
X28621736Y-6794734D01*
X28622487Y-6801880D01*
X28626498Y-6807845D01*
X28625629Y-6831773D01*
X28628132Y-6855585D01*
X28624523Y-6862231D01*
X28624278Y-6868990D01*
X28613125Y-6883223D01*
X28601299Y-6905005D01*
X26926301Y-8580004D01*
X26871784Y-8607781D01*
X26856297Y-8609000D01*
X25792203Y-8609000D01*
X25734012Y-8590093D01*
X25698048Y-8540593D01*
X25698048Y-8479407D01*
X25722199Y-8439996D01*
X26496999Y-7665196D01*
X26551516Y-7637419D01*
X26567003Y-7636200D01*
X26916566Y-7636200D01*
X26974757Y-7655107D01*
X26986563Y-7665190D01*
X27042538Y-7721165D01*
X27116762Y-7764018D01*
X27199547Y-7786200D01*
X27199549Y-7786200D01*
X27285251Y-7786200D01*
X27285253Y-7786200D01*
X27368038Y-7764018D01*
X27442262Y-7721165D01*
X27502865Y-7660562D01*
X27545718Y-7586338D01*
X27567900Y-7503553D01*
X27567900Y-7417847D01*
X27545718Y-7335062D01*
X27502865Y-7260838D01*
X27442262Y-7200235D01*
X27368038Y-7157382D01*
X27285253Y-7135200D01*
X27199547Y-7135200D01*
X27116762Y-7157382D01*
X27042538Y-7200235D01*
X26986567Y-7256205D01*
X26932053Y-7283981D01*
X26916566Y-7285200D01*
X26418389Y-7285200D01*
X26353889Y-7311916D01*
X18769001Y-14896804D01*
X18714484Y-14924581D01*
X18698997Y-14925800D01*
X18691347Y-14925800D01*
X18608562Y-14947982D01*
X18534338Y-14990835D01*
X18473735Y-15051438D01*
X18430882Y-15125662D01*
X18408700Y-15208447D01*
X18408700Y-15294153D01*
X18430882Y-15376938D01*
X18473735Y-15451162D01*
X18534338Y-15511765D01*
X18608562Y-15554618D01*
X18691347Y-15576800D01*
X18691349Y-15576800D01*
X18777051Y-15576800D01*
X18777053Y-15576800D01*
X18859838Y-15554618D01*
X18934062Y-15511765D01*
X18994665Y-15451162D01*
X19037518Y-15376938D01*
X19059700Y-15294153D01*
X19059700Y-15208447D01*
X19052103Y-15180094D01*
X19055304Y-15118995D01*
X19077723Y-15084470D01*
X19304946Y-14857247D01*
X19726200Y-14857247D01*
X19726200Y-14942953D01*
X19748382Y-15025738D01*
X19791235Y-15099962D01*
X19851838Y-15160565D01*
X19926062Y-15203418D01*
X20008847Y-15225600D01*
X20008849Y-15225600D01*
X20094551Y-15225600D01*
X20094553Y-15225600D01*
X20177338Y-15203418D01*
X20251562Y-15160565D01*
X20312165Y-15099962D01*
X20355018Y-15025738D01*
X20377200Y-14942953D01*
X20377200Y-14857247D01*
X20355018Y-14774462D01*
X20312165Y-14700238D01*
X20251562Y-14639635D01*
X20177338Y-14596782D01*
X20094553Y-14574600D01*
X20008847Y-14574600D01*
X19926062Y-14596782D01*
X19851838Y-14639635D01*
X19791235Y-14700238D01*
X19748382Y-14774462D01*
X19726200Y-14857247D01*
X19304946Y-14857247D01*
X20927470Y-13234724D01*
X20981986Y-13206948D01*
X21042418Y-13216519D01*
X21085683Y-13259784D01*
X21087444Y-13263605D01*
X21087981Y-13264535D01*
X21087982Y-13264538D01*
X21130835Y-13338762D01*
X21191438Y-13399365D01*
X21265662Y-13442218D01*
X21348447Y-13464400D01*
X21348449Y-13464400D01*
X21434151Y-13464400D01*
X21434153Y-13464400D01*
X21516938Y-13442218D01*
X21591162Y-13399365D01*
X21651765Y-13338762D01*
X21694618Y-13264538D01*
X21716800Y-13181753D01*
X21716800Y-13102602D01*
X21735707Y-13044411D01*
X21745796Y-13032598D01*
X23753894Y-11024500D01*
X25275410Y-9502984D01*
X25329926Y-9475208D01*
X25390358Y-9484779D01*
X25433623Y-9528044D01*
X25443194Y-9588476D01*
X25434402Y-9613310D01*
X25435265Y-9613668D01*
X25432783Y-9619659D01*
X25432782Y-9619661D01*
X25432782Y-9619662D01*
X25410600Y-9702447D01*
X25410600Y-9788153D01*
X25432782Y-9870938D01*
X25475635Y-9945162D01*
X25531605Y-10001132D01*
X25559381Y-10055647D01*
X25560600Y-10071134D01*
X25560600Y-13600500D01*
X25541693Y-13658691D01*
X25492193Y-13694655D01*
X25461600Y-13699500D01*
X24804526Y-13699500D01*
X24773425Y-13702416D01*
X24773419Y-13702417D01*
X24642390Y-13748266D01*
X24530704Y-13830694D01*
X24530694Y-13830704D01*
X24448266Y-13942390D01*
X24402325Y-14073681D01*
X24365260Y-14122362D01*
X24306659Y-14139958D01*
X24259381Y-14126720D01*
X24259063Y-14126536D01*
X24259062Y-14126535D01*
X24184838Y-14083682D01*
X24102053Y-14061500D01*
X24016347Y-14061500D01*
X23933562Y-14083682D01*
X23859338Y-14126535D01*
X23798735Y-14187138D01*
X23755882Y-14261362D01*
X23733700Y-14344147D01*
X23733700Y-14429853D01*
X23747276Y-14480520D01*
X23755883Y-14512643D01*
X23757868Y-14517434D01*
X23762665Y-14578431D01*
X23730693Y-14630599D01*
X23715902Y-14641051D01*
X23642840Y-14683233D01*
X23642838Y-14683235D01*
X23582235Y-14743838D01*
X23539382Y-14818062D01*
X23517200Y-14900847D01*
X23517200Y-14986553D01*
X23539382Y-15069338D01*
X23582235Y-15143562D01*
X23642838Y-15204165D01*
X23717062Y-15247018D01*
X23799847Y-15269200D01*
X23799849Y-15269200D01*
X23885551Y-15269200D01*
X23885553Y-15269200D01*
X23968338Y-15247018D01*
X24042562Y-15204165D01*
X24103165Y-15143562D01*
X24146018Y-15069338D01*
X24168200Y-14986553D01*
X24168200Y-14900847D01*
X24146018Y-14818062D01*
X24146017Y-14818060D01*
X24146016Y-14818056D01*
X24144033Y-14813269D01*
X24139233Y-14752272D01*
X24171202Y-14700103D01*
X24185982Y-14689657D01*
X24251004Y-14652117D01*
X24310849Y-14639397D01*
X24366744Y-14664284D01*
X24397337Y-14717272D01*
X24399500Y-14737855D01*
X24399500Y-15295473D01*
X24402416Y-15326574D01*
X24402417Y-15326580D01*
X24448266Y-15457609D01*
X24530694Y-15569295D01*
X24530696Y-15569297D01*
X24530699Y-15569301D01*
X24530702Y-15569303D01*
X24530704Y-15569305D01*
X24642390Y-15651733D01*
X24642391Y-15651733D01*
X24642392Y-15651734D01*
X24773421Y-15697583D01*
X24804527Y-15700500D01*
X27195472Y-15700499D01*
X27195473Y-15700499D01*
X27200656Y-15700013D01*
X27226579Y-15697583D01*
X27357608Y-15651734D01*
X27469301Y-15569301D01*
X27551734Y-15457608D01*
X27597583Y-15326579D01*
X27600500Y-15295473D01*
X27600499Y-14104528D01*
X27597583Y-14073421D01*
X27551734Y-13942392D01*
X27469301Y-13830699D01*
X27469297Y-13830696D01*
X27469295Y-13830694D01*
X27357609Y-13748266D01*
X27226583Y-13702418D01*
X27226574Y-13702416D01*
X27195483Y-13699500D01*
X27195473Y-13699500D01*
X26010600Y-13699500D01*
X25952409Y-13680593D01*
X25916445Y-13631093D01*
X25911600Y-13600500D01*
X25911600Y-13412547D01*
X30450000Y-13412547D01*
X30450000Y-13498253D01*
X30472182Y-13581038D01*
X30515035Y-13655262D01*
X30575638Y-13715865D01*
X30649862Y-13758718D01*
X30732647Y-13780900D01*
X30732649Y-13780900D01*
X30818351Y-13780900D01*
X30818353Y-13780900D01*
X30901138Y-13758718D01*
X30975362Y-13715865D01*
X31035965Y-13655262D01*
X31078818Y-13581038D01*
X31101000Y-13498253D01*
X31101000Y-13412547D01*
X31078818Y-13329762D01*
X31035965Y-13255538D01*
X30975362Y-13194935D01*
X30901138Y-13152082D01*
X30818353Y-13129900D01*
X30732647Y-13129900D01*
X30649862Y-13152082D01*
X30575638Y-13194935D01*
X30515035Y-13255538D01*
X30472182Y-13329762D01*
X30450000Y-13412547D01*
X25911600Y-13412547D01*
X25911600Y-13390221D01*
X25930507Y-13332030D01*
X25980007Y-13296066D01*
X26041193Y-13296066D01*
X26060770Y-13306370D01*
X26061319Y-13305420D01*
X26066935Y-13308662D01*
X26066938Y-13308665D01*
X26141162Y-13351518D01*
X26223947Y-13373700D01*
X26223949Y-13373700D01*
X26309651Y-13373700D01*
X26309653Y-13373700D01*
X26392438Y-13351518D01*
X26466662Y-13308665D01*
X26527265Y-13248062D01*
X26570118Y-13173838D01*
X26592300Y-13091053D01*
X26592300Y-13005347D01*
X26570118Y-12922562D01*
X26527265Y-12848338D01*
X26466662Y-12787735D01*
X26392438Y-12744882D01*
X26309653Y-12722700D01*
X26223947Y-12722700D01*
X26141162Y-12744882D01*
X26066938Y-12787735D01*
X26066936Y-12787736D01*
X26061319Y-12790980D01*
X26059941Y-12788593D01*
X26013173Y-12805145D01*
X25954510Y-12787756D01*
X25917272Y-12739207D01*
X25911600Y-12706178D01*
X25911600Y-10920943D01*
X35999500Y-10920943D01*
X35999500Y-11079057D01*
X36040423Y-11231784D01*
X36119480Y-11368716D01*
X36231284Y-11480520D01*
X36368216Y-11559577D01*
X36520943Y-11600500D01*
X36520945Y-11600500D01*
X36679055Y-11600500D01*
X36679057Y-11600500D01*
X36831784Y-11559577D01*
X36968716Y-11480520D01*
X37080520Y-11368716D01*
X37159577Y-11231784D01*
X37200500Y-11079057D01*
X37200500Y-10920943D01*
X37159577Y-10768216D01*
X37080520Y-10631284D01*
X36968716Y-10519480D01*
X36831784Y-10440423D01*
X36679057Y-10399500D01*
X36520943Y-10399500D01*
X36368216Y-10440423D01*
X36231284Y-10519480D01*
X36119480Y-10631284D01*
X36040423Y-10768216D01*
X35999500Y-10920943D01*
X25911600Y-10920943D01*
X25911600Y-10400947D01*
X29546200Y-10400947D01*
X29546200Y-10486653D01*
X29568382Y-10569438D01*
X29611235Y-10643662D01*
X29671838Y-10704265D01*
X29746062Y-10747118D01*
X29828847Y-10769300D01*
X29828849Y-10769300D01*
X29914551Y-10769300D01*
X29914553Y-10769300D01*
X29997338Y-10747118D01*
X30071562Y-10704265D01*
X30132165Y-10643662D01*
X30175018Y-10569438D01*
X30197200Y-10486653D01*
X30197200Y-10400947D01*
X30175018Y-10318162D01*
X30132165Y-10243938D01*
X30071562Y-10183335D01*
X29997338Y-10140482D01*
X29914553Y-10118300D01*
X29828847Y-10118300D01*
X29746062Y-10140482D01*
X29671838Y-10183335D01*
X29611235Y-10243938D01*
X29568382Y-10318162D01*
X29546200Y-10400947D01*
X25911600Y-10400947D01*
X25911600Y-10071134D01*
X25930507Y-10012943D01*
X25940590Y-10001136D01*
X25996565Y-9945162D01*
X26039418Y-9870938D01*
X26061600Y-9788153D01*
X26061600Y-9702447D01*
X26039418Y-9619662D01*
X25996565Y-9545438D01*
X25935962Y-9484835D01*
X25861738Y-9441982D01*
X25778953Y-9419800D01*
X25693247Y-9419800D01*
X25610462Y-9441982D01*
X25610461Y-9441982D01*
X25610459Y-9441983D01*
X25604468Y-9444465D01*
X25603616Y-9442408D01*
X25553426Y-9453069D01*
X25497534Y-9428175D01*
X25466949Y-9375182D01*
X25473354Y-9314333D01*
X25493786Y-9284609D01*
X25789400Y-8988996D01*
X25843916Y-8961219D01*
X25859403Y-8960000D01*
X27004910Y-8960000D01*
X27045584Y-8943151D01*
X27069413Y-8933282D01*
X33299411Y-2703282D01*
X33299413Y-2703282D01*
X33348782Y-2653913D01*
X33375500Y-2589409D01*
X33375500Y-1899500D01*
X33394407Y-1841309D01*
X33443907Y-1805345D01*
X33474500Y-1800500D01*
X33956106Y-1800500D01*
X33956110Y-1800500D01*
X34030072Y-1789724D01*
X34144157Y-1733951D01*
X34233951Y-1644157D01*
X34289724Y-1530072D01*
X34300500Y-1456110D01*
X34300500Y-1420943D01*
X35899500Y-1420943D01*
X35899500Y-1579057D01*
X35940423Y-1731784D01*
X36019480Y-1868716D01*
X36131284Y-1980520D01*
X36268216Y-2059577D01*
X36420943Y-2100500D01*
X36420945Y-2100500D01*
X36579055Y-2100500D01*
X36579057Y-2100500D01*
X36731784Y-2059577D01*
X36868716Y-1980520D01*
X36980520Y-1868716D01*
X37059577Y-1731784D01*
X37100500Y-1579057D01*
X37100500Y-1420943D01*
X37059577Y-1268216D01*
X36980520Y-1131284D01*
X36868716Y-1019480D01*
X36731784Y-940423D01*
X36579057Y-899500D01*
X36420943Y-899500D01*
X36268216Y-940423D01*
X36131284Y-1019480D01*
X36019480Y-1131284D01*
X35940423Y-1268216D01*
X35899500Y-1420943D01*
X34300500Y-1420943D01*
X34300500Y-543890D01*
X34289724Y-469928D01*
X34233951Y-355843D01*
X34233950Y-355842D01*
X34230348Y-348473D01*
X34231860Y-347733D01*
X34216370Y-298682D01*
X34235758Y-240650D01*
X34285553Y-205096D01*
X34315367Y-200500D01*
X37700500Y-200500D01*
X37758691Y-219407D01*
X37794655Y-268907D01*
X37799500Y-299500D01*
X37799500Y-13401000D01*
X37780593Y-13459191D01*
X37731093Y-13495155D01*
X37700500Y-13500000D01*
X35000000Y-13500000D01*
X35000000Y-13500001D01*
X35000000Y-17700500D01*
X34981093Y-17758691D01*
X34931593Y-17794655D01*
X34901000Y-17799500D01*
X299500Y-17799500D01*
X241309Y-17780593D01*
X205345Y-17731093D01*
X200500Y-17700500D01*
X200500Y-16420943D01*
X899500Y-16420943D01*
X899500Y-16579057D01*
X940423Y-16731784D01*
X1019480Y-16868716D01*
X1131284Y-16980520D01*
X1268216Y-17059577D01*
X1420943Y-17100500D01*
X1420945Y-17100500D01*
X1579055Y-17100500D01*
X1579057Y-17100500D01*
X1731784Y-17059577D01*
X1868716Y-16980520D01*
X1954389Y-16894847D01*
X23936700Y-16894847D01*
X23936700Y-16980553D01*
X23958882Y-17063338D01*
X24001735Y-17137562D01*
X24062338Y-17198165D01*
X24136562Y-17241018D01*
X24219347Y-17263200D01*
X24219349Y-17263200D01*
X24305051Y-17263200D01*
X24305053Y-17263200D01*
X24387838Y-17241018D01*
X24462062Y-17198165D01*
X24522665Y-17137562D01*
X24565518Y-17063338D01*
X24587700Y-16980553D01*
X24587700Y-16894847D01*
X24565518Y-16812062D01*
X24522665Y-16737838D01*
X24462062Y-16677235D01*
X24387838Y-16634382D01*
X24305053Y-16612200D01*
X24219347Y-16612200D01*
X24136562Y-16634382D01*
X24062338Y-16677235D01*
X24001735Y-16737838D01*
X23958882Y-16812062D01*
X23936700Y-16894847D01*
X1954389Y-16894847D01*
X1980520Y-16868716D01*
X2059577Y-16731784D01*
X2100500Y-16579057D01*
X2100500Y-16420943D01*
X2059577Y-16268216D01*
X2045681Y-16244147D01*
X24830400Y-16244147D01*
X24830400Y-16329853D01*
X24852582Y-16412638D01*
X24895435Y-16486862D01*
X24956038Y-16547465D01*
X25030262Y-16590318D01*
X25113047Y-16612500D01*
X25113049Y-16612500D01*
X25198751Y-16612500D01*
X25198753Y-16612500D01*
X25281538Y-16590318D01*
X25336768Y-16558430D01*
X25396616Y-16545709D01*
X25452512Y-16570595D01*
X25472002Y-16594663D01*
X25486435Y-16619662D01*
X25547038Y-16680265D01*
X25621262Y-16723118D01*
X25704047Y-16745300D01*
X25704049Y-16745300D01*
X25789751Y-16745300D01*
X25789753Y-16745300D01*
X25872538Y-16723118D01*
X25946762Y-16680265D01*
X26007365Y-16619662D01*
X26050218Y-16545438D01*
X26072400Y-16462653D01*
X26072400Y-16376947D01*
X26050218Y-16294162D01*
X26007365Y-16219938D01*
X25946762Y-16159335D01*
X25872538Y-16116482D01*
X25789753Y-16094300D01*
X25704047Y-16094300D01*
X25662654Y-16105391D01*
X25621260Y-16116482D01*
X25566030Y-16148369D01*
X25506181Y-16161089D01*
X25450286Y-16136202D01*
X25430796Y-16112133D01*
X25416365Y-16087138D01*
X25355762Y-16026535D01*
X25281538Y-15983682D01*
X25198753Y-15961500D01*
X25113047Y-15961500D01*
X25030262Y-15983682D01*
X24956038Y-16026535D01*
X24895435Y-16087138D01*
X24852582Y-16161362D01*
X24830400Y-16244147D01*
X2045681Y-16244147D01*
X1980520Y-16131284D01*
X1868716Y-16019480D01*
X1731784Y-15940423D01*
X1579057Y-15899500D01*
X1420943Y-15899500D01*
X1268216Y-15940423D01*
X1131284Y-16019480D01*
X1019480Y-16131284D01*
X940423Y-16268216D01*
X899500Y-16420943D01*
X200500Y-16420943D01*
X200500Y-15608447D01*
X2503500Y-15608447D01*
X2503500Y-15694153D01*
X2525682Y-15776938D01*
X2568535Y-15851162D01*
X2629138Y-15911765D01*
X2703362Y-15954618D01*
X2786147Y-15976800D01*
X2786149Y-15976800D01*
X2871851Y-15976800D01*
X2871853Y-15976800D01*
X2954638Y-15954618D01*
X3028862Y-15911765D01*
X3084832Y-15855794D01*
X3139347Y-15828019D01*
X3154834Y-15826800D01*
X16179810Y-15826800D01*
X16220484Y-15809951D01*
X16244313Y-15800082D01*
X18348953Y-13695441D01*
X18403468Y-13667666D01*
X18463900Y-13677237D01*
X18504691Y-13715946D01*
X18523351Y-13748266D01*
X18535935Y-13770062D01*
X18596538Y-13830665D01*
X18670762Y-13873518D01*
X18753547Y-13895700D01*
X18753549Y-13895700D01*
X18839251Y-13895700D01*
X18839253Y-13895700D01*
X18922038Y-13873518D01*
X18996262Y-13830665D01*
X19056865Y-13770062D01*
X19099718Y-13695838D01*
X19121900Y-13613053D01*
X19121900Y-13527347D01*
X19099718Y-13444562D01*
X19056865Y-13370338D01*
X18996262Y-13309735D01*
X18977539Y-13298925D01*
X18942146Y-13278491D01*
X18901206Y-13233021D01*
X18894811Y-13172171D01*
X18921641Y-13122753D01*
X20608482Y-11435913D01*
X20635201Y-11371409D01*
X20635201Y-11346133D01*
X20654108Y-11287942D01*
X20664191Y-11276135D01*
X20720165Y-11220162D01*
X20763018Y-11145938D01*
X20785200Y-11063153D01*
X20785200Y-10977447D01*
X20763018Y-10894662D01*
X20720165Y-10820438D01*
X20659562Y-10759835D01*
X20585338Y-10716982D01*
X20502553Y-10694800D01*
X20416847Y-10694800D01*
X20334062Y-10716982D01*
X20259838Y-10759835D01*
X20199235Y-10820438D01*
X20156382Y-10894662D01*
X20134200Y-10977447D01*
X20134200Y-11063153D01*
X20156382Y-11145938D01*
X20199235Y-11220162D01*
X20199237Y-11220165D01*
X20202220Y-11224052D01*
X20222643Y-11281729D01*
X20205264Y-11340394D01*
X20193681Y-11354321D01*
X19856891Y-11691112D01*
X19802374Y-11718890D01*
X19741942Y-11709319D01*
X19701152Y-11670611D01*
X19660465Y-11600138D01*
X19599862Y-11539535D01*
X19525638Y-11496682D01*
X19442853Y-11474500D01*
X19363703Y-11474500D01*
X19305512Y-11455593D01*
X19293699Y-11445504D01*
X18662859Y-10814664D01*
X17949413Y-10101218D01*
X17949411Y-10101217D01*
X17949410Y-10101216D01*
X17882250Y-10073398D01*
X17875862Y-10070482D01*
X17861492Y-10063297D01*
X17849413Y-10051218D01*
X17784909Y-10024500D01*
X17783898Y-10024500D01*
X17775862Y-10020482D01*
X17771593Y-10016277D01*
X17750135Y-10001940D01*
X17749413Y-10001218D01*
X17749411Y-10001217D01*
X17749410Y-10001216D01*
X17684911Y-9974500D01*
X17684909Y-9974500D01*
X17663702Y-9974500D01*
X17621914Y-9965248D01*
X17606062Y-9957867D01*
X17599413Y-9951218D01*
X17534909Y-9924500D01*
X17534400Y-9924500D01*
X17528348Y-9921682D01*
X17524963Y-9918529D01*
X17500135Y-9901940D01*
X17499413Y-9901218D01*
X17499411Y-9901217D01*
X17499410Y-9901216D01*
X17432250Y-9873398D01*
X17400135Y-9851940D01*
X17399413Y-9851218D01*
X17399411Y-9851217D01*
X17399410Y-9851216D01*
X17332250Y-9823398D01*
X17300135Y-9801940D01*
X17299413Y-9801218D01*
X17299411Y-9801217D01*
X17299410Y-9801216D01*
X17232250Y-9773398D01*
X17200135Y-9751940D01*
X17199413Y-9751218D01*
X17199411Y-9751217D01*
X17199410Y-9751216D01*
X17134911Y-9724500D01*
X17134909Y-9724500D01*
X15813703Y-9724500D01*
X15755512Y-9705593D01*
X15743699Y-9695504D01*
X15462635Y-9414440D01*
X15434858Y-9359923D01*
X15444429Y-9299491D01*
X15483137Y-9258701D01*
X15544862Y-9223065D01*
X15605465Y-9162462D01*
X15648318Y-9088238D01*
X15670500Y-9005453D01*
X15670500Y-8919747D01*
X15648318Y-8836962D01*
X15605465Y-8762738D01*
X15544862Y-8702135D01*
X15470638Y-8659282D01*
X15387853Y-8637100D01*
X15302147Y-8637100D01*
X15219362Y-8659282D01*
X15145138Y-8702135D01*
X15084534Y-8762739D01*
X15048899Y-8824461D01*
X15003429Y-8865401D01*
X14942579Y-8871796D01*
X14893160Y-8844964D01*
X14649412Y-8601217D01*
X14582250Y-8573398D01*
X14575862Y-8570482D01*
X14561492Y-8563297D01*
X14549413Y-8551218D01*
X14484909Y-8524500D01*
X14483898Y-8524500D01*
X14475862Y-8520482D01*
X14471593Y-8516277D01*
X14450135Y-8501940D01*
X14449413Y-8501218D01*
X14449411Y-8501217D01*
X14449410Y-8501216D01*
X14384911Y-8474500D01*
X14384909Y-8474500D01*
X14363702Y-8474500D01*
X14321914Y-8465248D01*
X14306062Y-8457867D01*
X14299413Y-8451218D01*
X14234909Y-8424500D01*
X14234400Y-8424500D01*
X14228348Y-8421682D01*
X14224963Y-8418529D01*
X14200135Y-8401940D01*
X14199413Y-8401218D01*
X14199411Y-8401217D01*
X14199410Y-8401216D01*
X14132250Y-8373398D01*
X14100135Y-8351940D01*
X14099413Y-8351218D01*
X14099411Y-8351217D01*
X14099410Y-8351216D01*
X14032250Y-8323398D01*
X14021232Y-8318012D01*
X14009596Y-8311401D01*
X13999413Y-8301218D01*
X13970842Y-8289383D01*
X13965497Y-8286347D01*
X13948809Y-8268070D01*
X13929989Y-8251996D01*
X13928510Y-8245838D01*
X13924242Y-8241163D01*
X13921484Y-8216571D01*
X13915706Y-8192501D01*
X13918129Y-8186650D01*
X13917424Y-8180358D01*
X13929649Y-8158839D01*
X13939121Y-8135973D01*
X13946756Y-8128728D01*
X13947648Y-8127159D01*
X13949108Y-8126496D01*
X13954142Y-8121721D01*
X13956555Y-8119868D01*
X13956562Y-8119865D01*
X14017165Y-8059262D01*
X14060018Y-7985038D01*
X14082200Y-7902253D01*
X14082200Y-7816547D01*
X14060018Y-7733762D01*
X14017165Y-7659538D01*
X13956562Y-7598935D01*
X13882338Y-7556082D01*
X13799553Y-7533900D01*
X13713847Y-7533900D01*
X13631062Y-7556082D01*
X13556838Y-7598935D01*
X13496235Y-7659538D01*
X13460656Y-7721164D01*
X13453381Y-7733764D01*
X13445566Y-7762929D01*
X13412241Y-7814243D01*
X13355119Y-7836168D01*
X13324318Y-7832931D01*
X13292853Y-7824500D01*
X13207147Y-7824500D01*
X13150181Y-7839764D01*
X13124362Y-7846682D01*
X13050138Y-7889535D01*
X12989533Y-7950140D01*
X12947457Y-8023018D01*
X12901987Y-8063959D01*
X12841137Y-8070354D01*
X12791717Y-8043522D01*
X12207957Y-7459762D01*
X11553042Y-6804847D01*
X14883300Y-6804847D01*
X14883300Y-6890553D01*
X14905482Y-6973338D01*
X14948335Y-7047562D01*
X15008938Y-7108165D01*
X15083162Y-7151018D01*
X15165947Y-7173200D01*
X15165949Y-7173200D01*
X15251651Y-7173200D01*
X15251653Y-7173200D01*
X15334438Y-7151018D01*
X15408662Y-7108165D01*
X15469265Y-7047562D01*
X15512118Y-6973338D01*
X15534300Y-6890553D01*
X15534300Y-6804847D01*
X15512118Y-6722062D01*
X15469265Y-6647838D01*
X15408662Y-6587235D01*
X15334438Y-6544382D01*
X15251653Y-6522200D01*
X15165947Y-6522200D01*
X15083162Y-6544382D01*
X15008938Y-6587235D01*
X14948335Y-6647838D01*
X14905482Y-6722062D01*
X14883300Y-6804847D01*
X11553042Y-6804847D01*
X11449413Y-6701218D01*
X11449411Y-6701217D01*
X11449410Y-6701216D01*
X11382248Y-6673397D01*
X11350130Y-6651936D01*
X11104496Y-6406301D01*
X11076719Y-6351785D01*
X11075500Y-6336298D01*
X11075500Y-6257148D01*
X11075500Y-6257147D01*
X11053318Y-6174362D01*
X11010465Y-6100138D01*
X10949862Y-6039535D01*
X10938686Y-6033083D01*
X10913834Y-6018734D01*
X10872894Y-5973264D01*
X10866499Y-5912414D01*
X10888528Y-5871851D01*
X10886914Y-5870612D01*
X10890859Y-5865469D01*
X10890860Y-5865466D01*
X10890865Y-5865462D01*
X10933718Y-5791238D01*
X10955900Y-5708453D01*
X10955900Y-5622747D01*
X10933718Y-5539962D01*
X10890865Y-5465738D01*
X10830262Y-5405135D01*
X10756038Y-5362282D01*
X10673253Y-5340100D01*
X10587547Y-5340100D01*
X10504762Y-5362282D01*
X10430538Y-5405135D01*
X10369935Y-5465738D01*
X10327082Y-5539962D01*
X10304900Y-5622747D01*
X10304900Y-5708453D01*
X10327082Y-5791238D01*
X10369935Y-5865462D01*
X10430538Y-5926065D01*
X10430540Y-5926066D01*
X10466564Y-5946865D01*
X10507505Y-5992334D01*
X10513901Y-6053185D01*
X10505722Y-6076654D01*
X10498515Y-6091157D01*
X10489535Y-6100138D01*
X10446682Y-6174362D01*
X10434404Y-6220180D01*
X10429997Y-6229052D01*
X10415175Y-6244175D01*
X10403641Y-6261937D01*
X10394228Y-6265550D01*
X10387171Y-6272751D01*
X10366288Y-6276274D01*
X10346519Y-6283863D01*
X10330988Y-6282230D01*
X10326839Y-6282931D01*
X10323938Y-6281489D01*
X10315718Y-6280626D01*
X10292855Y-6274500D01*
X10292853Y-6274500D01*
X10207147Y-6274500D01*
X10124362Y-6296682D01*
X10050138Y-6339535D01*
X9989535Y-6400138D01*
X9946682Y-6474362D01*
X9924500Y-6557147D01*
X9924500Y-6642853D01*
X9946682Y-6725638D01*
X9989535Y-6799862D01*
X10050138Y-6860465D01*
X10124362Y-6903318D01*
X10207147Y-6925500D01*
X10207149Y-6925500D01*
X10292851Y-6925500D01*
X10292853Y-6925500D01*
X10375638Y-6903318D01*
X10449862Y-6860465D01*
X10510465Y-6799862D01*
X10553318Y-6725638D01*
X10563034Y-6689376D01*
X10596356Y-6638063D01*
X10653477Y-6616136D01*
X10666008Y-6616273D01*
X10675289Y-6616963D01*
X10707147Y-6625500D01*
X10789978Y-6625500D01*
X10793646Y-6625773D01*
X10818720Y-6636034D01*
X10844489Y-6644407D01*
X10849373Y-6648578D01*
X10850273Y-6648947D01*
X10850798Y-6649795D01*
X10856301Y-6654496D01*
X11145571Y-6943765D01*
X11145574Y-6943769D01*
X11145575Y-6943769D01*
X11151217Y-6949411D01*
X11151218Y-6949413D01*
X11200587Y-6998782D01*
X11200588Y-6998782D01*
X11200589Y-6998783D01*
X11267746Y-7026600D01*
X11299865Y-7048060D01*
X12926525Y-8674719D01*
X14551217Y-10299411D01*
X14551218Y-10299413D01*
X14600587Y-10348782D01*
X14600588Y-10348782D01*
X14600589Y-10348783D01*
X14665089Y-10375500D01*
X14665091Y-10375500D01*
X14734909Y-10375500D01*
X16886297Y-10375500D01*
X16944488Y-10394407D01*
X16956301Y-10404496D01*
X17407301Y-10855496D01*
X17435078Y-10910013D01*
X17425507Y-10970445D01*
X17382242Y-11013710D01*
X17337297Y-11024500D01*
X13963702Y-11024500D01*
X13905511Y-11005593D01*
X13893698Y-10995504D01*
X9604496Y-6706301D01*
X9576719Y-6651784D01*
X9575500Y-6636297D01*
X9575500Y-6557148D01*
X9575500Y-6557147D01*
X9553318Y-6474362D01*
X9510465Y-6400138D01*
X9449862Y-6339535D01*
X9375638Y-6296682D01*
X9292853Y-6274500D01*
X9207147Y-6274500D01*
X9124362Y-6296682D01*
X9050138Y-6339535D01*
X8989535Y-6400138D01*
X8946682Y-6474362D01*
X8924500Y-6557147D01*
X8924500Y-6642853D01*
X8946682Y-6725638D01*
X8989535Y-6799862D01*
X9050138Y-6860465D01*
X9124362Y-6903318D01*
X9207147Y-6925500D01*
X9207149Y-6925500D01*
X9286297Y-6925500D01*
X9344488Y-6944407D01*
X9356301Y-6954496D01*
X11490043Y-9088238D01*
X13524202Y-11122396D01*
X13551979Y-11176913D01*
X13542408Y-11237345D01*
X13499143Y-11280610D01*
X13454198Y-11291400D01*
X12347803Y-11291400D01*
X12289612Y-11272493D01*
X12277799Y-11262404D01*
X10838793Y-9823398D01*
X9364613Y-8349218D01*
X9364611Y-8349217D01*
X9364610Y-8349216D01*
X9300111Y-8322500D01*
X9300109Y-8322500D01*
X8310934Y-8322500D01*
X8252743Y-8303593D01*
X8240936Y-8293509D01*
X8184962Y-8237535D01*
X8110738Y-8194682D01*
X8027953Y-8172500D01*
X7942247Y-8172500D01*
X7900854Y-8183591D01*
X7859460Y-8194682D01*
X7855712Y-8196847D01*
X7845348Y-8199049D01*
X7836772Y-8205276D01*
X7816090Y-8205268D01*
X7795863Y-8209568D01*
X7786182Y-8205257D01*
X7775586Y-8205254D01*
X7762663Y-8194785D01*
X7739968Y-8184680D01*
X7726099Y-8169272D01*
X7720646Y-8161761D01*
X7720218Y-8160162D01*
X7677365Y-8085938D01*
X7634425Y-8042998D01*
X7629839Y-8036681D01*
X7622688Y-8014646D01*
X7612172Y-7994006D01*
X7613424Y-7986098D01*
X7610953Y-7978483D01*
X7618119Y-7956453D01*
X7620169Y-7943511D01*
X7593791Y-7969890D01*
X7533359Y-7979461D01*
X7523230Y-7977308D01*
X7459753Y-7960300D01*
X7374047Y-7960300D01*
X7291262Y-7982482D01*
X7217038Y-8025335D01*
X7156435Y-8085938D01*
X7113582Y-8160162D01*
X7091400Y-8242947D01*
X7091400Y-8328653D01*
X7113582Y-8411438D01*
X7156435Y-8485662D01*
X7217038Y-8546265D01*
X7291262Y-8589118D01*
X7374047Y-8611300D01*
X7374049Y-8611300D01*
X7459751Y-8611300D01*
X7459753Y-8611300D01*
X7542538Y-8589118D01*
X7546280Y-8586957D01*
X7606123Y-8574230D01*
X7662022Y-8599110D01*
X7681522Y-8623189D01*
X7724633Y-8697859D01*
X7724635Y-8697862D01*
X7785238Y-8758465D01*
X7859462Y-8801318D01*
X7942247Y-8823500D01*
X7942249Y-8823500D01*
X8027951Y-8823500D01*
X8027953Y-8823500D01*
X8110738Y-8801318D01*
X8184962Y-8758465D01*
X8240932Y-8702494D01*
X8295447Y-8674719D01*
X8310934Y-8673500D01*
X9151497Y-8673500D01*
X9209688Y-8692407D01*
X9221501Y-8702496D01*
X9800998Y-9281993D01*
X9828775Y-9336510D01*
X9819204Y-9396942D01*
X9792398Y-9429654D01*
X9786738Y-9434128D01*
X9727838Y-9468135D01*
X9667790Y-9528182D01*
X9663270Y-9531757D01*
X9639725Y-9540482D01*
X9617353Y-9551881D01*
X9606703Y-9552719D01*
X9605897Y-9553018D01*
X9605241Y-9552834D01*
X9601866Y-9553100D01*
X9198689Y-9553100D01*
X9134189Y-9579816D01*
X7328500Y-11385504D01*
X7273983Y-11413281D01*
X7258496Y-11414500D01*
X7179347Y-11414500D01*
X7096562Y-11436682D01*
X7022338Y-11479535D01*
X6961735Y-11540138D01*
X6918882Y-11614362D01*
X6896700Y-11697147D01*
X6896700Y-11782853D01*
X6918882Y-11865638D01*
X6961735Y-11939862D01*
X7022338Y-12000465D01*
X7096562Y-12043318D01*
X7179347Y-12065500D01*
X7179349Y-12065500D01*
X7265051Y-12065500D01*
X7265053Y-12065500D01*
X7347838Y-12043318D01*
X7422062Y-12000465D01*
X7482665Y-11939862D01*
X7525518Y-11865638D01*
X7547700Y-11782853D01*
X7547700Y-11703702D01*
X7566607Y-11645511D01*
X7576696Y-11633698D01*
X9277299Y-9933096D01*
X9331816Y-9905319D01*
X9347303Y-9904100D01*
X9601866Y-9904100D01*
X9660057Y-9923007D01*
X9671863Y-9933090D01*
X9727838Y-9989065D01*
X9802062Y-10031918D01*
X9884847Y-10054100D01*
X9884849Y-10054100D01*
X9970551Y-10054100D01*
X9970553Y-10054100D01*
X10053338Y-10031918D01*
X10127562Y-9989065D01*
X10188165Y-9928462D01*
X10218566Y-9875804D01*
X10264034Y-9834864D01*
X10324884Y-9828468D01*
X10374306Y-9855301D01*
X10626598Y-10107593D01*
X10654375Y-10162110D01*
X10644804Y-10222542D01*
X10606095Y-10263333D01*
X10553439Y-10293734D01*
X10553438Y-10293735D01*
X10492835Y-10354338D01*
X10449982Y-10428562D01*
X10427800Y-10511347D01*
X10427800Y-10597053D01*
X10449982Y-10679838D01*
X10492835Y-10754062D01*
X10553438Y-10814665D01*
X10627662Y-10857518D01*
X10710447Y-10879700D01*
X10710449Y-10879700D01*
X10796151Y-10879700D01*
X10796153Y-10879700D01*
X10878938Y-10857518D01*
X10953162Y-10814665D01*
X11013765Y-10754062D01*
X11044166Y-10701404D01*
X11089634Y-10660464D01*
X11150484Y-10654068D01*
X11199906Y-10680901D01*
X12134687Y-11615682D01*
X12199191Y-11642401D01*
X12199192Y-11642401D01*
X12280532Y-11642401D01*
X12280540Y-11642400D01*
X15301108Y-11642400D01*
X15359299Y-11661307D01*
X15395263Y-11710807D01*
X15396735Y-11767022D01*
X15381000Y-11825747D01*
X15381000Y-11911453D01*
X15403182Y-11994238D01*
X15446035Y-12068462D01*
X15506638Y-12129065D01*
X15580862Y-12171918D01*
X15663647Y-12194100D01*
X15663649Y-12194100D01*
X15749351Y-12194100D01*
X15749353Y-12194100D01*
X15832138Y-12171918D01*
X15906362Y-12129065D01*
X15966965Y-12068462D01*
X15986909Y-12033916D01*
X16032375Y-11992978D01*
X16093225Y-11986581D01*
X16122143Y-11997681D01*
X16126965Y-12000465D01*
X16138662Y-12007218D01*
X16221447Y-12029400D01*
X16221449Y-12029400D01*
X16307151Y-12029400D01*
X16307153Y-12029400D01*
X16389938Y-12007218D01*
X16464162Y-11964365D01*
X16524765Y-11903762D01*
X16567618Y-11829538D01*
X16589800Y-11746753D01*
X16589800Y-11661047D01*
X16567618Y-11578262D01*
X16536290Y-11524000D01*
X16523568Y-11464152D01*
X16548455Y-11408256D01*
X16601443Y-11377663D01*
X16622026Y-11375500D01*
X17125166Y-11375500D01*
X17183357Y-11394407D01*
X17219321Y-11443907D01*
X17219321Y-11505093D01*
X17195171Y-11544501D01*
X17139535Y-11600138D01*
X17096682Y-11674362D01*
X17074500Y-11757147D01*
X17074500Y-11842853D01*
X17096682Y-11925638D01*
X17139535Y-11999862D01*
X17200138Y-12060465D01*
X17274362Y-12103318D01*
X17357147Y-12125500D01*
X17357149Y-12125500D01*
X17442851Y-12125500D01*
X17442853Y-12125500D01*
X17525638Y-12103318D01*
X17599862Y-12060465D01*
X17629998Y-12030328D01*
X17684513Y-12002553D01*
X17744945Y-12012124D01*
X17770000Y-12030327D01*
X17800138Y-12060465D01*
X17874362Y-12103318D01*
X17957147Y-12125500D01*
X17957149Y-12125500D01*
X18042851Y-12125500D01*
X18042853Y-12125500D01*
X18125638Y-12103318D01*
X18142670Y-12093484D01*
X18202516Y-12080762D01*
X18258412Y-12105647D01*
X18277903Y-12129716D01*
X18289535Y-12149862D01*
X18350138Y-12210465D01*
X18424362Y-12253318D01*
X18507147Y-12275500D01*
X18507149Y-12275500D01*
X18592851Y-12275500D01*
X18592853Y-12275500D01*
X18675638Y-12253318D01*
X18749862Y-12210465D01*
X18810465Y-12149862D01*
X18853318Y-12075638D01*
X18875500Y-11992853D01*
X18875500Y-11907147D01*
X18853318Y-11824362D01*
X18810465Y-11750138D01*
X18749862Y-11689535D01*
X18675638Y-11646682D01*
X18675637Y-11646681D01*
X18675636Y-11646681D01*
X18655524Y-11641292D01*
X18604900Y-11608807D01*
X18599471Y-11602251D01*
X18598782Y-11600587D01*
X18594776Y-11596581D01*
X18591814Y-11593004D01*
X18589389Y-11586887D01*
X18576601Y-11567748D01*
X18548782Y-11500587D01*
X18499413Y-11451217D01*
X18499413Y-11451218D01*
X17619580Y-10571385D01*
X17614193Y-10560813D01*
X17605172Y-10553108D01*
X17600631Y-10534195D01*
X17591803Y-10516868D01*
X17593658Y-10505150D01*
X17590889Y-10493613D01*
X17598331Y-10475644D01*
X17601374Y-10456436D01*
X17609763Y-10448046D01*
X17614304Y-10437085D01*
X17630886Y-10426923D01*
X17644639Y-10413171D01*
X17656357Y-10411315D01*
X17666474Y-10405116D01*
X17685862Y-10406642D01*
X17705071Y-10403600D01*
X17727465Y-10409915D01*
X17765091Y-10425501D01*
X17765092Y-10425501D01*
X17767748Y-10426601D01*
X17799866Y-10448061D01*
X19045504Y-11693699D01*
X19073281Y-11748216D01*
X19074500Y-11763703D01*
X19074500Y-11842853D01*
X19096682Y-11925638D01*
X19139535Y-11999862D01*
X19200138Y-12060465D01*
X19270611Y-12101152D01*
X19311550Y-12146620D01*
X19317946Y-12207470D01*
X19291113Y-12256891D01*
X16101201Y-15446804D01*
X16046684Y-15474581D01*
X16031197Y-15475800D01*
X3154834Y-15475800D01*
X3096643Y-15456893D01*
X3084836Y-15446809D01*
X3028862Y-15390835D01*
X2954638Y-15347982D01*
X2871853Y-15325800D01*
X2786147Y-15325800D01*
X2703362Y-15347982D01*
X2629138Y-15390835D01*
X2568535Y-15451438D01*
X2525682Y-15525662D01*
X2503500Y-15608447D01*
X200500Y-15608447D01*
X200500Y-12664447D01*
X13879100Y-12664447D01*
X13879100Y-12750153D01*
X13901282Y-12832938D01*
X13944135Y-12907162D01*
X14004738Y-12967765D01*
X14078962Y-13010618D01*
X14161747Y-13032800D01*
X14161749Y-13032800D01*
X14247451Y-13032800D01*
X14247453Y-13032800D01*
X14330238Y-13010618D01*
X14404462Y-12967765D01*
X14404464Y-12967762D01*
X14410081Y-12964520D01*
X14411041Y-12966184D01*
X14460310Y-12948724D01*
X14518980Y-12966087D01*
X14527275Y-12972455D01*
X14540134Y-12983453D01*
X14545335Y-12992462D01*
X14605938Y-13053065D01*
X14653883Y-13080746D01*
X14660821Y-13086680D01*
X14672253Y-13105366D01*
X14686912Y-13121646D01*
X14687886Y-13130918D01*
X14692753Y-13138872D01*
X14691018Y-13160709D01*
X14693309Y-13182496D01*
X14688239Y-13195702D01*
X14687909Y-13199865D01*
X14685610Y-13202552D01*
X14682209Y-13211413D01*
X14651582Y-13264460D01*
X14647823Y-13278491D01*
X14629400Y-13347247D01*
X14629400Y-13432953D01*
X14651582Y-13515738D01*
X14694435Y-13589962D01*
X14755038Y-13650565D01*
X14829262Y-13693418D01*
X14912047Y-13715600D01*
X14912049Y-13715600D01*
X14997751Y-13715600D01*
X14997753Y-13715600D01*
X15080538Y-13693418D01*
X15154762Y-13650565D01*
X15215365Y-13589962D01*
X15258218Y-13515738D01*
X15280400Y-13432953D01*
X15280400Y-13417447D01*
X16643700Y-13417447D01*
X16643700Y-13503153D01*
X16665882Y-13585938D01*
X16708735Y-13660162D01*
X16769338Y-13720765D01*
X16843562Y-13763618D01*
X16926347Y-13785800D01*
X16926349Y-13785800D01*
X17012051Y-13785800D01*
X17012053Y-13785800D01*
X17094838Y-13763618D01*
X17169062Y-13720765D01*
X17229665Y-13660162D01*
X17272518Y-13585938D01*
X17294700Y-13503153D01*
X17294700Y-13417447D01*
X17272518Y-13334662D01*
X17229665Y-13260438D01*
X17169062Y-13199835D01*
X17094838Y-13156982D01*
X17012053Y-13134800D01*
X16926347Y-13134800D01*
X16843562Y-13156982D01*
X16769338Y-13199835D01*
X16708735Y-13260438D01*
X16665882Y-13334662D01*
X16643700Y-13417447D01*
X15280400Y-13417447D01*
X15280400Y-13347247D01*
X15258218Y-13264462D01*
X15215365Y-13190238D01*
X15154762Y-13129635D01*
X15114724Y-13106519D01*
X15073786Y-13061052D01*
X15067390Y-13000202D01*
X15078488Y-12971289D01*
X15109118Y-12918238D01*
X15131300Y-12835453D01*
X15131300Y-12749747D01*
X15109118Y-12666962D01*
X15066265Y-12592738D01*
X15005662Y-12532135D01*
X14931438Y-12489282D01*
X14848653Y-12467100D01*
X14762947Y-12467100D01*
X14680162Y-12489282D01*
X14605938Y-12532135D01*
X14605936Y-12532136D01*
X14600319Y-12535380D01*
X14599361Y-12533720D01*
X14550056Y-12551176D01*
X14491391Y-12533793D01*
X14468928Y-12512474D01*
X14465068Y-12507443D01*
X14465065Y-12507438D01*
X14404462Y-12446835D01*
X14330238Y-12403982D01*
X14247453Y-12381800D01*
X14161747Y-12381800D01*
X14078962Y-12403982D01*
X14004738Y-12446835D01*
X13944135Y-12507438D01*
X13901282Y-12581662D01*
X13879100Y-12664447D01*
X200500Y-12664447D01*
X200500Y-7542547D01*
X3664200Y-7542547D01*
X3664200Y-7628253D01*
X3686382Y-7711038D01*
X3729235Y-7785262D01*
X3789838Y-7845865D01*
X3864062Y-7888718D01*
X3946847Y-7910900D01*
X3946849Y-7910900D01*
X4032551Y-7910900D01*
X4032553Y-7910900D01*
X4115338Y-7888718D01*
X4189562Y-7845865D01*
X4250165Y-7785262D01*
X4293018Y-7711038D01*
X4315200Y-7628253D01*
X4315200Y-7542547D01*
X4312896Y-7533947D01*
X4662800Y-7533947D01*
X4662800Y-7619653D01*
X4684982Y-7702438D01*
X4727835Y-7776662D01*
X4788438Y-7837265D01*
X4862662Y-7880118D01*
X4945447Y-7902300D01*
X4945449Y-7902300D01*
X5031151Y-7902300D01*
X5031153Y-7902300D01*
X5113938Y-7880118D01*
X5188162Y-7837265D01*
X5248765Y-7776662D01*
X5291618Y-7702438D01*
X5313800Y-7619653D01*
X5313800Y-7536447D01*
X6582700Y-7536447D01*
X6582700Y-7622153D01*
X6604882Y-7704938D01*
X6647735Y-7779162D01*
X6708338Y-7839765D01*
X6782562Y-7882618D01*
X6865347Y-7904800D01*
X6865349Y-7904800D01*
X6951051Y-7904800D01*
X6951053Y-7904800D01*
X7033838Y-7882618D01*
X7108062Y-7839765D01*
X7168665Y-7779162D01*
X7211518Y-7704938D01*
X7233700Y-7622153D01*
X7233700Y-7536447D01*
X7232387Y-7531547D01*
X7516400Y-7531547D01*
X7516400Y-7617253D01*
X7538582Y-7700038D01*
X7581435Y-7774262D01*
X7618851Y-7811678D01*
X7646627Y-7866193D01*
X7639120Y-7913591D01*
X7648628Y-7906688D01*
X7665008Y-7890309D01*
X7672914Y-7889056D01*
X7679394Y-7884353D01*
X7702562Y-7884361D01*
X7725440Y-7880738D01*
X7735569Y-7882891D01*
X7799047Y-7899900D01*
X7799048Y-7899900D01*
X7884751Y-7899900D01*
X7884753Y-7899900D01*
X7967538Y-7877718D01*
X8041762Y-7834865D01*
X8102365Y-7774262D01*
X8145218Y-7700038D01*
X8167400Y-7617253D01*
X8167400Y-7531547D01*
X8145218Y-7448762D01*
X8102365Y-7374538D01*
X8041762Y-7313935D01*
X7967538Y-7271082D01*
X7884753Y-7248900D01*
X7799047Y-7248900D01*
X7716262Y-7271082D01*
X7642038Y-7313935D01*
X7581435Y-7374538D01*
X7538582Y-7448762D01*
X7516400Y-7531547D01*
X7232387Y-7531547D01*
X7211518Y-7453662D01*
X7168665Y-7379438D01*
X7108062Y-7318835D01*
X7033838Y-7275982D01*
X6951053Y-7253800D01*
X6865347Y-7253800D01*
X6782562Y-7275982D01*
X6708338Y-7318835D01*
X6647735Y-7379438D01*
X6604882Y-7453662D01*
X6582700Y-7536447D01*
X5313800Y-7536447D01*
X5313800Y-7533947D01*
X5291618Y-7451162D01*
X5248765Y-7376938D01*
X5188162Y-7316335D01*
X5113938Y-7273482D01*
X5031153Y-7251300D01*
X4945447Y-7251300D01*
X4862662Y-7273482D01*
X4788438Y-7316335D01*
X4727835Y-7376938D01*
X4684982Y-7451162D01*
X4662800Y-7533947D01*
X4312896Y-7533947D01*
X4293018Y-7459762D01*
X4250165Y-7385538D01*
X4189562Y-7324935D01*
X4115338Y-7282082D01*
X4032553Y-7259900D01*
X3946847Y-7259900D01*
X3864062Y-7282082D01*
X3789838Y-7324935D01*
X3729235Y-7385538D01*
X3686382Y-7459762D01*
X3664200Y-7542547D01*
X200500Y-7542547D01*
X200500Y-5049347D01*
X7640200Y-5049347D01*
X7640200Y-5135053D01*
X7662382Y-5217838D01*
X7705235Y-5292062D01*
X7765838Y-5352665D01*
X7840062Y-5395518D01*
X7922847Y-5417700D01*
X7922849Y-5417700D01*
X8008551Y-5417700D01*
X8008553Y-5417700D01*
X8091338Y-5395518D01*
X8165562Y-5352665D01*
X8226165Y-5292062D01*
X8269018Y-5217838D01*
X8291200Y-5135053D01*
X8291200Y-5049347D01*
X8269018Y-4966562D01*
X8226165Y-4892338D01*
X8165562Y-4831735D01*
X8091338Y-4788882D01*
X8008553Y-4766700D01*
X7922847Y-4766700D01*
X7840062Y-4788882D01*
X7765838Y-4831735D01*
X7705235Y-4892338D01*
X7662382Y-4966562D01*
X7640200Y-5049347D01*
X200500Y-5049347D01*
X200500Y-2447273D01*
X9599500Y-2447273D01*
X9599500Y-2552727D01*
X9626793Y-2654587D01*
X9626794Y-2654589D01*
X9626794Y-2654590D01*
X9654907Y-2703282D01*
X9679520Y-2745913D01*
X9754087Y-2820480D01*
X9845413Y-2873207D01*
X9947273Y-2900500D01*
X9947275Y-2900500D01*
X10052725Y-2900500D01*
X10052727Y-2900500D01*
X10154587Y-2873207D01*
X10245913Y-2820480D01*
X10320480Y-2745913D01*
X10373207Y-2654587D01*
X10400500Y-2552727D01*
X10400500Y-2447273D01*
X10373207Y-2345413D01*
X10372411Y-2344035D01*
X10338055Y-2284529D01*
X10320480Y-2254087D01*
X10245913Y-2179520D01*
X10225038Y-2167468D01*
X10154589Y-2126794D01*
X10154588Y-2126793D01*
X10154587Y-2126793D01*
X10052727Y-2099500D01*
X9947273Y-2099500D01*
X9845413Y-2126793D01*
X9845412Y-2126793D01*
X9845410Y-2126794D01*
X9845409Y-2126794D01*
X9754089Y-2179518D01*
X9679518Y-2254089D01*
X9626794Y-2345409D01*
X9626794Y-2345410D01*
X9626793Y-2345412D01*
X9626793Y-2345413D01*
X9599500Y-2447273D01*
X200500Y-2447273D01*
X200500Y-1420943D01*
X899500Y-1420943D01*
X899500Y-1579057D01*
X940423Y-1731784D01*
X1019480Y-1868716D01*
X1131284Y-1980520D01*
X1268216Y-2059577D01*
X1420943Y-2100500D01*
X1420945Y-2100500D01*
X1579055Y-2100500D01*
X1579057Y-2100500D01*
X1731784Y-2059577D01*
X1868716Y-1980520D01*
X1980520Y-1868716D01*
X2059577Y-1731784D01*
X2100500Y-1579057D01*
X2100500Y-1420943D01*
X2059577Y-1268216D01*
X1980520Y-1131284D01*
X1868716Y-1019480D01*
X1731784Y-940423D01*
X1579057Y-899500D01*
X1420943Y-899500D01*
X1268216Y-940423D01*
X1131284Y-1019480D01*
X1019480Y-1131284D01*
X940423Y-1268216D01*
X899500Y-1420943D01*
X200500Y-1420943D01*
X200500Y-299500D01*
X219407Y-241309D01*
X268907Y-205345D01*
X299500Y-200500D01*
X3884633Y-200500D01*
X3942824Y-219407D01*
G37*
%TD.AperFunction*%
%TA.AperFunction,Conductor*%
G36*
X32142824Y-219407D02*
G01*
X32178788Y-268907D01*
X32178788Y-330093D01*
X32169544Y-348420D01*
X32169652Y-348473D01*
X32166049Y-355842D01*
X32166049Y-355843D01*
X32110276Y-469928D01*
X32099500Y-543890D01*
X32099500Y-1456110D01*
X32110276Y-1530072D01*
X32166049Y-1644157D01*
X32255843Y-1733951D01*
X32369928Y-1789724D01*
X32443890Y-1800500D01*
X32925500Y-1800500D01*
X32983691Y-1819407D01*
X33019655Y-1868907D01*
X33024500Y-1899500D01*
X33024500Y-2440797D01*
X33005593Y-2498988D01*
X32995504Y-2510801D01*
X29172705Y-6333599D01*
X29118188Y-6361376D01*
X29057756Y-6351805D01*
X29016965Y-6313095D01*
X28989514Y-6265550D01*
X28983965Y-6255938D01*
X28923362Y-6195335D01*
X28849138Y-6152482D01*
X28766353Y-6130300D01*
X28680647Y-6130300D01*
X28597862Y-6152482D01*
X28523638Y-6195335D01*
X28467667Y-6251305D01*
X28413153Y-6279081D01*
X28397666Y-6280300D01*
X18222703Y-6280300D01*
X18164512Y-6261393D01*
X18152699Y-6251304D01*
X17744399Y-5843004D01*
X17716622Y-5788487D01*
X17726193Y-5728055D01*
X17769458Y-5684790D01*
X17814403Y-5674000D01*
X18409210Y-5674000D01*
X18473711Y-5647283D01*
X18473711Y-5647282D01*
X18473713Y-5647282D01*
X18707246Y-5413747D01*
X18761762Y-5385970D01*
X18822194Y-5395541D01*
X18865458Y-5438806D01*
X18869597Y-5449585D01*
X18869699Y-5449543D01*
X18872180Y-5455534D01*
X18872181Y-5455537D01*
X18872182Y-5455538D01*
X18915035Y-5529762D01*
X18975638Y-5590365D01*
X19049862Y-5633218D01*
X19132647Y-5655400D01*
X19132649Y-5655400D01*
X19218351Y-5655400D01*
X19218353Y-5655400D01*
X19301138Y-5633218D01*
X19375362Y-5590365D01*
X19435965Y-5529762D01*
X19478818Y-5455538D01*
X19501000Y-5372753D01*
X19501000Y-5287047D01*
X19478818Y-5204262D01*
X19465329Y-5180899D01*
X19452608Y-5121052D01*
X19477494Y-5065157D01*
X19530482Y-5034564D01*
X19551066Y-5032400D01*
X21327410Y-5032400D01*
X21368084Y-5015551D01*
X21391913Y-5005682D01*
X24564540Y-1833053D01*
X24619055Y-1805278D01*
X24679487Y-1814849D01*
X24720278Y-1853558D01*
X24721816Y-1856221D01*
X24752035Y-1908562D01*
X24812638Y-1969165D01*
X24886862Y-2012018D01*
X24969647Y-2034200D01*
X24969649Y-2034200D01*
X25055355Y-2034200D01*
X25061788Y-2033353D01*
X25061981Y-2034824D01*
X25089605Y-2033109D01*
X25102156Y-2034853D01*
X25146691Y-2053301D01*
X25216509Y-2053301D01*
X25216511Y-2053300D01*
X28987291Y-2053300D01*
X29057109Y-2053300D01*
X29057110Y-2053300D01*
X29121612Y-2026583D01*
X29318700Y-1829496D01*
X29373216Y-1801719D01*
X29388703Y-1800500D01*
X30656106Y-1800500D01*
X30656110Y-1800500D01*
X30730072Y-1789724D01*
X30844157Y-1733951D01*
X30933951Y-1644157D01*
X30989724Y-1530072D01*
X31000500Y-1456110D01*
X31000500Y-543890D01*
X30989724Y-469928D01*
X30933951Y-355843D01*
X30933950Y-355842D01*
X30930348Y-348473D01*
X30931860Y-347733D01*
X30916370Y-298682D01*
X30935758Y-240650D01*
X30985553Y-205096D01*
X31015367Y-200500D01*
X32084633Y-200500D01*
X32142824Y-219407D01*
G37*
%TD.AperFunction*%
%TA.AperFunction,Conductor*%
G36*
X18942824Y-219407D02*
G01*
X18978788Y-268907D01*
X18978788Y-330093D01*
X18969544Y-348420D01*
X18969652Y-348473D01*
X18966049Y-355842D01*
X18966049Y-355843D01*
X18910276Y-469928D01*
X18899500Y-543890D01*
X18899500Y-1456110D01*
X18910276Y-1530072D01*
X18966049Y-1644157D01*
X19055843Y-1733951D01*
X19169928Y-1789724D01*
X19243890Y-1800500D01*
X19725000Y-1800500D01*
X19739912Y-1805345D01*
X19755593Y-1805345D01*
X19768278Y-1814561D01*
X19783191Y-1819407D01*
X19792407Y-1832092D01*
X19805093Y-1841309D01*
X19809938Y-1856221D01*
X19819155Y-1868907D01*
X19824000Y-1899500D01*
X19824000Y-2097465D01*
X19805093Y-2155656D01*
X19795004Y-2167468D01*
X19739037Y-2223435D01*
X19739035Y-2223437D01*
X19739035Y-2223438D01*
X19696182Y-2297662D01*
X19674000Y-2380447D01*
X19674000Y-2466153D01*
X19696182Y-2548938D01*
X19739035Y-2623162D01*
X19799638Y-2683765D01*
X19873862Y-2726618D01*
X19956647Y-2748800D01*
X19956649Y-2748800D01*
X20040297Y-2748800D01*
X20098488Y-2767707D01*
X20134452Y-2817207D01*
X20134452Y-2878393D01*
X20110301Y-2917802D01*
X18515708Y-4512396D01*
X18285900Y-4742204D01*
X18231383Y-4769981D01*
X18215896Y-4771200D01*
X18136747Y-4771200D01*
X18053962Y-4793382D01*
X17979738Y-4836235D01*
X17919135Y-4896838D01*
X17876282Y-4971062D01*
X17855306Y-5049348D01*
X17854100Y-5053848D01*
X17854100Y-5145698D01*
X17846936Y-5167745D01*
X17843310Y-5190643D01*
X17837661Y-5196291D01*
X17835193Y-5203889D01*
X17816436Y-5217516D01*
X17800045Y-5233908D01*
X17792155Y-5235157D01*
X17785693Y-5239853D01*
X17762508Y-5239853D01*
X17739613Y-5243479D01*
X17732496Y-5239853D01*
X17724507Y-5239853D01*
X17685097Y-5215703D01*
X17664695Y-5195300D01*
X17636919Y-5140785D01*
X17635700Y-5125298D01*
X17635700Y-5046148D01*
X17632596Y-5034564D01*
X17613518Y-4963362D01*
X17570665Y-4889138D01*
X17510062Y-4828535D01*
X17435838Y-4785682D01*
X17353053Y-4763500D01*
X17267347Y-4763500D01*
X17184562Y-4785682D01*
X17110338Y-4828535D01*
X17049733Y-4889140D01*
X17019370Y-4941731D01*
X16973901Y-4982672D01*
X16913050Y-4989068D01*
X16863630Y-4962235D01*
X14973895Y-3072500D01*
X14946118Y-3017983D01*
X14955689Y-2957551D01*
X14998954Y-2914286D01*
X15008824Y-2910498D01*
X15008743Y-2910301D01*
X15014734Y-2907819D01*
X15014733Y-2907819D01*
X15014738Y-2907818D01*
X15088962Y-2864965D01*
X15144932Y-2808994D01*
X15199447Y-2781219D01*
X15214934Y-2780000D01*
X15430410Y-2780000D01*
X15471084Y-2763151D01*
X15494913Y-2753282D01*
X16418699Y-1829496D01*
X16473216Y-1801719D01*
X16488703Y-1800500D01*
X17756106Y-1800500D01*
X17756110Y-1800500D01*
X17830072Y-1789724D01*
X17944157Y-1733951D01*
X18033951Y-1644157D01*
X18089724Y-1530072D01*
X18100500Y-1456110D01*
X18100500Y-543890D01*
X18089724Y-469928D01*
X18033951Y-355843D01*
X18033950Y-355842D01*
X18030348Y-348473D01*
X18031860Y-347733D01*
X18016370Y-298682D01*
X18035758Y-240650D01*
X18085553Y-205096D01*
X18115367Y-200500D01*
X18884633Y-200500D01*
X18942824Y-219407D01*
G37*
%TD.AperFunction*%
%TD*%
M02*
