<svg xmlns="http://www.w3.org/2000/svg" width="900" height="480" viewBox="0 0 900 480">
<style>text{font-family:Arial,"Noto Sans JP",sans-serif;font-size:13px}.small{font-size:10px}.title{font-size:22px;font-weight:bold}.part{fill:#dbeafe;stroke:#1e40af;stroke-width:1}.manual{fill:#fef3c7;stroke:#92400e}.keep{fill:none;stroke:#dc2626;stroke-dasharray:5 4}.pcb{fill:#111827;stroke:#374151}.pad{fill:#facc15;stroke:#92400e}</style>
<text x="40" y="32" class="title">Camera IoT RevA - 38×18mm PCB / 40×20×11mm case fit</text>
<rect x="70" y="60" width="760" height="360" rx="12" class="pcb"/>
<text x="410.0" y="50">PCB 38 × 18 mm</text>
<rect x="210" y="136.0" width="600" height="240.0" class="manual" opacity="0.35"/>
<text x="220" y="156.0" class="small">Bottom side: 401230 LiPo adhesive area</text>
<rect x="710" y="60" width="120" height="100" class="keep"/>
<text x="690" y="54" class="small" fill="#dc2626">Antenna keepout</text>
<rect x="90" y="80" width="160" height="160" rx="6" class="manual" opacity="0.6"/>
<circle cx="170" cy="160" r="32" fill="#111"/><circle cx="170" cy="160" r="16" fill="#4c1d95"/>
<text x="90" y="72" class="small">Manual camera head 8×8×5.85</text>
<rect x="356.0" y="165.0" width="140" height="140" rx="3" class="part"/>
<text x="358.0" y="239.0" class="small">U1</text>
<rect x="76.0" y="246.0" width="260" height="60" rx="3" class="part"/>
<text x="78.0" y="280.0" class="small">J1</text>
<rect x="559.0" y="231.0" width="50.0" height="50.0" rx="3" class="part"/>
<text x="561.0" y="260.0" class="small">U2</text>
<rect x="559.0" y="296.0" width="50.0" height="40.0" rx="3" class="part"/>
<text x="561.0" y="320.0" class="small">L1</text>
<rect x="656.0" y="226.0" width="40.0" height="60.0" rx="3" class="part"/>
<rect x="237.0" y="125.0" width="58.0" height="32.0" rx="3" class="part"/>
<text x="239.0" y="145.0" class="small">U4</text>
<rect x="321.0" y="125.0" width="58.0" height="32.0" rx="3" class="part"/>
<text x="323.0" y="145.0" class="small">U5</text>
<rect x="754.0" y="90.00000000000001" width="64.0" height="32.0" rx="3" class="manual"/>
<text x="756.0" y="110.00000000000001" class="small">ANT1</text>
<rect x="118.0" y="340.0" width="40" height="32.0" rx="3" class="part"/>
<rect x="94.0" y="115.99999999999999" width="32.0" height="16.0" rx="3" class="part"/>
<rect x="712.0" y="312.0" width="32.0" height="16.0" rx="3" class="part"/>
<rect x="713.0" y="98.00000000000001" width="24.0" height="16.0" rx="3" class="part"/>
<rect x="694.0" y="120.0" width="24.0" height="16.0" rx="3" class="part"/>
<rect x="744.0" y="120.0" width="24.0" height="16.0" rx="3" class="part"/>
<rect x="664.0" y="283.0" width="24.0" height="16.0" rx="3" class="part"/>
<rect x="698.0" y="312.0" width="24.0" height="16.0" rx="3" class="part"/>
<rect x="120.0" y="115.99999999999999" width="24.0" height="16.0" rx="3" class="part"/>
<rect x="473.0" y="348.0" width="24.0" height="16.0" rx="3" class="part"/>
<rect x="498.0" y="348.0" width="24.0" height="16.0" rx="3" class="part"/>
<rect x="524.0" y="272.0" width="24.0" height="16.0" rx="3" class="part"/>
<rect x="617.0" y="272.0" width="24.0" height="16.0" rx="3" class="part"/>
<rect x="617.0" y="224.0" width="24.0" height="16.0" rx="3" class="part"/>
<rect x="538.0" y="178.0" width="24.0" height="16.0" rx="3" class="part"/>
<rect x="664.0" y="213.0" width="24.0" height="16.0" rx="3" class="part"/>
<rect x="694.0" y="213.0" width="24.0" height="16.0" rx="3" class="part"/>
<rect x="224.0" y="166.0" width="24.0" height="16.0" rx="3" class="part"/>
<rect x="308.0" y="166.0" width="24.0" height="16.0" rx="3" class="part"/>
<rect x="276.0" y="102.0" width="24.0" height="16.0" rx="3" class="part"/>
<rect x="360.0" y="102.0" width="24.0" height="16.0" rx="3" class="part"/>
<rect x="182.0" y="180.0" width="24.0" height="16.0" rx="3" class="part"/>
<rect x="206.0" y="180.0" width="24.0" height="16.0" rx="3" class="part"/>
<rect x="482.0" y="142.0" width="24.0" height="16.0" rx="3" class="part"/>
<rect x="630.0" y="358.0" width="24.0" height="16.0" rx="3" class="part"/>
<rect x="658.0" y="358.0" width="24.0" height="16.0" rx="3" class="part"/>
<rect x="140.0" y="386.0" width="40" height="28" rx="6" class="pad"/>
<text x="148.0" y="404.0" class="small">5V</text>
<rect x="206.0" y="386.0" width="40" height="28" rx="6" class="pad"/>
<text x="214.0" y="404.0" class="small">GND</text>
<rect x="272.0" y="386.0" width="40" height="28" rx="6" class="pad"/>
<text x="280.0" y="404.0" class="small">STAT</text>
<rect x="338.0" y="386.0" width="40" height="28" rx="6" class="pad"/>
<text x="346.0" y="404.0" class="small">WAKE</text>
<rect x="450" y="386.0" width="40" height="28" rx="6" class="pad"/>
<text x="458" y="404.0" class="small">3V3</text>
<rect x="516.0" y="386.0" width="40" height="28" rx="6" class="pad"/>
<text x="524.0" y="404.0" class="small">TX</text>
<rect x="582.0" y="386.0" width="40" height="28" rx="6" class="pad"/>
<text x="590.0" y="404.0" class="small">RX</text>
<rect x="648.0" y="386.0" width="40" height="28" rx="6" class="pad"/>
<text x="656.0" y="404.0" class="small">EN</text>
<rect x="714.0" y="386.0" width="40" height="28" rx="6" class="pad"/>
<text x="722.0" y="404.0" class="small">IO0</text>
<text x="70" y="455">厚み: PCB 0.8mm + top parts max ~1.5mm + bottom LiPo 4.0mm + camera lens 5.85mm in separate lens window = case 11mm target</text>
</svg>