<svg xmlns="http://www.w3.org/2000/svg" width="760" height="260" viewBox="0 0 760 260"><style>text{font-family:Arial,sans-serif;font-size:13px}.title{font-size:22px;font-weight:bold}.pcb{fill:#111827;stroke:#374151}.part{fill:#dbeafe;stroke:#1e40af}.pad{fill:#facc15;stroke:#92400e}</style>
<text x="30" y="30" class="title">USB-C → Pogo Charging Cradle RevA</text>
<rect x="50" y="50" width="630" height="210" rx="10" class="pcb"/>
<rect x="113.0" y="147.0" width="28" height="16" rx="3" class="part"/><text x="117.0" y="159.0">J1</text>
<rect x="246.0" y="147.0" width="28" height="16" rx="3" class="part"/><text x="250.0" y="159.0">F1</text>
<rect x="316.0" y="175.0" width="28" height="16" rx="3" class="part"/><text x="320.0" y="187.0">D1</text>
<rect x="159.20000000000002" y="204.4" width="28" height="16" rx="3" class="part"/><text x="163.20000000000002" y="216.4">R1</text>
<rect x="178.79999999999998" y="204.4" width="28" height="16" rx="3" class="part"/><text x="182.79999999999998" y="216.4">R2</text>
<circle cx="442.0" cy="155.0" r="10" class="pad"/><text x="432.0" y="180.0">P1</text>
<circle cx="498.0" cy="155.0" r="10" class="pad"/><text x="488.0" y="180.0">P2</text>
<circle cx="554.0" cy="155.0" r="10" class="pad"/><text x="544.0" y="180.0">P3</text>
<circle cx="610.0" cy="155.0" r="10" class="pad"/><text x="600.0" y="180.0">P4</text>
<rect x="372.0" y="210.0" width="28" height="16" rx="3" class="part"/><text x="376.0" y="222.0">LED1</text>
<rect x="355.2" y="210.0" width="28" height="16" rx="3" class="part"/><text x="359.2" y="222.0">R3</text>
<text x="55" y="240">USB-C 5V only: CC1/CC2 = 5.1kΩ to GND, VBUS protected by PTC+TVS, output pogo: 5V/GND/STAT/WAKE.</text>
</svg>