%TF.GenerationSoftware,KiCad,Pcbnew,10.0.3*%
%TF.CreationDate,2026-06-19T11:24:47+09:00*%
%TF.ProjectId,CameraIoT_USB-C_Programmer_Dock,43616d65-7261-4496-9f54-5f5553422d43,rev?*%
%TF.SameCoordinates,Original*%
%TF.FileFunction,Legend,Top*%
%TF.FilePolarity,Positive*%
%FSLAX46Y46*%
G04 Gerber Fmt 4.6, Leading zero omitted, Abs format (unit mm)*
G04 Created by KiCad (PCBNEW 10.0.3) date 2026-06-19 11:24:47*
%MOMM*%
%LPD*%
G01*
G04 APERTURE LIST*
%ADD10C,0.112500*%
%ADD11C,0.120000*%
G04 APERTURE END LIST*
D10*
X33892857Y-16152327D02*
X34042857Y-16602327D01*
X34042857Y-16602327D02*
X34192857Y-16152327D01*
X34492856Y-16366613D02*
X34557142Y-16388041D01*
X34557142Y-16388041D02*
X34578571Y-16409470D01*
X34578571Y-16409470D02*
X34599999Y-16452327D01*
X34599999Y-16452327D02*
X34599999Y-16516613D01*
X34599999Y-16516613D02*
X34578571Y-16559470D01*
X34578571Y-16559470D02*
X34557142Y-16580899D01*
X34557142Y-16580899D02*
X34514285Y-16602327D01*
X34514285Y-16602327D02*
X34342856Y-16602327D01*
X34342856Y-16602327D02*
X34342856Y-16152327D01*
X34342856Y-16152327D02*
X34492856Y-16152327D01*
X34492856Y-16152327D02*
X34535714Y-16173756D01*
X34535714Y-16173756D02*
X34557142Y-16195184D01*
X34557142Y-16195184D02*
X34578571Y-16238041D01*
X34578571Y-16238041D02*
X34578571Y-16280899D01*
X34578571Y-16280899D02*
X34557142Y-16323756D01*
X34557142Y-16323756D02*
X34535714Y-16345184D01*
X34535714Y-16345184D02*
X34492856Y-16366613D01*
X34492856Y-16366613D02*
X34342856Y-16366613D01*
X34792856Y-16152327D02*
X34792856Y-16516613D01*
X34792856Y-16516613D02*
X34814285Y-16559470D01*
X34814285Y-16559470D02*
X34835714Y-16580899D01*
X34835714Y-16580899D02*
X34878571Y-16602327D01*
X34878571Y-16602327D02*
X34964285Y-16602327D01*
X34964285Y-16602327D02*
X35007142Y-16580899D01*
X35007142Y-16580899D02*
X35028571Y-16559470D01*
X35028571Y-16559470D02*
X35049999Y-16516613D01*
X35049999Y-16516613D02*
X35049999Y-16152327D01*
X35242857Y-16580899D02*
X35307143Y-16602327D01*
X35307143Y-16602327D02*
X35414285Y-16602327D01*
X35414285Y-16602327D02*
X35457143Y-16580899D01*
X35457143Y-16580899D02*
X35478571Y-16559470D01*
X35478571Y-16559470D02*
X35500000Y-16516613D01*
X35500000Y-16516613D02*
X35500000Y-16473756D01*
X35500000Y-16473756D02*
X35478571Y-16430899D01*
X35478571Y-16430899D02*
X35457143Y-16409470D01*
X35457143Y-16409470D02*
X35414285Y-16388041D01*
X35414285Y-16388041D02*
X35328571Y-16366613D01*
X35328571Y-16366613D02*
X35285714Y-16345184D01*
X35285714Y-16345184D02*
X35264285Y-16323756D01*
X35264285Y-16323756D02*
X35242857Y-16280899D01*
X35242857Y-16280899D02*
X35242857Y-16238041D01*
X35242857Y-16238041D02*
X35264285Y-16195184D01*
X35264285Y-16195184D02*
X35285714Y-16173756D01*
X35285714Y-16173756D02*
X35328571Y-16152327D01*
X35328571Y-16152327D02*
X35435714Y-16152327D01*
X35435714Y-16152327D02*
X35500000Y-16173756D01*
X36271428Y-16173756D02*
X36228571Y-16152327D01*
X36228571Y-16152327D02*
X36164285Y-16152327D01*
X36164285Y-16152327D02*
X36099999Y-16173756D01*
X36099999Y-16173756D02*
X36057142Y-16216613D01*
X36057142Y-16216613D02*
X36035713Y-16259470D01*
X36035713Y-16259470D02*
X36014285Y-16345184D01*
X36014285Y-16345184D02*
X36014285Y-16409470D01*
X36014285Y-16409470D02*
X36035713Y-16495184D01*
X36035713Y-16495184D02*
X36057142Y-16538041D01*
X36057142Y-16538041D02*
X36099999Y-16580899D01*
X36099999Y-16580899D02*
X36164285Y-16602327D01*
X36164285Y-16602327D02*
X36207142Y-16602327D01*
X36207142Y-16602327D02*
X36271428Y-16580899D01*
X36271428Y-16580899D02*
X36292856Y-16559470D01*
X36292856Y-16559470D02*
X36292856Y-16409470D01*
X36292856Y-16409470D02*
X36207142Y-16409470D01*
X36485713Y-16602327D02*
X36485713Y-16152327D01*
X36485713Y-16152327D02*
X36742856Y-16602327D01*
X36742856Y-16602327D02*
X36742856Y-16152327D01*
X36957142Y-16602327D02*
X36957142Y-16152327D01*
X36957142Y-16152327D02*
X37064285Y-16152327D01*
X37064285Y-16152327D02*
X37128571Y-16173756D01*
X37128571Y-16173756D02*
X37171428Y-16216613D01*
X37171428Y-16216613D02*
X37192857Y-16259470D01*
X37192857Y-16259470D02*
X37214285Y-16345184D01*
X37214285Y-16345184D02*
X37214285Y-16409470D01*
X37214285Y-16409470D02*
X37192857Y-16495184D01*
X37192857Y-16495184D02*
X37171428Y-16538041D01*
X37171428Y-16538041D02*
X37128571Y-16580899D01*
X37128571Y-16580899D02*
X37064285Y-16602327D01*
X37064285Y-16602327D02*
X36957142Y-16602327D01*
X37749999Y-16602327D02*
X37749999Y-16152327D01*
X37749999Y-16152327D02*
X37857142Y-16152327D01*
X37857142Y-16152327D02*
X37921428Y-16173756D01*
X37921428Y-16173756D02*
X37964285Y-16216613D01*
X37964285Y-16216613D02*
X37985714Y-16259470D01*
X37985714Y-16259470D02*
X38007142Y-16345184D01*
X38007142Y-16345184D02*
X38007142Y-16409470D01*
X38007142Y-16409470D02*
X37985714Y-16495184D01*
X37985714Y-16495184D02*
X37964285Y-16538041D01*
X37964285Y-16538041D02*
X37921428Y-16580899D01*
X37921428Y-16580899D02*
X37857142Y-16602327D01*
X37857142Y-16602327D02*
X37749999Y-16602327D01*
X38199999Y-16430899D02*
X38542857Y-16430899D01*
X38371428Y-16602327D02*
X38371428Y-16259470D01*
X39099999Y-16602327D02*
X39099999Y-16152327D01*
X39099999Y-16152327D02*
X39207142Y-16152327D01*
X39207142Y-16152327D02*
X39271428Y-16173756D01*
X39271428Y-16173756D02*
X39314285Y-16216613D01*
X39314285Y-16216613D02*
X39335714Y-16259470D01*
X39335714Y-16259470D02*
X39357142Y-16345184D01*
X39357142Y-16345184D02*
X39357142Y-16409470D01*
X39357142Y-16409470D02*
X39335714Y-16495184D01*
X39335714Y-16495184D02*
X39314285Y-16538041D01*
X39314285Y-16538041D02*
X39271428Y-16580899D01*
X39271428Y-16580899D02*
X39207142Y-16602327D01*
X39207142Y-16602327D02*
X39099999Y-16602327D01*
X39549999Y-16430899D02*
X39892857Y-16430899D01*
X40599999Y-16366613D02*
X40664285Y-16388041D01*
X40664285Y-16388041D02*
X40685714Y-16409470D01*
X40685714Y-16409470D02*
X40707142Y-16452327D01*
X40707142Y-16452327D02*
X40707142Y-16516613D01*
X40707142Y-16516613D02*
X40685714Y-16559470D01*
X40685714Y-16559470D02*
X40664285Y-16580899D01*
X40664285Y-16580899D02*
X40621428Y-16602327D01*
X40621428Y-16602327D02*
X40449999Y-16602327D01*
X40449999Y-16602327D02*
X40449999Y-16152327D01*
X40449999Y-16152327D02*
X40599999Y-16152327D01*
X40599999Y-16152327D02*
X40642857Y-16173756D01*
X40642857Y-16173756D02*
X40664285Y-16195184D01*
X40664285Y-16195184D02*
X40685714Y-16238041D01*
X40685714Y-16238041D02*
X40685714Y-16280899D01*
X40685714Y-16280899D02*
X40664285Y-16323756D01*
X40664285Y-16323756D02*
X40642857Y-16345184D01*
X40642857Y-16345184D02*
X40599999Y-16366613D01*
X40599999Y-16366613D02*
X40449999Y-16366613D01*
X40985714Y-16152327D02*
X41071428Y-16152327D01*
X41071428Y-16152327D02*
X41114285Y-16173756D01*
X41114285Y-16173756D02*
X41157142Y-16216613D01*
X41157142Y-16216613D02*
X41178571Y-16302327D01*
X41178571Y-16302327D02*
X41178571Y-16452327D01*
X41178571Y-16452327D02*
X41157142Y-16538041D01*
X41157142Y-16538041D02*
X41114285Y-16580899D01*
X41114285Y-16580899D02*
X41071428Y-16602327D01*
X41071428Y-16602327D02*
X40985714Y-16602327D01*
X40985714Y-16602327D02*
X40942857Y-16580899D01*
X40942857Y-16580899D02*
X40899999Y-16538041D01*
X40899999Y-16538041D02*
X40878571Y-16452327D01*
X40878571Y-16452327D02*
X40878571Y-16302327D01*
X40878571Y-16302327D02*
X40899999Y-16216613D01*
X40899999Y-16216613D02*
X40942857Y-16173756D01*
X40942857Y-16173756D02*
X40985714Y-16152327D01*
X41457143Y-16152327D02*
X41542857Y-16152327D01*
X41542857Y-16152327D02*
X41585714Y-16173756D01*
X41585714Y-16173756D02*
X41628571Y-16216613D01*
X41628571Y-16216613D02*
X41650000Y-16302327D01*
X41650000Y-16302327D02*
X41650000Y-16452327D01*
X41650000Y-16452327D02*
X41628571Y-16538041D01*
X41628571Y-16538041D02*
X41585714Y-16580899D01*
X41585714Y-16580899D02*
X41542857Y-16602327D01*
X41542857Y-16602327D02*
X41457143Y-16602327D01*
X41457143Y-16602327D02*
X41414286Y-16580899D01*
X41414286Y-16580899D02*
X41371428Y-16538041D01*
X41371428Y-16538041D02*
X41350000Y-16452327D01*
X41350000Y-16452327D02*
X41350000Y-16302327D01*
X41350000Y-16302327D02*
X41371428Y-16216613D01*
X41371428Y-16216613D02*
X41414286Y-16173756D01*
X41414286Y-16173756D02*
X41457143Y-16152327D01*
X41778572Y-16152327D02*
X42035715Y-16152327D01*
X41907143Y-16602327D02*
X41907143Y-16152327D01*
X42528571Y-16366613D02*
X42678571Y-16366613D01*
X42742857Y-16602327D02*
X42528571Y-16602327D01*
X42528571Y-16602327D02*
X42528571Y-16152327D01*
X42528571Y-16152327D02*
X42742857Y-16152327D01*
X42935714Y-16602327D02*
X42935714Y-16152327D01*
X42935714Y-16152327D02*
X43192857Y-16602327D01*
X43192857Y-16602327D02*
X43192857Y-16152327D01*
X43728572Y-16580899D02*
X43792858Y-16602327D01*
X43792858Y-16602327D02*
X43900000Y-16602327D01*
X43900000Y-16602327D02*
X43942858Y-16580899D01*
X43942858Y-16580899D02*
X43964286Y-16559470D01*
X43964286Y-16559470D02*
X43985715Y-16516613D01*
X43985715Y-16516613D02*
X43985715Y-16473756D01*
X43985715Y-16473756D02*
X43964286Y-16430899D01*
X43964286Y-16430899D02*
X43942858Y-16409470D01*
X43942858Y-16409470D02*
X43900000Y-16388041D01*
X43900000Y-16388041D02*
X43814286Y-16366613D01*
X43814286Y-16366613D02*
X43771429Y-16345184D01*
X43771429Y-16345184D02*
X43750000Y-16323756D01*
X43750000Y-16323756D02*
X43728572Y-16280899D01*
X43728572Y-16280899D02*
X43728572Y-16238041D01*
X43728572Y-16238041D02*
X43750000Y-16195184D01*
X43750000Y-16195184D02*
X43771429Y-16173756D01*
X43771429Y-16173756D02*
X43814286Y-16152327D01*
X43814286Y-16152327D02*
X43921429Y-16152327D01*
X43921429Y-16152327D02*
X43985715Y-16173756D01*
X44114286Y-16152327D02*
X44371429Y-16152327D01*
X44242857Y-16602327D02*
X44242857Y-16152327D01*
X44500000Y-16473756D02*
X44714286Y-16473756D01*
X44457143Y-16602327D02*
X44607143Y-16152327D01*
X44607143Y-16152327D02*
X44757143Y-16602327D01*
X44842857Y-16152327D02*
X45100000Y-16152327D01*
X44971428Y-16602327D02*
X44971428Y-16152327D01*
X45592856Y-16602327D02*
X45592856Y-16152327D01*
X45807142Y-16602327D02*
X45807142Y-16152327D01*
X45807142Y-16152327D02*
X45914285Y-16152327D01*
X45914285Y-16152327D02*
X45978571Y-16173756D01*
X45978571Y-16173756D02*
X46021428Y-16216613D01*
X46021428Y-16216613D02*
X46042857Y-16259470D01*
X46042857Y-16259470D02*
X46064285Y-16345184D01*
X46064285Y-16345184D02*
X46064285Y-16409470D01*
X46064285Y-16409470D02*
X46042857Y-16495184D01*
X46042857Y-16495184D02*
X46021428Y-16538041D01*
X46021428Y-16538041D02*
X45978571Y-16580899D01*
X45978571Y-16580899D02*
X45914285Y-16602327D01*
X45914285Y-16602327D02*
X45807142Y-16602327D01*
D11*
X21116667Y-1232557D02*
X21085715Y-1263510D01*
X21085715Y-1263510D02*
X20992857Y-1294462D01*
X20992857Y-1294462D02*
X20930953Y-1294462D01*
X20930953Y-1294462D02*
X20838096Y-1263510D01*
X20838096Y-1263510D02*
X20776191Y-1201605D01*
X20776191Y-1201605D02*
X20745238Y-1139700D01*
X20745238Y-1139700D02*
X20714286Y-1015890D01*
X20714286Y-1015890D02*
X20714286Y-923033D01*
X20714286Y-923033D02*
X20745238Y-799224D01*
X20745238Y-799224D02*
X20776191Y-737319D01*
X20776191Y-737319D02*
X20838096Y-675414D01*
X20838096Y-675414D02*
X20930953Y-644462D01*
X20930953Y-644462D02*
X20992857Y-644462D01*
X20992857Y-644462D02*
X21085715Y-675414D01*
X21085715Y-675414D02*
X21116667Y-706367D01*
X21673810Y-1294462D02*
X21673810Y-953986D01*
X21673810Y-953986D02*
X21642857Y-892081D01*
X21642857Y-892081D02*
X21580953Y-861129D01*
X21580953Y-861129D02*
X21457143Y-861129D01*
X21457143Y-861129D02*
X21395238Y-892081D01*
X21673810Y-1263510D02*
X21611905Y-1294462D01*
X21611905Y-1294462D02*
X21457143Y-1294462D01*
X21457143Y-1294462D02*
X21395238Y-1263510D01*
X21395238Y-1263510D02*
X21364286Y-1201605D01*
X21364286Y-1201605D02*
X21364286Y-1139700D01*
X21364286Y-1139700D02*
X21395238Y-1077795D01*
X21395238Y-1077795D02*
X21457143Y-1046843D01*
X21457143Y-1046843D02*
X21611905Y-1046843D01*
X21611905Y-1046843D02*
X21673810Y-1015890D01*
X21983333Y-1294462D02*
X21983333Y-861129D01*
X21983333Y-923033D02*
X22014286Y-892081D01*
X22014286Y-892081D02*
X22076191Y-861129D01*
X22076191Y-861129D02*
X22169048Y-861129D01*
X22169048Y-861129D02*
X22230952Y-892081D01*
X22230952Y-892081D02*
X22261905Y-953986D01*
X22261905Y-953986D02*
X22261905Y-1294462D01*
X22261905Y-953986D02*
X22292857Y-892081D01*
X22292857Y-892081D02*
X22354762Y-861129D01*
X22354762Y-861129D02*
X22447619Y-861129D01*
X22447619Y-861129D02*
X22509524Y-892081D01*
X22509524Y-892081D02*
X22540476Y-953986D01*
X22540476Y-953986D02*
X22540476Y-1294462D01*
X23097619Y-1263510D02*
X23035715Y-1294462D01*
X23035715Y-1294462D02*
X22911905Y-1294462D01*
X22911905Y-1294462D02*
X22850000Y-1263510D01*
X22850000Y-1263510D02*
X22819048Y-1201605D01*
X22819048Y-1201605D02*
X22819048Y-953986D01*
X22819048Y-953986D02*
X22850000Y-892081D01*
X22850000Y-892081D02*
X22911905Y-861129D01*
X22911905Y-861129D02*
X23035715Y-861129D01*
X23035715Y-861129D02*
X23097619Y-892081D01*
X23097619Y-892081D02*
X23128572Y-953986D01*
X23128572Y-953986D02*
X23128572Y-1015890D01*
X23128572Y-1015890D02*
X22819048Y-1077795D01*
X23407143Y-1294462D02*
X23407143Y-861129D01*
X23407143Y-984938D02*
X23438096Y-923033D01*
X23438096Y-923033D02*
X23469048Y-892081D01*
X23469048Y-892081D02*
X23530953Y-861129D01*
X23530953Y-861129D02*
X23592858Y-861129D01*
X24088096Y-1294462D02*
X24088096Y-953986D01*
X24088096Y-953986D02*
X24057143Y-892081D01*
X24057143Y-892081D02*
X23995239Y-861129D01*
X23995239Y-861129D02*
X23871429Y-861129D01*
X23871429Y-861129D02*
X23809524Y-892081D01*
X24088096Y-1263510D02*
X24026191Y-1294462D01*
X24026191Y-1294462D02*
X23871429Y-1294462D01*
X23871429Y-1294462D02*
X23809524Y-1263510D01*
X23809524Y-1263510D02*
X23778572Y-1201605D01*
X23778572Y-1201605D02*
X23778572Y-1139700D01*
X23778572Y-1139700D02*
X23809524Y-1077795D01*
X23809524Y-1077795D02*
X23871429Y-1046843D01*
X23871429Y-1046843D02*
X24026191Y-1046843D01*
X24026191Y-1046843D02*
X24088096Y-1015890D01*
X24892857Y-1294462D02*
X24892857Y-644462D01*
X25295239Y-1294462D02*
X25233334Y-1263510D01*
X25233334Y-1263510D02*
X25202381Y-1232557D01*
X25202381Y-1232557D02*
X25171429Y-1170652D01*
X25171429Y-1170652D02*
X25171429Y-984938D01*
X25171429Y-984938D02*
X25202381Y-923033D01*
X25202381Y-923033D02*
X25233334Y-892081D01*
X25233334Y-892081D02*
X25295239Y-861129D01*
X25295239Y-861129D02*
X25388096Y-861129D01*
X25388096Y-861129D02*
X25450000Y-892081D01*
X25450000Y-892081D02*
X25480953Y-923033D01*
X25480953Y-923033D02*
X25511905Y-984938D01*
X25511905Y-984938D02*
X25511905Y-1170652D01*
X25511905Y-1170652D02*
X25480953Y-1232557D01*
X25480953Y-1232557D02*
X25450000Y-1263510D01*
X25450000Y-1263510D02*
X25388096Y-1294462D01*
X25388096Y-1294462D02*
X25295239Y-1294462D01*
X25697619Y-644462D02*
X26069048Y-644462D01*
X25883334Y-1294462D02*
X25883334Y-644462D01*
X26780952Y-644462D02*
X26780952Y-1170652D01*
X26780952Y-1170652D02*
X26811905Y-1232557D01*
X26811905Y-1232557D02*
X26842857Y-1263510D01*
X26842857Y-1263510D02*
X26904762Y-1294462D01*
X26904762Y-1294462D02*
X27028571Y-1294462D01*
X27028571Y-1294462D02*
X27090476Y-1263510D01*
X27090476Y-1263510D02*
X27121429Y-1232557D01*
X27121429Y-1232557D02*
X27152381Y-1170652D01*
X27152381Y-1170652D02*
X27152381Y-644462D01*
X27430952Y-1263510D02*
X27523809Y-1294462D01*
X27523809Y-1294462D02*
X27678571Y-1294462D01*
X27678571Y-1294462D02*
X27740476Y-1263510D01*
X27740476Y-1263510D02*
X27771428Y-1232557D01*
X27771428Y-1232557D02*
X27802381Y-1170652D01*
X27802381Y-1170652D02*
X27802381Y-1108748D01*
X27802381Y-1108748D02*
X27771428Y-1046843D01*
X27771428Y-1046843D02*
X27740476Y-1015890D01*
X27740476Y-1015890D02*
X27678571Y-984938D01*
X27678571Y-984938D02*
X27554762Y-953986D01*
X27554762Y-953986D02*
X27492857Y-923033D01*
X27492857Y-923033D02*
X27461904Y-892081D01*
X27461904Y-892081D02*
X27430952Y-830176D01*
X27430952Y-830176D02*
X27430952Y-768271D01*
X27430952Y-768271D02*
X27461904Y-706367D01*
X27461904Y-706367D02*
X27492857Y-675414D01*
X27492857Y-675414D02*
X27554762Y-644462D01*
X27554762Y-644462D02*
X27709523Y-644462D01*
X27709523Y-644462D02*
X27802381Y-675414D01*
X28297619Y-953986D02*
X28390476Y-984938D01*
X28390476Y-984938D02*
X28421429Y-1015890D01*
X28421429Y-1015890D02*
X28452381Y-1077795D01*
X28452381Y-1077795D02*
X28452381Y-1170652D01*
X28452381Y-1170652D02*
X28421429Y-1232557D01*
X28421429Y-1232557D02*
X28390476Y-1263510D01*
X28390476Y-1263510D02*
X28328571Y-1294462D01*
X28328571Y-1294462D02*
X28080952Y-1294462D01*
X28080952Y-1294462D02*
X28080952Y-644462D01*
X28080952Y-644462D02*
X28297619Y-644462D01*
X28297619Y-644462D02*
X28359524Y-675414D01*
X28359524Y-675414D02*
X28390476Y-706367D01*
X28390476Y-706367D02*
X28421429Y-768271D01*
X28421429Y-768271D02*
X28421429Y-830176D01*
X28421429Y-830176D02*
X28390476Y-892081D01*
X28390476Y-892081D02*
X28359524Y-923033D01*
X28359524Y-923033D02*
X28297619Y-953986D01*
X28297619Y-953986D02*
X28080952Y-953986D01*
X28730952Y-1046843D02*
X29226191Y-1046843D01*
X29907143Y-1232557D02*
X29876191Y-1263510D01*
X29876191Y-1263510D02*
X29783333Y-1294462D01*
X29783333Y-1294462D02*
X29721429Y-1294462D01*
X29721429Y-1294462D02*
X29628572Y-1263510D01*
X29628572Y-1263510D02*
X29566667Y-1201605D01*
X29566667Y-1201605D02*
X29535714Y-1139700D01*
X29535714Y-1139700D02*
X29504762Y-1015890D01*
X29504762Y-1015890D02*
X29504762Y-923033D01*
X29504762Y-923033D02*
X29535714Y-799224D01*
X29535714Y-799224D02*
X29566667Y-737319D01*
X29566667Y-737319D02*
X29628572Y-675414D01*
X29628572Y-675414D02*
X29721429Y-644462D01*
X29721429Y-644462D02*
X29783333Y-644462D01*
X29783333Y-644462D02*
X29876191Y-675414D01*
X29876191Y-675414D02*
X29907143Y-706367D01*
X30680952Y-1294462D02*
X30680952Y-644462D01*
X30680952Y-644462D02*
X30928571Y-644462D01*
X30928571Y-644462D02*
X30990476Y-675414D01*
X30990476Y-675414D02*
X31021429Y-706367D01*
X31021429Y-706367D02*
X31052381Y-768271D01*
X31052381Y-768271D02*
X31052381Y-861129D01*
X31052381Y-861129D02*
X31021429Y-923033D01*
X31021429Y-923033D02*
X30990476Y-953986D01*
X30990476Y-953986D02*
X30928571Y-984938D01*
X30928571Y-984938D02*
X30680952Y-984938D01*
X31423810Y-1294462D02*
X31361905Y-1263510D01*
X31361905Y-1263510D02*
X31330952Y-1232557D01*
X31330952Y-1232557D02*
X31300000Y-1170652D01*
X31300000Y-1170652D02*
X31300000Y-984938D01*
X31300000Y-984938D02*
X31330952Y-923033D01*
X31330952Y-923033D02*
X31361905Y-892081D01*
X31361905Y-892081D02*
X31423810Y-861129D01*
X31423810Y-861129D02*
X31516667Y-861129D01*
X31516667Y-861129D02*
X31578571Y-892081D01*
X31578571Y-892081D02*
X31609524Y-923033D01*
X31609524Y-923033D02*
X31640476Y-984938D01*
X31640476Y-984938D02*
X31640476Y-1170652D01*
X31640476Y-1170652D02*
X31609524Y-1232557D01*
X31609524Y-1232557D02*
X31578571Y-1263510D01*
X31578571Y-1263510D02*
X31516667Y-1294462D01*
X31516667Y-1294462D02*
X31423810Y-1294462D01*
X32197619Y-861129D02*
X32197619Y-1387319D01*
X32197619Y-1387319D02*
X32166666Y-1449224D01*
X32166666Y-1449224D02*
X32135714Y-1480176D01*
X32135714Y-1480176D02*
X32073809Y-1511129D01*
X32073809Y-1511129D02*
X31980952Y-1511129D01*
X31980952Y-1511129D02*
X31919047Y-1480176D01*
X32197619Y-1263510D02*
X32135714Y-1294462D01*
X32135714Y-1294462D02*
X32011905Y-1294462D01*
X32011905Y-1294462D02*
X31950000Y-1263510D01*
X31950000Y-1263510D02*
X31919047Y-1232557D01*
X31919047Y-1232557D02*
X31888095Y-1170652D01*
X31888095Y-1170652D02*
X31888095Y-984938D01*
X31888095Y-984938D02*
X31919047Y-923033D01*
X31919047Y-923033D02*
X31950000Y-892081D01*
X31950000Y-892081D02*
X32011905Y-861129D01*
X32011905Y-861129D02*
X32135714Y-861129D01*
X32135714Y-861129D02*
X32197619Y-892081D01*
X32600000Y-1294462D02*
X32538095Y-1263510D01*
X32538095Y-1263510D02*
X32507142Y-1232557D01*
X32507142Y-1232557D02*
X32476190Y-1170652D01*
X32476190Y-1170652D02*
X32476190Y-984938D01*
X32476190Y-984938D02*
X32507142Y-923033D01*
X32507142Y-923033D02*
X32538095Y-892081D01*
X32538095Y-892081D02*
X32600000Y-861129D01*
X32600000Y-861129D02*
X32692857Y-861129D01*
X32692857Y-861129D02*
X32754761Y-892081D01*
X32754761Y-892081D02*
X32785714Y-923033D01*
X32785714Y-923033D02*
X32816666Y-984938D01*
X32816666Y-984938D02*
X32816666Y-1170652D01*
X32816666Y-1170652D02*
X32785714Y-1232557D01*
X32785714Y-1232557D02*
X32754761Y-1263510D01*
X32754761Y-1263510D02*
X32692857Y-1294462D01*
X32692857Y-1294462D02*
X32600000Y-1294462D01*
X33961904Y-1232557D02*
X33930952Y-1263510D01*
X33930952Y-1263510D02*
X33838094Y-1294462D01*
X33838094Y-1294462D02*
X33776190Y-1294462D01*
X33776190Y-1294462D02*
X33683333Y-1263510D01*
X33683333Y-1263510D02*
X33621428Y-1201605D01*
X33621428Y-1201605D02*
X33590475Y-1139700D01*
X33590475Y-1139700D02*
X33559523Y-1015890D01*
X33559523Y-1015890D02*
X33559523Y-923033D01*
X33559523Y-923033D02*
X33590475Y-799224D01*
X33590475Y-799224D02*
X33621428Y-737319D01*
X33621428Y-737319D02*
X33683333Y-675414D01*
X33683333Y-675414D02*
X33776190Y-644462D01*
X33776190Y-644462D02*
X33838094Y-644462D01*
X33838094Y-644462D02*
X33930952Y-675414D01*
X33930952Y-675414D02*
X33961904Y-706367D01*
X34240475Y-1294462D02*
X34240475Y-861129D01*
X34240475Y-984938D02*
X34271428Y-923033D01*
X34271428Y-923033D02*
X34302380Y-892081D01*
X34302380Y-892081D02*
X34364285Y-861129D01*
X34364285Y-861129D02*
X34426190Y-861129D01*
X34921428Y-1294462D02*
X34921428Y-953986D01*
X34921428Y-953986D02*
X34890475Y-892081D01*
X34890475Y-892081D02*
X34828571Y-861129D01*
X34828571Y-861129D02*
X34704761Y-861129D01*
X34704761Y-861129D02*
X34642856Y-892081D01*
X34921428Y-1263510D02*
X34859523Y-1294462D01*
X34859523Y-1294462D02*
X34704761Y-1294462D01*
X34704761Y-1294462D02*
X34642856Y-1263510D01*
X34642856Y-1263510D02*
X34611904Y-1201605D01*
X34611904Y-1201605D02*
X34611904Y-1139700D01*
X34611904Y-1139700D02*
X34642856Y-1077795D01*
X34642856Y-1077795D02*
X34704761Y-1046843D01*
X34704761Y-1046843D02*
X34859523Y-1046843D01*
X34859523Y-1046843D02*
X34921428Y-1015890D01*
X35509523Y-1294462D02*
X35509523Y-644462D01*
X35509523Y-1263510D02*
X35447618Y-1294462D01*
X35447618Y-1294462D02*
X35323809Y-1294462D01*
X35323809Y-1294462D02*
X35261904Y-1263510D01*
X35261904Y-1263510D02*
X35230951Y-1232557D01*
X35230951Y-1232557D02*
X35199999Y-1170652D01*
X35199999Y-1170652D02*
X35199999Y-984938D01*
X35199999Y-984938D02*
X35230951Y-923033D01*
X35230951Y-923033D02*
X35261904Y-892081D01*
X35261904Y-892081D02*
X35323809Y-861129D01*
X35323809Y-861129D02*
X35447618Y-861129D01*
X35447618Y-861129D02*
X35509523Y-892081D01*
X35911904Y-1294462D02*
X35849999Y-1263510D01*
X35849999Y-1263510D02*
X35819046Y-1201605D01*
X35819046Y-1201605D02*
X35819046Y-644462D01*
X36407141Y-1263510D02*
X36345237Y-1294462D01*
X36345237Y-1294462D02*
X36221427Y-1294462D01*
X36221427Y-1294462D02*
X36159522Y-1263510D01*
X36159522Y-1263510D02*
X36128570Y-1201605D01*
X36128570Y-1201605D02*
X36128570Y-953986D01*
X36128570Y-953986D02*
X36159522Y-892081D01*
X36159522Y-892081D02*
X36221427Y-861129D01*
X36221427Y-861129D02*
X36345237Y-861129D01*
X36345237Y-861129D02*
X36407141Y-892081D01*
X36407141Y-892081D02*
X36438094Y-953986D01*
X36438094Y-953986D02*
X36438094Y-1015890D01*
X36438094Y-1015890D02*
X36128570Y-1077795D01*
X37583332Y-1294462D02*
X37366665Y-984938D01*
X37211903Y-1294462D02*
X37211903Y-644462D01*
X37211903Y-644462D02*
X37459522Y-644462D01*
X37459522Y-644462D02*
X37521427Y-675414D01*
X37521427Y-675414D02*
X37552380Y-706367D01*
X37552380Y-706367D02*
X37583332Y-768271D01*
X37583332Y-768271D02*
X37583332Y-861129D01*
X37583332Y-861129D02*
X37552380Y-923033D01*
X37552380Y-923033D02*
X37521427Y-953986D01*
X37521427Y-953986D02*
X37459522Y-984938D01*
X37459522Y-984938D02*
X37211903Y-984938D01*
X38109522Y-1263510D02*
X38047618Y-1294462D01*
X38047618Y-1294462D02*
X37923808Y-1294462D01*
X37923808Y-1294462D02*
X37861903Y-1263510D01*
X37861903Y-1263510D02*
X37830951Y-1201605D01*
X37830951Y-1201605D02*
X37830951Y-953986D01*
X37830951Y-953986D02*
X37861903Y-892081D01*
X37861903Y-892081D02*
X37923808Y-861129D01*
X37923808Y-861129D02*
X38047618Y-861129D01*
X38047618Y-861129D02*
X38109522Y-892081D01*
X38109522Y-892081D02*
X38140475Y-953986D01*
X38140475Y-953986D02*
X38140475Y-1015890D01*
X38140475Y-1015890D02*
X37830951Y-1077795D01*
X38357142Y-861129D02*
X38511904Y-1294462D01*
X38511904Y-1294462D02*
X38666665Y-861129D01*
X39285713Y-1232557D02*
X39254761Y-1263510D01*
X39254761Y-1263510D02*
X39161903Y-1294462D01*
X39161903Y-1294462D02*
X39099999Y-1294462D01*
X39099999Y-1294462D02*
X39007142Y-1263510D01*
X39007142Y-1263510D02*
X38945237Y-1201605D01*
X38945237Y-1201605D02*
X38914284Y-1139700D01*
X38914284Y-1139700D02*
X38883332Y-1015890D01*
X38883332Y-1015890D02*
X38883332Y-923033D01*
X38883332Y-923033D02*
X38914284Y-799224D01*
X38914284Y-799224D02*
X38945237Y-737319D01*
X38945237Y-737319D02*
X39007142Y-675414D01*
X39007142Y-675414D02*
X39099999Y-644462D01*
X39099999Y-644462D02*
X39161903Y-644462D01*
X39161903Y-644462D02*
X39254761Y-675414D01*
X39254761Y-675414D02*
X39285713Y-706367D01*
%LPC*%
G36*
X23625000Y-14425000D02*
G01*
X22875000Y-14425000D01*
X22875000Y-13575000D01*
X23625000Y-13575000D01*
X23625000Y-14425000D01*
G37*
G36*
X25125000Y-14425000D02*
G01*
X24375000Y-14425000D01*
X24375000Y-13575000D01*
X25125000Y-13575000D01*
X25125000Y-14425000D01*
G37*
G36*
X22600000Y-14275000D02*
G01*
X22100000Y-14275000D01*
X22100000Y-13725000D01*
X22600000Y-13725000D01*
X22600000Y-14275000D01*
G37*
G36*
X2625000Y-11400000D02*
G01*
X2175000Y-11400000D01*
X2175000Y-10400000D01*
X2625000Y-10400000D01*
X2625000Y-11400000D01*
G37*
G36*
X4125000Y-11400000D02*
G01*
X3675000Y-11400000D01*
X3675000Y-10400000D01*
X4125000Y-10400000D01*
X4125000Y-11400000D01*
G37*
G36*
X5550000Y-11400000D02*
G01*
X5250000Y-11400000D01*
X5250000Y-10400000D01*
X5550000Y-10400000D01*
X5550000Y-11400000D01*
G37*
G36*
X6150000Y-11400000D02*
G01*
X5850000Y-11400000D01*
X5850000Y-10400000D01*
X6150000Y-10400000D01*
X6150000Y-11400000D01*
G37*
G36*
X6750000Y-11400000D02*
G01*
X6450000Y-11400000D01*
X6450000Y-10400000D01*
X6750000Y-10400000D01*
X6750000Y-11400000D01*
G37*
G36*
X7725000Y-11400000D02*
G01*
X7275000Y-11400000D01*
X7275000Y-10400000D01*
X7725000Y-10400000D01*
X7725000Y-11400000D01*
G37*
G36*
X9225000Y-11400000D02*
G01*
X8775000Y-11400000D01*
X8775000Y-10400000D01*
X9225000Y-10400000D01*
X9225000Y-11400000D01*
G37*
G36*
X1269471Y-8005133D02*
G01*
X1278316Y-8005133D01*
X1303794Y-8011960D01*
X1374137Y-8025951D01*
X1407342Y-8039705D01*
X1429610Y-8045672D01*
X1449576Y-8057199D01*
X1482779Y-8070953D01*
X1542414Y-8110799D01*
X1565257Y-8123988D01*
X1571509Y-8130240D01*
X1580559Y-8136287D01*
X1663712Y-8219440D01*
X1669758Y-8228489D01*
X1676012Y-8234743D01*
X1689202Y-8257589D01*
X1729046Y-8317220D01*
X1742797Y-8350419D01*
X1754328Y-8370390D01*
X1760295Y-8392661D01*
X1774048Y-8425862D01*
X1788037Y-8496197D01*
X1794867Y-8521684D01*
X1795731Y-8534879D01*
X1797110Y-8541808D01*
X1799879Y-8598154D01*
X1800000Y-8600000D01*
X1800000Y-9400000D01*
X1799878Y-9401848D01*
X1797110Y-9458191D01*
X1795731Y-9465119D01*
X1794867Y-9478316D01*
X1788037Y-9503805D01*
X1774048Y-9574137D01*
X1760296Y-9607335D01*
X1754328Y-9629610D01*
X1742796Y-9649583D01*
X1729046Y-9682779D01*
X1689206Y-9742403D01*
X1676012Y-9765257D01*
X1669756Y-9771512D01*
X1663712Y-9780559D01*
X1580559Y-9863712D01*
X1571512Y-9869756D01*
X1565257Y-9876012D01*
X1542403Y-9889206D01*
X1482779Y-9929046D01*
X1449583Y-9942796D01*
X1429610Y-9954328D01*
X1407335Y-9960296D01*
X1374137Y-9974048D01*
X1303800Y-9988038D01*
X1278316Y-9994867D01*
X1269470Y-9994867D01*
X1258797Y-9996990D01*
X1141203Y-9996990D01*
X1130530Y-9994867D01*
X1121684Y-9994867D01*
X1096200Y-9988038D01*
X1025862Y-9974048D01*
X992661Y-9960295D01*
X970390Y-9954328D01*
X950419Y-9942797D01*
X917220Y-9929046D01*
X857589Y-9889202D01*
X834743Y-9876012D01*
X828489Y-9869758D01*
X819440Y-9863712D01*
X736287Y-9780559D01*
X730240Y-9771509D01*
X723988Y-9765257D01*
X710799Y-9742414D01*
X670953Y-9682779D01*
X657199Y-9649576D01*
X645672Y-9629610D01*
X639705Y-9607342D01*
X625951Y-9574137D01*
X611958Y-9503790D01*
X605133Y-9478316D01*
X604268Y-9465126D01*
X602889Y-9458191D01*
X600121Y-9401846D01*
X600000Y-9400000D01*
X600000Y-8600000D01*
X600120Y-8598156D01*
X602889Y-8541808D01*
X604268Y-8534871D01*
X605133Y-8521684D01*
X611958Y-8496212D01*
X625951Y-8425862D01*
X639706Y-8392654D01*
X645672Y-8370390D01*
X657198Y-8350425D01*
X670953Y-8317220D01*
X710804Y-8257578D01*
X723988Y-8234743D01*
X730238Y-8228492D01*
X736287Y-8219440D01*
X819440Y-8136287D01*
X828492Y-8130238D01*
X834743Y-8123988D01*
X857578Y-8110804D01*
X917220Y-8070953D01*
X950425Y-8057198D01*
X970390Y-8045672D01*
X992654Y-8039706D01*
X1025862Y-8025951D01*
X1096206Y-8011959D01*
X1121684Y-8005133D01*
X1130529Y-8005133D01*
X1141203Y-8003010D01*
X1258797Y-8003010D01*
X1269471Y-8005133D01*
G37*
G36*
X10269471Y-8005133D02*
G01*
X10278316Y-8005133D01*
X10303794Y-8011960D01*
X10374137Y-8025951D01*
X10407342Y-8039705D01*
X10429610Y-8045672D01*
X10449576Y-8057199D01*
X10482779Y-8070953D01*
X10542414Y-8110799D01*
X10565257Y-8123988D01*
X10571509Y-8130240D01*
X10580559Y-8136287D01*
X10663712Y-8219440D01*
X10669758Y-8228489D01*
X10676012Y-8234743D01*
X10689202Y-8257589D01*
X10729046Y-8317220D01*
X10742797Y-8350419D01*
X10754328Y-8370390D01*
X10760295Y-8392661D01*
X10774048Y-8425862D01*
X10788037Y-8496197D01*
X10794867Y-8521684D01*
X10795731Y-8534879D01*
X10797110Y-8541808D01*
X10799879Y-8598154D01*
X10800000Y-8600000D01*
X10800000Y-9400000D01*
X10799878Y-9401848D01*
X10797110Y-9458191D01*
X10795731Y-9465119D01*
X10794867Y-9478316D01*
X10788037Y-9503805D01*
X10774048Y-9574137D01*
X10760296Y-9607335D01*
X10754328Y-9629610D01*
X10742796Y-9649583D01*
X10729046Y-9682779D01*
X10689206Y-9742403D01*
X10676012Y-9765257D01*
X10669756Y-9771512D01*
X10663712Y-9780559D01*
X10580559Y-9863712D01*
X10571512Y-9869756D01*
X10565257Y-9876012D01*
X10542403Y-9889206D01*
X10482779Y-9929046D01*
X10449583Y-9942796D01*
X10429610Y-9954328D01*
X10407335Y-9960296D01*
X10374137Y-9974048D01*
X10303800Y-9988038D01*
X10278316Y-9994867D01*
X10269470Y-9994867D01*
X10258797Y-9996990D01*
X10141203Y-9996990D01*
X10130530Y-9994867D01*
X10121684Y-9994867D01*
X10096200Y-9988038D01*
X10025862Y-9974048D01*
X9992661Y-9960295D01*
X9970390Y-9954328D01*
X9950419Y-9942797D01*
X9917220Y-9929046D01*
X9857589Y-9889202D01*
X9834743Y-9876012D01*
X9828489Y-9869758D01*
X9819440Y-9863712D01*
X9736287Y-9780559D01*
X9730240Y-9771509D01*
X9723988Y-9765257D01*
X9710799Y-9742414D01*
X9670953Y-9682779D01*
X9657199Y-9649576D01*
X9645672Y-9629610D01*
X9639705Y-9607342D01*
X9625951Y-9574137D01*
X9611958Y-9503790D01*
X9605133Y-9478316D01*
X9604268Y-9465126D01*
X9602889Y-9458191D01*
X9600121Y-9401846D01*
X9600000Y-9400000D01*
X9600000Y-8600000D01*
X9600120Y-8598156D01*
X9602889Y-8541808D01*
X9604268Y-8534871D01*
X9605133Y-8521684D01*
X9611958Y-8496212D01*
X9625951Y-8425862D01*
X9639706Y-8392654D01*
X9645672Y-8370390D01*
X9657198Y-8350425D01*
X9670953Y-8317220D01*
X9710804Y-8257578D01*
X9723988Y-8234743D01*
X9730238Y-8228492D01*
X9736287Y-8219440D01*
X9819440Y-8136287D01*
X9828492Y-8130238D01*
X9834743Y-8123988D01*
X9857578Y-8110804D01*
X9917220Y-8070953D01*
X9950425Y-8057198D01*
X9970390Y-8045672D01*
X9992654Y-8039706D01*
X10025862Y-8025951D01*
X10096206Y-8011959D01*
X10121684Y-8005133D01*
X10130529Y-8005133D01*
X10141203Y-8003010D01*
X10258797Y-8003010D01*
X10269471Y-8005133D01*
G37*
G36*
X14100000Y-9800000D02*
G01*
X13000000Y-9800000D01*
X13000000Y-8200000D01*
X14100000Y-8200000D01*
X14100000Y-9800000D01*
G37*
G36*
X17000000Y-9800000D02*
G01*
X15900000Y-9800000D01*
X15900000Y-8200000D01*
X17000000Y-8200000D01*
X17000000Y-9800000D01*
G37*
G36*
X24232228Y-8234448D02*
G01*
X24377117Y-8294463D01*
X24507515Y-8381592D01*
X24618408Y-8492485D01*
X24705537Y-8622883D01*
X24765552Y-8767772D01*
X24796148Y-8921586D01*
X24796148Y-9078414D01*
X24765552Y-9232228D01*
X24705537Y-9377117D01*
X24618408Y-9507515D01*
X24507515Y-9618408D01*
X24377117Y-9705537D01*
X24232228Y-9765552D01*
X24078414Y-9796148D01*
X23921586Y-9796148D01*
X23767772Y-9765552D01*
X23622883Y-9705537D01*
X23492485Y-9618408D01*
X23381592Y-9507515D01*
X23294463Y-9377117D01*
X23234448Y-9232228D01*
X23203852Y-9078414D01*
X23203852Y-8921586D01*
X23234448Y-8767772D01*
X23294463Y-8622883D01*
X23381592Y-8492485D01*
X23492485Y-8381592D01*
X23622883Y-8294463D01*
X23767772Y-8234448D01*
X23921586Y-8203852D01*
X24078414Y-8203852D01*
X24232228Y-8234448D01*
G37*
G36*
X28232228Y-8234448D02*
G01*
X28377117Y-8294463D01*
X28507515Y-8381592D01*
X28618408Y-8492485D01*
X28705537Y-8622883D01*
X28765552Y-8767772D01*
X28796148Y-8921586D01*
X28796148Y-9078414D01*
X28765552Y-9232228D01*
X28705537Y-9377117D01*
X28618408Y-9507515D01*
X28507515Y-9618408D01*
X28377117Y-9705537D01*
X28232228Y-9765552D01*
X28078414Y-9796148D01*
X27921586Y-9796148D01*
X27767772Y-9765552D01*
X27622883Y-9705537D01*
X27492485Y-9618408D01*
X27381592Y-9507515D01*
X27294463Y-9377117D01*
X27234448Y-9232228D01*
X27203852Y-9078414D01*
X27203852Y-8921586D01*
X27234448Y-8767772D01*
X27294463Y-8622883D01*
X27381592Y-8492485D01*
X27492485Y-8381592D01*
X27622883Y-8294463D01*
X27767772Y-8234448D01*
X27921586Y-8203852D01*
X28078414Y-8203852D01*
X28232228Y-8234448D01*
G37*
G36*
X32232228Y-8234448D02*
G01*
X32377117Y-8294463D01*
X32507515Y-8381592D01*
X32618408Y-8492485D01*
X32705537Y-8622883D01*
X32765552Y-8767772D01*
X32796148Y-8921586D01*
X32796148Y-9078414D01*
X32765552Y-9232228D01*
X32705537Y-9377117D01*
X32618408Y-9507515D01*
X32507515Y-9618408D01*
X32377117Y-9705537D01*
X32232228Y-9765552D01*
X32078414Y-9796148D01*
X31921586Y-9796148D01*
X31767772Y-9765552D01*
X31622883Y-9705537D01*
X31492485Y-9618408D01*
X31381592Y-9507515D01*
X31294463Y-9377117D01*
X31234448Y-9232228D01*
X31203852Y-9078414D01*
X31203852Y-8921586D01*
X31234448Y-8767772D01*
X31294463Y-8622883D01*
X31381592Y-8492485D01*
X31492485Y-8381592D01*
X31622883Y-8294463D01*
X31767772Y-8234448D01*
X31921586Y-8203852D01*
X32078414Y-8203852D01*
X32232228Y-8234448D01*
G37*
G36*
X36232228Y-8234448D02*
G01*
X36377117Y-8294463D01*
X36507515Y-8381592D01*
X36618408Y-8492485D01*
X36705537Y-8622883D01*
X36765552Y-8767772D01*
X36796148Y-8921586D01*
X36796148Y-9078414D01*
X36765552Y-9232228D01*
X36705537Y-9377117D01*
X36618408Y-9507515D01*
X36507515Y-9618408D01*
X36377117Y-9705537D01*
X36232228Y-9765552D01*
X36078414Y-9796148D01*
X35921586Y-9796148D01*
X35767772Y-9765552D01*
X35622883Y-9705537D01*
X35492485Y-9618408D01*
X35381592Y-9507515D01*
X35294463Y-9377117D01*
X35234448Y-9232228D01*
X35203852Y-9078414D01*
X35203852Y-8921586D01*
X35234448Y-8767772D01*
X35294463Y-8622883D01*
X35381592Y-8492485D01*
X35492485Y-8381592D01*
X35622883Y-8294463D01*
X35767772Y-8234448D01*
X35921586Y-8203852D01*
X36078414Y-8203852D01*
X36232228Y-8234448D01*
G37*
G36*
X40232228Y-8234448D02*
G01*
X40377117Y-8294463D01*
X40507515Y-8381592D01*
X40618408Y-8492485D01*
X40705537Y-8622883D01*
X40765552Y-8767772D01*
X40796148Y-8921586D01*
X40796148Y-9078414D01*
X40765552Y-9232228D01*
X40705537Y-9377117D01*
X40618408Y-9507515D01*
X40507515Y-9618408D01*
X40377117Y-9705537D01*
X40232228Y-9765552D01*
X40078414Y-9796148D01*
X39921586Y-9796148D01*
X39767772Y-9765552D01*
X39622883Y-9705537D01*
X39492485Y-9618408D01*
X39381592Y-9507515D01*
X39294463Y-9377117D01*
X39234448Y-9232228D01*
X39203852Y-9078414D01*
X39203852Y-8921586D01*
X39234448Y-8767772D01*
X39294463Y-8622883D01*
X39381592Y-8492485D01*
X39492485Y-8381592D01*
X39622883Y-8294463D01*
X39767772Y-8234448D01*
X39921586Y-8203852D01*
X40078414Y-8203852D01*
X40232228Y-8234448D01*
G37*
G36*
X44232228Y-8234448D02*
G01*
X44377117Y-8294463D01*
X44507515Y-8381592D01*
X44618408Y-8492485D01*
X44705537Y-8622883D01*
X44765552Y-8767772D01*
X44796148Y-8921586D01*
X44796148Y-9078414D01*
X44765552Y-9232228D01*
X44705537Y-9377117D01*
X44618408Y-9507515D01*
X44507515Y-9618408D01*
X44377117Y-9705537D01*
X44232228Y-9765552D01*
X44078414Y-9796148D01*
X43921586Y-9796148D01*
X43767772Y-9765552D01*
X43622883Y-9705537D01*
X43492485Y-9618408D01*
X43381592Y-9507515D01*
X43294463Y-9377117D01*
X43234448Y-9232228D01*
X43203852Y-9078414D01*
X43203852Y-8921586D01*
X43234448Y-8767772D01*
X43294463Y-8622883D01*
X43381592Y-8492485D01*
X43492485Y-8381592D01*
X43622883Y-8294463D01*
X43767772Y-8234448D01*
X43921586Y-8203852D01*
X44078414Y-8203852D01*
X44232228Y-8234448D01*
G37*
G36*
X48232228Y-8234448D02*
G01*
X48377117Y-8294463D01*
X48507515Y-8381592D01*
X48618408Y-8492485D01*
X48705537Y-8622883D01*
X48765552Y-8767772D01*
X48796148Y-8921586D01*
X48796148Y-9078414D01*
X48765552Y-9232228D01*
X48705537Y-9377117D01*
X48618408Y-9507515D01*
X48507515Y-9618408D01*
X48377117Y-9705537D01*
X48232228Y-9765552D01*
X48078414Y-9796148D01*
X47921586Y-9796148D01*
X47767772Y-9765552D01*
X47622883Y-9705537D01*
X47492485Y-9618408D01*
X47381592Y-9507515D01*
X47294463Y-9377117D01*
X47234448Y-9232228D01*
X47203852Y-9078414D01*
X47203852Y-8921586D01*
X47234448Y-8767772D01*
X47294463Y-8622883D01*
X47381592Y-8492485D01*
X47492485Y-8381592D01*
X47622883Y-8294463D01*
X47767772Y-8234448D01*
X47921586Y-8203852D01*
X48078414Y-8203852D01*
X48232228Y-8234448D01*
G37*
G36*
X52232228Y-8234448D02*
G01*
X52377117Y-8294463D01*
X52507515Y-8381592D01*
X52618408Y-8492485D01*
X52705537Y-8622883D01*
X52765552Y-8767772D01*
X52796148Y-8921586D01*
X52796148Y-9078414D01*
X52765552Y-9232228D01*
X52705537Y-9377117D01*
X52618408Y-9507515D01*
X52507515Y-9618408D01*
X52377117Y-9705537D01*
X52232228Y-9765552D01*
X52078414Y-9796148D01*
X51921586Y-9796148D01*
X51767772Y-9765552D01*
X51622883Y-9705537D01*
X51492485Y-9618408D01*
X51381592Y-9507515D01*
X51294463Y-9377117D01*
X51234448Y-9232228D01*
X51203852Y-9078414D01*
X51203852Y-8921586D01*
X51234448Y-8767772D01*
X51294463Y-8622883D01*
X51381592Y-8492485D01*
X51492485Y-8381592D01*
X51622883Y-8294463D01*
X51767772Y-8234448D01*
X51921586Y-8203852D01*
X52078414Y-8203852D01*
X52232228Y-8234448D01*
G37*
G36*
X2625000Y-7600000D02*
G01*
X2175000Y-7600000D01*
X2175000Y-6600000D01*
X2625000Y-6600000D01*
X2625000Y-7600000D01*
G37*
G36*
X4125000Y-7600000D02*
G01*
X3675000Y-7600000D01*
X3675000Y-6600000D01*
X4125000Y-6600000D01*
X4125000Y-7600000D01*
G37*
G36*
X4950000Y-7600000D02*
G01*
X4650000Y-7600000D01*
X4650000Y-6600000D01*
X4950000Y-6600000D01*
X4950000Y-7600000D01*
G37*
G36*
X5550000Y-7600000D02*
G01*
X5250000Y-7600000D01*
X5250000Y-6600000D01*
X5550000Y-6600000D01*
X5550000Y-7600000D01*
G37*
G36*
X6150000Y-7600000D02*
G01*
X5850000Y-7600000D01*
X5850000Y-6600000D01*
X6150000Y-6600000D01*
X6150000Y-7600000D01*
G37*
G36*
X7725000Y-7600000D02*
G01*
X7275000Y-7600000D01*
X7275000Y-6600000D01*
X7725000Y-6600000D01*
X7725000Y-7600000D01*
G37*
G36*
X9225000Y-7600000D02*
G01*
X8775000Y-7600000D01*
X8775000Y-6600000D01*
X9225000Y-6600000D01*
X9225000Y-7600000D01*
G37*
G36*
X20250000Y-7525000D02*
G01*
X19750000Y-7525000D01*
X19750000Y-6975000D01*
X20250000Y-6975000D01*
X20250000Y-7525000D01*
G37*
G36*
X20250000Y-6625000D02*
G01*
X19750000Y-6625000D01*
X19750000Y-6075000D01*
X20250000Y-6075000D01*
X20250000Y-6625000D01*
G37*
G36*
X42475000Y-4850000D02*
G01*
X41925000Y-4850000D01*
X41925000Y-4450000D01*
X42475000Y-4450000D01*
X42475000Y-4850000D01*
G37*
G36*
X44075000Y-4850000D02*
G01*
X43525000Y-4850000D01*
X43525000Y-4450000D01*
X44075000Y-4450000D01*
X44075000Y-4850000D01*
G37*
G36*
X49475000Y-4850000D02*
G01*
X48925000Y-4850000D01*
X48925000Y-4450000D01*
X49475000Y-4450000D01*
X49475000Y-4850000D01*
G37*
G36*
X51075000Y-4850000D02*
G01*
X50525000Y-4850000D01*
X50525000Y-4450000D01*
X51075000Y-4450000D01*
X51075000Y-4850000D01*
G37*
G36*
X42475000Y-3950000D02*
G01*
X41925000Y-3950000D01*
X41925000Y-3550000D01*
X42475000Y-3550000D01*
X42475000Y-3950000D01*
G37*
G36*
X44075000Y-3950000D02*
G01*
X43525000Y-3950000D01*
X43525000Y-3550000D01*
X44075000Y-3550000D01*
X44075000Y-3950000D01*
G37*
G36*
X49475000Y-3950000D02*
G01*
X48925000Y-3950000D01*
X48925000Y-3550000D01*
X49475000Y-3550000D01*
X49475000Y-3950000D01*
G37*
G36*
X51075000Y-3950000D02*
G01*
X50525000Y-3950000D01*
X50525000Y-3550000D01*
X51075000Y-3550000D01*
X51075000Y-3950000D01*
G37*
G36*
X23625000Y-3425000D02*
G01*
X22875000Y-3425000D01*
X22875000Y-2575000D01*
X23625000Y-2575000D01*
X23625000Y-3425000D01*
G37*
G36*
X25125000Y-3425000D02*
G01*
X24375000Y-3425000D01*
X24375000Y-2575000D01*
X25125000Y-2575000D01*
X25125000Y-3425000D01*
G37*
G36*
X14300000Y-3275000D02*
G01*
X13800000Y-3275000D01*
X13800000Y-2725000D01*
X14300000Y-2725000D01*
X14300000Y-3275000D01*
G37*
G36*
X15200000Y-3275000D02*
G01*
X14700000Y-3275000D01*
X14700000Y-2725000D01*
X15200000Y-2725000D01*
X15200000Y-3275000D01*
G37*
G36*
X15800000Y-3275000D02*
G01*
X15300000Y-3275000D01*
X15300000Y-2725000D01*
X15800000Y-2725000D01*
X15800000Y-3275000D01*
G37*
G36*
X16700000Y-3275000D02*
G01*
X16200000Y-3275000D01*
X16200000Y-2725000D01*
X16700000Y-2725000D01*
X16700000Y-3275000D01*
G37*
G36*
X22600000Y-3275000D02*
G01*
X22100000Y-3275000D01*
X22100000Y-2725000D01*
X22600000Y-2725000D01*
X22600000Y-3275000D01*
G37*
%LPD*%
M02*
