%TF.GenerationSoftware,KiCad,Pcbnew,10.0.3*%
%TF.CreationDate,2026-06-19T11:24:47+09:00*%
%TF.ProjectId,CameraIoT_USB-C_Programmer_Dock,43616d65-7261-4496-9f54-5f5553422d43,rev?*%
%TF.SameCoordinates,Original*%
%TF.FileFunction,Copper,L2,Bot*%
%TF.FilePolarity,Positive*%
%FSLAX46Y46*%
G04 Gerber Fmt 4.6, Leading zero omitted, Abs format (unit mm)*
G04 Created by KiCad (PCBNEW 10.0.3) date 2026-06-19 11:24:47*
%MOMM*%
%LPD*%
G01*
G04 APERTURE LIST*
%TA.AperFunction,ComponentPad*%
%ADD10O,1.200000X2.000000*%
%TD*%
%TA.AperFunction,ViaPad*%
%ADD11C,0.500000*%
%TD*%
%TA.AperFunction,ViaPad*%
%ADD12C,0.550000*%
%TD*%
%TA.AperFunction,Conductor*%
%ADD13C,0.150000*%
%TD*%
G04 APERTURE END LIST*
D10*
%TO.P,J1,S1*%
%TO.N,GND*%
X10200000Y-9000000D03*
%TO.P,J1,S2*%
X1200000Y-9000000D03*
%TD*%
D11*
%TO.N,CC1*%
X6600000Y-13500000D03*
X14050000Y-3000000D03*
D12*
%TO.N,GND*%
X17500000Y-1500000D03*
D11*
%TO.N,CC2*%
X15550000Y-3000000D03*
X4800000Y-3000000D03*
%TO.N,USB_DP*%
X6000000Y-11500000D03*
X32000000Y-9800000D03*
X5400000Y-6600000D03*
%TO.N,USB_DN*%
X36000000Y-9800000D03*
X6500000Y-5800000D03*
X5400000Y-11500000D03*
%TD*%
%TO.N,CC1*%
D13*
X2800000Y-13500000D02*
X2800000Y-2000000D01*
X2800000Y-2000000D02*
X14050000Y-2000000D01*
X14050000Y-2000000D02*
X14050000Y-3000000D01*
X6600000Y-13500000D02*
X2800000Y-13500000D01*
%TO.N,CC2*%
X4800000Y-4000000D02*
X15550000Y-4000000D01*
X15550000Y-4000000D02*
X15550000Y-3000000D01*
X4800000Y-3000000D02*
X4800000Y-4000000D01*
%TO.N,USB_DP*%
X32000000Y-11800000D02*
X32000000Y-9800000D01*
X5400000Y-6600000D02*
X8000000Y-6600000D01*
X6000000Y-11800000D02*
X32000000Y-11800000D01*
X6000000Y-11500000D02*
X6000000Y-11800000D01*
X8000000Y-6600000D02*
X8000000Y-11800000D01*
%TO.N,USB_DN*%
X4500000Y-5800000D02*
X4500000Y-12800000D01*
X36000000Y-12800000D02*
X36000000Y-9800000D01*
X4500000Y-12800000D02*
X36000000Y-12800000D01*
X5400000Y-11500000D02*
X5400000Y-12800000D01*
X6500000Y-5800000D02*
X4500000Y-5800000D01*
%TD*%
%TA.AperFunction,Conductor*%
%TO.N,GND*%
G36*
X59728326Y-271674D02*
G01*
X59750000Y-324000D01*
X59750000Y-17676000D01*
X59728326Y-17728326D01*
X59676000Y-17750000D01*
X324000Y-17750000D01*
X271674Y-17728326D01*
X250000Y-17676000D01*
X250000Y-9701687D01*
X271674Y-9649361D01*
X324000Y-9627687D01*
X345482Y-9630874D01*
X381439Y-9641782D01*
X879076Y-9144144D01*
X919930Y-9214905D01*
X985095Y-9280070D01*
X1055854Y-9320922D01*
X497773Y-9879003D01*
X539761Y-9941843D01*
X658156Y-10060238D01*
X797373Y-10153259D01*
X952063Y-10217334D01*
X952069Y-10217336D01*
X1116284Y-10250000D01*
X1283716Y-10250000D01*
X1447930Y-10217336D01*
X1447936Y-10217334D01*
X1602626Y-10153259D01*
X1741843Y-10060238D01*
X1741845Y-10060237D01*
X1860235Y-9941846D01*
X1902225Y-9879003D01*
X1902225Y-9879002D01*
X1344145Y-9320922D01*
X1414905Y-9280070D01*
X1480070Y-9214905D01*
X1520922Y-9144145D01*
X2018558Y-9641781D01*
X2050000Y-9483716D01*
X2050000Y-8516283D01*
X2018558Y-8358217D01*
X1520922Y-8855853D01*
X1480070Y-8785095D01*
X1414905Y-8719930D01*
X1344144Y-8679076D01*
X1902225Y-8120995D01*
X1860238Y-8058156D01*
X1741843Y-7939761D01*
X1602626Y-7846740D01*
X1447936Y-7782665D01*
X1447930Y-7782663D01*
X1283716Y-7750000D01*
X1116284Y-7750000D01*
X952069Y-7782663D01*
X952063Y-7782665D01*
X797373Y-7846740D01*
X658156Y-7939761D01*
X658155Y-7939762D01*
X539760Y-8058158D01*
X539757Y-8058161D01*
X497772Y-8120995D01*
X1055854Y-8679077D01*
X985095Y-8719930D01*
X919930Y-8785095D01*
X879077Y-8855854D01*
X381440Y-8358217D01*
X345481Y-8369125D01*
X289116Y-8363573D01*
X253186Y-8319792D01*
X250000Y-8298311D01*
X250000Y-1965089D01*
X2624500Y-1965089D01*
X2624500Y-13534910D01*
X2651216Y-13599410D01*
X2651217Y-13599412D01*
X2651218Y-13599413D01*
X2700587Y-13648782D01*
X2765091Y-13675500D01*
X6253879Y-13675500D01*
X6306205Y-13697174D01*
X6317966Y-13712502D01*
X6319528Y-13715208D01*
X6319529Y-13715209D01*
X6319531Y-13715212D01*
X6384788Y-13780469D01*
X6464712Y-13826614D01*
X6464713Y-13826614D01*
X6464715Y-13826615D01*
X6509284Y-13838557D01*
X6553853Y-13850499D01*
X6553854Y-13850500D01*
X6553856Y-13850500D01*
X6646146Y-13850500D01*
X6646146Y-13850499D01*
X6735288Y-13826614D01*
X6815212Y-13780469D01*
X6880469Y-13715212D01*
X6926614Y-13635288D01*
X6950499Y-13546146D01*
X6950500Y-13546146D01*
X6950500Y-13453854D01*
X6950499Y-13453853D01*
X6926615Y-13364715D01*
X6926613Y-13364710D01*
X6880471Y-13284791D01*
X6880470Y-13284790D01*
X6880469Y-13284788D01*
X6815212Y-13219531D01*
X6815209Y-13219529D01*
X6815208Y-13219528D01*
X6735289Y-13173386D01*
X6735284Y-13173384D01*
X6646146Y-13149500D01*
X6646144Y-13149500D01*
X6553856Y-13149500D01*
X6553854Y-13149500D01*
X6464715Y-13173384D01*
X6464710Y-13173386D01*
X6384791Y-13219528D01*
X6319528Y-13284791D01*
X6317966Y-13287498D01*
X6316713Y-13288459D01*
X6316573Y-13288642D01*
X6316524Y-13288604D01*
X6273033Y-13321978D01*
X6253879Y-13324500D01*
X3049500Y-13324500D01*
X2997174Y-13302826D01*
X2975500Y-13250500D01*
X2975500Y-5765089D01*
X4324500Y-5765089D01*
X4324500Y-12834910D01*
X4351216Y-12899410D01*
X4351217Y-12899412D01*
X4351218Y-12899413D01*
X4400587Y-12948782D01*
X4465091Y-12975500D01*
X4465092Y-12975500D01*
X36034908Y-12975500D01*
X36034909Y-12975500D01*
X36099413Y-12948782D01*
X36148782Y-12899413D01*
X36175500Y-12834909D01*
X36175500Y-10146121D01*
X36197174Y-10093795D01*
X36212502Y-10082034D01*
X36213962Y-10081190D01*
X36215212Y-10080469D01*
X36280469Y-10015212D01*
X36326614Y-9935288D01*
X36350499Y-9846146D01*
X36350500Y-9846146D01*
X36350500Y-9753854D01*
X36350499Y-9753853D01*
X36326615Y-9664715D01*
X36326613Y-9664710D01*
X36280471Y-9584791D01*
X36280470Y-9584790D01*
X36280469Y-9584788D01*
X36215212Y-9519531D01*
X36215209Y-9519529D01*
X36215208Y-9519528D01*
X36135289Y-9473386D01*
X36135284Y-9473384D01*
X36046146Y-9449500D01*
X36046144Y-9449500D01*
X35953856Y-9449500D01*
X35953854Y-9449500D01*
X35864715Y-9473384D01*
X35864710Y-9473386D01*
X35784791Y-9519528D01*
X35719528Y-9584791D01*
X35673386Y-9664710D01*
X35673384Y-9664715D01*
X35649500Y-9753853D01*
X35649500Y-9846146D01*
X35673384Y-9935284D01*
X35673386Y-9935289D01*
X35719528Y-10015208D01*
X35719529Y-10015209D01*
X35719531Y-10015212D01*
X35784788Y-10080469D01*
X35784790Y-10080470D01*
X35784791Y-10080471D01*
X35787498Y-10082034D01*
X35788459Y-10083286D01*
X35788642Y-10083427D01*
X35788604Y-10083475D01*
X35821978Y-10126967D01*
X35824500Y-10146121D01*
X35824500Y-12550500D01*
X35802826Y-12602826D01*
X35750500Y-12624500D01*
X5649500Y-12624500D01*
X5597174Y-12602826D01*
X5575500Y-12550500D01*
X5575500Y-11846121D01*
X5597174Y-11793795D01*
X5599794Y-11791301D01*
X5605654Y-11785986D01*
X5615212Y-11780469D01*
X5648954Y-11746726D01*
X5650294Y-11745512D01*
X5675378Y-11736530D01*
X5700000Y-11726332D01*
X5701790Y-11727073D01*
X5703616Y-11726420D01*
X5727704Y-11737807D01*
X5752324Y-11748005D01*
X5784788Y-11780469D01*
X5784790Y-11780470D01*
X5784792Y-11780472D01*
X5788382Y-11782545D01*
X5822860Y-11827478D01*
X5823958Y-11832187D01*
X5824499Y-11834908D01*
X5851216Y-11899410D01*
X5851217Y-11899412D01*
X5851218Y-11899413D01*
X5900587Y-11948782D01*
X5965091Y-11975500D01*
X5965092Y-11975500D01*
X32034908Y-11975500D01*
X32034909Y-11975500D01*
X32099413Y-11948782D01*
X32148782Y-11899413D01*
X32175500Y-11834909D01*
X32175500Y-10146121D01*
X32197174Y-10093795D01*
X32212502Y-10082034D01*
X32213962Y-10081190D01*
X32215212Y-10080469D01*
X32280469Y-10015212D01*
X32326614Y-9935288D01*
X32350499Y-9846146D01*
X32350500Y-9846146D01*
X32350500Y-9753854D01*
X32350499Y-9753853D01*
X32326615Y-9664715D01*
X32326613Y-9664710D01*
X32280471Y-9584791D01*
X32280470Y-9584790D01*
X32280469Y-9584788D01*
X32215212Y-9519531D01*
X32215209Y-9519529D01*
X32215208Y-9519528D01*
X32135289Y-9473386D01*
X32135284Y-9473384D01*
X32046146Y-9449500D01*
X32046144Y-9449500D01*
X31953856Y-9449500D01*
X31953854Y-9449500D01*
X31864715Y-9473384D01*
X31864710Y-9473386D01*
X31784791Y-9519528D01*
X31719528Y-9584791D01*
X31673386Y-9664710D01*
X31673384Y-9664715D01*
X31649500Y-9753853D01*
X31649500Y-9846146D01*
X31673384Y-9935284D01*
X31673386Y-9935289D01*
X31719528Y-10015208D01*
X31719529Y-10015209D01*
X31719531Y-10015212D01*
X31784788Y-10080469D01*
X31784790Y-10080470D01*
X31784791Y-10080471D01*
X31787498Y-10082034D01*
X31788459Y-10083286D01*
X31788642Y-10083427D01*
X31788604Y-10083475D01*
X31821978Y-10126967D01*
X31824500Y-10146121D01*
X31824500Y-11550500D01*
X31802826Y-11602826D01*
X31750500Y-11624500D01*
X8249500Y-11624500D01*
X8197174Y-11602826D01*
X8175500Y-11550500D01*
X8175500Y-8516282D01*
X9350000Y-8516282D01*
X9350000Y-9483717D01*
X9381440Y-9641781D01*
X9879076Y-9144144D01*
X9919930Y-9214905D01*
X9985095Y-9280070D01*
X10055854Y-9320922D01*
X9497773Y-9879003D01*
X9539761Y-9941843D01*
X9658156Y-10060238D01*
X9797373Y-10153259D01*
X9952063Y-10217334D01*
X9952069Y-10217336D01*
X10116284Y-10250000D01*
X10283716Y-10250000D01*
X10447930Y-10217336D01*
X10447936Y-10217334D01*
X10602626Y-10153259D01*
X10741843Y-10060238D01*
X10741845Y-10060237D01*
X10860235Y-9941846D01*
X10902225Y-9879003D01*
X10902225Y-9879002D01*
X10344145Y-9320922D01*
X10414905Y-9280070D01*
X10480070Y-9214905D01*
X10520922Y-9144145D01*
X11018558Y-9641781D01*
X11050000Y-9483716D01*
X11050000Y-8516283D01*
X11018558Y-8358217D01*
X10520922Y-8855853D01*
X10480070Y-8785095D01*
X10414905Y-8719930D01*
X10344144Y-8679076D01*
X10902225Y-8120995D01*
X10860238Y-8058156D01*
X10741843Y-7939761D01*
X10602626Y-7846740D01*
X10447936Y-7782665D01*
X10447930Y-7782663D01*
X10283716Y-7750000D01*
X10116284Y-7750000D01*
X9952069Y-7782663D01*
X9952063Y-7782665D01*
X9797373Y-7846740D01*
X9658156Y-7939761D01*
X9658155Y-7939762D01*
X9539760Y-8058158D01*
X9539757Y-8058161D01*
X9497772Y-8120995D01*
X10055854Y-8679077D01*
X9985095Y-8719930D01*
X9919930Y-8785095D01*
X9879077Y-8855854D01*
X9381440Y-8358217D01*
X9350000Y-8516282D01*
X8175500Y-8516282D01*
X8175500Y-6565091D01*
X8175499Y-6565089D01*
X8148783Y-6500589D01*
X8148781Y-6500586D01*
X8099414Y-6451219D01*
X8099410Y-6451216D01*
X8034909Y-6424500D01*
X5746121Y-6424500D01*
X5693795Y-6402826D01*
X5682034Y-6387498D01*
X5680471Y-6384791D01*
X5680470Y-6384790D01*
X5680469Y-6384788D01*
X5615212Y-6319531D01*
X5615209Y-6319529D01*
X5615208Y-6319528D01*
X5535289Y-6273386D01*
X5535284Y-6273384D01*
X5446146Y-6249500D01*
X5446144Y-6249500D01*
X5353856Y-6249500D01*
X5353854Y-6249500D01*
X5264715Y-6273384D01*
X5264710Y-6273386D01*
X5184791Y-6319528D01*
X5119528Y-6384791D01*
X5073386Y-6464710D01*
X5073384Y-6464715D01*
X5049500Y-6553853D01*
X5049500Y-6646146D01*
X5073384Y-6735284D01*
X5073386Y-6735289D01*
X5119528Y-6815208D01*
X5119529Y-6815209D01*
X5119531Y-6815212D01*
X5184788Y-6880469D01*
X5264712Y-6926614D01*
X5264713Y-6926614D01*
X5264715Y-6926615D01*
X5309284Y-6938557D01*
X5353853Y-6950499D01*
X5353854Y-6950500D01*
X5353856Y-6950500D01*
X5446146Y-6950500D01*
X5446146Y-6950499D01*
X5535288Y-6926614D01*
X5615212Y-6880469D01*
X5680469Y-6815212D01*
X5682034Y-6812502D01*
X5683286Y-6811540D01*
X5683427Y-6811358D01*
X5683475Y-6811395D01*
X5726967Y-6778022D01*
X5746121Y-6775500D01*
X7750500Y-6775500D01*
X7802826Y-6797174D01*
X7824500Y-6849500D01*
X7824500Y-11550500D01*
X7802826Y-11602826D01*
X7750500Y-11624500D01*
X6424500Y-11624500D01*
X6372174Y-11602826D01*
X6350500Y-11550500D01*
X6350500Y-11453854D01*
X6350499Y-11453853D01*
X6326615Y-11364715D01*
X6326613Y-11364710D01*
X6280471Y-11284791D01*
X6280470Y-11284790D01*
X6280469Y-11284788D01*
X6215212Y-11219531D01*
X6215209Y-11219529D01*
X6215208Y-11219528D01*
X6135289Y-11173386D01*
X6135284Y-11173384D01*
X6046146Y-11149500D01*
X6046144Y-11149500D01*
X5953856Y-11149500D01*
X5953854Y-11149500D01*
X5864715Y-11173384D01*
X5864710Y-11173386D01*
X5784791Y-11219528D01*
X5784788Y-11219530D01*
X5784788Y-11219531D01*
X5752324Y-11251994D01*
X5700000Y-11273668D01*
X5647675Y-11251994D01*
X5615212Y-11219531D01*
X5615209Y-11219529D01*
X5615208Y-11219528D01*
X5535289Y-11173386D01*
X5535284Y-11173384D01*
X5446146Y-11149500D01*
X5446144Y-11149500D01*
X5353856Y-11149500D01*
X5353854Y-11149500D01*
X5264715Y-11173384D01*
X5264710Y-11173386D01*
X5184791Y-11219528D01*
X5119528Y-11284791D01*
X5073386Y-11364710D01*
X5073384Y-11364715D01*
X5049500Y-11453853D01*
X5049500Y-11546146D01*
X5073384Y-11635284D01*
X5073386Y-11635289D01*
X5119528Y-11715208D01*
X5119529Y-11715209D01*
X5119531Y-11715212D01*
X5184788Y-11780469D01*
X5184790Y-11780470D01*
X5184791Y-11780471D01*
X5187498Y-11782034D01*
X5188459Y-11783286D01*
X5188642Y-11783427D01*
X5188604Y-11783475D01*
X5221978Y-11826967D01*
X5224500Y-11846121D01*
X5224500Y-12550500D01*
X5202826Y-12602826D01*
X5150500Y-12624500D01*
X4749500Y-12624500D01*
X4697174Y-12602826D01*
X4675500Y-12550500D01*
X4675500Y-6049500D01*
X4697174Y-5997174D01*
X4749500Y-5975500D01*
X6153879Y-5975500D01*
X6206205Y-5997174D01*
X6217966Y-6012502D01*
X6219528Y-6015208D01*
X6219529Y-6015209D01*
X6219531Y-6015212D01*
X6284788Y-6080469D01*
X6364712Y-6126614D01*
X6364713Y-6126614D01*
X6364715Y-6126615D01*
X6409284Y-6138557D01*
X6453853Y-6150499D01*
X6453854Y-6150500D01*
X6453856Y-6150500D01*
X6546146Y-6150500D01*
X6546146Y-6150499D01*
X6635288Y-6126614D01*
X6715212Y-6080469D01*
X6780469Y-6015212D01*
X6826614Y-5935288D01*
X6850499Y-5846146D01*
X6850500Y-5846146D01*
X6850500Y-5753854D01*
X6850499Y-5753853D01*
X6826615Y-5664715D01*
X6826613Y-5664710D01*
X6780471Y-5584791D01*
X6780470Y-5584790D01*
X6780469Y-5584788D01*
X6715212Y-5519531D01*
X6715209Y-5519529D01*
X6715208Y-5519528D01*
X6635289Y-5473386D01*
X6635284Y-5473384D01*
X6546146Y-5449500D01*
X6546144Y-5449500D01*
X6453856Y-5449500D01*
X6453854Y-5449500D01*
X6364715Y-5473384D01*
X6364710Y-5473386D01*
X6284791Y-5519528D01*
X6219528Y-5584791D01*
X6217966Y-5587498D01*
X6216713Y-5588459D01*
X6216573Y-5588642D01*
X6216524Y-5588604D01*
X6173033Y-5621978D01*
X6153879Y-5624500D01*
X4465091Y-5624500D01*
X4400589Y-5651216D01*
X4351216Y-5700589D01*
X4324500Y-5765089D01*
X2975500Y-5765089D01*
X2975500Y-2953853D01*
X4449500Y-2953853D01*
X4449500Y-3046146D01*
X4473384Y-3135284D01*
X4473386Y-3135289D01*
X4519528Y-3215208D01*
X4519529Y-3215209D01*
X4519531Y-3215212D01*
X4584788Y-3280469D01*
X4584790Y-3280470D01*
X4584791Y-3280471D01*
X4587498Y-3282034D01*
X4588459Y-3283286D01*
X4588642Y-3283427D01*
X4588604Y-3283475D01*
X4621978Y-3326967D01*
X4624500Y-3346121D01*
X4624500Y-4034910D01*
X4651216Y-4099410D01*
X4651217Y-4099412D01*
X4651218Y-4099413D01*
X4700587Y-4148782D01*
X4765091Y-4175500D01*
X4765092Y-4175500D01*
X15584908Y-4175500D01*
X15584909Y-4175500D01*
X15649413Y-4148782D01*
X15698782Y-4099413D01*
X15725500Y-4034909D01*
X15725500Y-3346121D01*
X15747174Y-3293795D01*
X15762502Y-3282034D01*
X15763962Y-3281190D01*
X15765212Y-3280469D01*
X15830469Y-3215212D01*
X15876614Y-3135288D01*
X15900499Y-3046146D01*
X15900500Y-3046146D01*
X15900500Y-2953854D01*
X15900499Y-2953853D01*
X15876615Y-2864715D01*
X15876613Y-2864710D01*
X15830471Y-2784791D01*
X15830470Y-2784790D01*
X15830469Y-2784788D01*
X15765212Y-2719531D01*
X15765209Y-2719529D01*
X15765208Y-2719528D01*
X15685289Y-2673386D01*
X15685284Y-2673384D01*
X15596146Y-2649500D01*
X15596144Y-2649500D01*
X15503856Y-2649500D01*
X15503854Y-2649500D01*
X15414715Y-2673384D01*
X15414710Y-2673386D01*
X15334791Y-2719528D01*
X15269528Y-2784791D01*
X15223386Y-2864710D01*
X15223384Y-2864715D01*
X15199500Y-2953853D01*
X15199500Y-3046146D01*
X15223384Y-3135284D01*
X15223386Y-3135289D01*
X15269528Y-3215208D01*
X15269529Y-3215209D01*
X15269531Y-3215212D01*
X15334788Y-3280469D01*
X15334790Y-3280470D01*
X15334791Y-3280471D01*
X15337498Y-3282034D01*
X15338459Y-3283286D01*
X15338642Y-3283427D01*
X15338604Y-3283475D01*
X15371978Y-3326967D01*
X15374500Y-3346121D01*
X15374500Y-3750500D01*
X15352826Y-3802826D01*
X15300500Y-3824500D01*
X5049500Y-3824500D01*
X4997174Y-3802826D01*
X4975500Y-3750500D01*
X4975500Y-3346121D01*
X4997174Y-3293795D01*
X5012502Y-3282034D01*
X5013962Y-3281190D01*
X5015212Y-3280469D01*
X5080469Y-3215212D01*
X5126614Y-3135288D01*
X5150499Y-3046146D01*
X5150500Y-3046146D01*
X5150500Y-2953854D01*
X5150499Y-2953853D01*
X5126615Y-2864715D01*
X5126613Y-2864710D01*
X5080471Y-2784791D01*
X5080470Y-2784790D01*
X5080469Y-2784788D01*
X5015212Y-2719531D01*
X5015209Y-2719529D01*
X5015208Y-2719528D01*
X4935289Y-2673386D01*
X4935284Y-2673384D01*
X4846146Y-2649500D01*
X4846144Y-2649500D01*
X4753856Y-2649500D01*
X4753854Y-2649500D01*
X4664715Y-2673384D01*
X4664710Y-2673386D01*
X4584791Y-2719528D01*
X4519528Y-2784791D01*
X4473386Y-2864710D01*
X4473384Y-2864715D01*
X4449500Y-2953853D01*
X2975500Y-2953853D01*
X2975500Y-2249500D01*
X2997174Y-2197174D01*
X3049500Y-2175500D01*
X13800500Y-2175500D01*
X13852826Y-2197174D01*
X13874500Y-2249500D01*
X13874500Y-2653878D01*
X13852826Y-2706204D01*
X13837508Y-2717959D01*
X13834793Y-2719526D01*
X13834788Y-2719530D01*
X13769528Y-2784791D01*
X13723386Y-2864710D01*
X13723384Y-2864715D01*
X13699500Y-2953853D01*
X13699500Y-3046146D01*
X13723384Y-3135284D01*
X13723386Y-3135289D01*
X13769528Y-3215208D01*
X13769529Y-3215209D01*
X13769531Y-3215212D01*
X13834788Y-3280469D01*
X13834790Y-3280470D01*
X13834791Y-3280471D01*
X13914710Y-3326613D01*
X13914712Y-3326614D01*
X13914713Y-3326614D01*
X13914715Y-3326615D01*
X13916029Y-3326967D01*
X14003853Y-3350499D01*
X14003854Y-3350500D01*
X14003856Y-3350500D01*
X14096146Y-3350500D01*
X14096146Y-3350499D01*
X14185288Y-3326614D01*
X14265212Y-3280469D01*
X14330469Y-3215212D01*
X14376614Y-3135288D01*
X14400499Y-3046146D01*
X14400500Y-3046146D01*
X14400500Y-2953854D01*
X14400499Y-2953853D01*
X14376615Y-2864715D01*
X14376613Y-2864710D01*
X14330471Y-2784791D01*
X14330470Y-2784790D01*
X14330469Y-2784788D01*
X14265212Y-2719531D01*
X14265211Y-2719530D01*
X14265206Y-2719526D01*
X14262492Y-2717959D01*
X14261530Y-2716705D01*
X14261364Y-2716578D01*
X14261398Y-2716533D01*
X14228019Y-2673021D01*
X14225500Y-2653878D01*
X14225500Y-1965091D01*
X14225499Y-1965089D01*
X14198783Y-1900589D01*
X14198781Y-1900586D01*
X14149414Y-1851219D01*
X14149410Y-1851216D01*
X14084909Y-1824500D01*
X2834909Y-1824500D01*
X2765091Y-1824500D01*
X2700589Y-1851216D01*
X2651216Y-1900589D01*
X2624500Y-1965089D01*
X250000Y-1965089D01*
X250000Y-324000D01*
X271674Y-271674D01*
X324000Y-250000D01*
X59676000Y-250000D01*
X59728326Y-271674D01*
G37*
%TD.AperFunction*%
%TD*%
M02*
